0
SECTION
2
HEADER
9
$INSUNITS
70
4
9
$ACADVER
1
AC1014
9
$HANDSEED
5
FFFF
0
ENDSEC
0
SECTION
2
TABLES
0
TABLE
2
VPORT
5
8
100
AcDbSymbolTable
0
ENDTAB
0
TABLE
2
LTYPE
5
5
100
AcDbSymbolTable
0
LTYPE
5
14
100
AcDbSymbolTableRecord
100
AcDbLinetypeTableRecord
2
BYBLOCK
70
0
0
LTYPE
5
15
100
AcDbSymbolTableRecord
100
AcDbLinetypeTableRecord
2
BYLAYER
70
0
0
ENDTAB
0
TABLE
2
LAYER
5
2
100
AcDbSymbolTable
70
2
0
LAYER
5
50
100
AcDbSymbolTableRecord
100
AcDbLayerTableRecord
2
0
70
0
6
CONTINUOUS
0
ENDTAB
0
TABLE
2
STYLE
5
3
100
AcDbSymbolTable
70
1
0
STYLE
5
11
100
AcDbSymbolTableRecord
100
AcDbTextStyleTableRecord
2
STANDARD
70
0
0
ENDTAB
0
TABLE
2
VIEW
5
6
100
AcDbSymbolTable
70
0
0
ENDTAB
0
TABLE
2
UCS
5
7
100
AcDbSymbolTable
70
0
0
ENDTAB
0
TABLE
2
APPID
5
9
100
AcDbSymbolTable
70
2
0
APPID
5
12
100
AcDbSymbolTableRecord
100
AcDbRegAppTableRecord
2
ACAD
70
0
0
ENDTAB
0
TABLE
2
DIMSTYLE
5
A
100
AcDbSymbolTable
70
1
0
ENDTAB
0
TABLE
2
BLOCK_RECORD
5
1
100
AcDbSymbolTable
70
1
0
BLOCK_RECORD
5
1F
100
AcDbSymbolTableRecord
100
AcDbBlockTableRecord
2
*MODEL_SPACE
0
BLOCK_RECORD
5
1B
100
AcDbSymbolTableRecord
100
AcDbBlockTableRecord
2
*PAPER_SPACE
0
ENDTAB
0
ENDSEC
0
SECTION
2
BLOCKS
0
BLOCK
5
20
100
AcDbEntity
100
AcDbBlockBegin
2
*MODEL_SPACE
0
ENDBLK
5
21
100
AcDbEntity
100
AcDbBlockEnd
0
BLOCK
5
1C
100
AcDbEntity
100
AcDbBlockBegin
2
*PAPER_SPACE
0
ENDBLK
5
1D
100
AcDbEntity
100
AcDbBlockEnd
0
ENDSEC
0
SECTION
2
ENTITIES
0
LWPOLYLINE
5
100
100
AcDbEntity
8
0
100
AcDbPolyline
90
32
70
1
43
0.0
10
84.413393426904236
20
49.082585638565781
42
-0.4142135623730977
10
83.413393426904236
20
50.082585638565789
10
83.413393426904236
20
50.343958614370734
10
67.006454742357064
20
50.343958614370749
10
67.006454742357022
20
85.94423854821909
42
-0.9905229518448655
10
67.006454742357064
20
95.030761451214232
10
67.00645474235705
20
130.64395861437072
10
88.663745449858311
20
130.64395861437072
42
-0.98843891781579929
10
97.263164034855762
20
130.64395861437072
10
128.33770309995779
20
130.64395861437069
42
-0.98899416816191865
10
137.42479689687525
20
130.64395861437072
10
248.33770309995757
20
130.64395861437072
42
-0.98899416816191366
10
257.42479689687491
20
130.64395861437075
10
288.66374544985814
20
130.64395861437075
42
-0.98843891781579929
10
297.26316403485549
20
130.64395861437075
10
318.73845474235685
20
130.64395861437072
10
318.73845474235685
20
95.03000669124819
42
-0.99455995617608772
10
318.73845474235685
20
85.944993308185047
10
318.73845474235679
20
50.343958614370777
10
287.42424331466964
20
50.343958614370763
42
-0.99195801114904147
10
278.33825668216286
20
50.343958614370777
10
243.26316403485555
20
50.343958614370756
42
-0.98843891781579929
10
234.6637454498582
20
50.34395861437077
10
197.42424331466967
20
50.343958614370749
42
-0.99195801114903104
10
188.33825668216303
20
50.343958614370763
10
151.26316403485572
20
50.343958614370756
42
-0.98843891781579929
10
142.66374544985825
20
50.343958614370756
10
107.42424331466991
20
50.343958614370734
42
-0.99195801114903792
10
98.338256682163191
20
50.343958614370749
10
92.799374909224767
20
50.343958614370749
10
92.799374909224753
20
50.082585638565789
42
-0.41421356237309509
10
91.799374909224753
20
49.082585638565789
0
CIRCLE
5
101
100
AcDbEntity
8
0
100
AcDbCircle
10
126.20624999841664
20
61.91249999971668
30
0
40
1.2499999999999987
210
1.5407439555097883e-33
220
1.5407439555097883e-33
230
1
0
CIRCLE
5
102
100
AcDbEntity
8
0
100
AcDbCircle
10
102.96345474235659
20
77.993911153293652
30
0
40
1.0999999999999952
210
1.5407439555097887e-33
220
1.5407439555097887e-33
230
1
0
CIRCLE
5
103
100
AcDbEntity
8
0
100
AcDbCircle
10
282.96345474235596
20
77.993911153293666
30
0
40
1.0999999999999779
210
1.5407439555097883e-33
220
-1.5407439555097883e-33
230
1
0
CIRCLE
5
104
100
AcDbEntity
8
0
100
AcDbCircle
10
292.96345474235682
20
132.59395861437073
30
0
40
1.0999999999999988
210
1.5407439555097883e-33
220
1.540743955509789e-33
230
1
0
CIRCLE
5
105
100
AcDbEntity
8
0
100
AcDbCircle
10
238.96345474235687
20
48.393958614370767
30
0
40
1.0999999999999988
210
1.5407439555097883e-33
220
1.540743955509789e-33
230
1
0
CIRCLE
5
106
100
AcDbEntity
8
0
100
AcDbCircle
10
146.96345474235699
20
48.39395861437076
30
0
40
1.0999999999999988
210
1.5407439555097883e-33
220
1.540743955509789e-33
230
1
0
CIRCLE
5
107
100
AcDbEntity
8
0
100
AcDbCircle
10
92.963454742357044
20
132.59395861437068
30
0
40
1.0999999999999988
210
1.5407439555097883e-33
220
1.540743955509789e-33
230
1
0
CIRCLE
5
108
100
AcDbEntity
8
0
100
AcDbCircle
10
102.96345474235672
20
92.993911153293737
30
0
40
1.0999999999999988
210
1.5407439555097887e-33
220
1.5407439555097887e-33
230
1
0
CIRCLE
5
109
100
AcDbEntity
8
0
100
AcDbCircle
10
282.9634547423563
20
92.993911153293766
30
0
40
1.0999999999999988
210
1.5407439555097887e-33
220
1.5407439555097887e-33
230
1
0
LWPOLYLINE
5
110
100
AcDbEntity
8
0
100
AcDbPolyline
90
11
70
1
43
0.0
10
194.3352906798566
20
104.56575548937064
10
196.4934938048566
20
104.56575548937064
10
194.4329469298566
20
95.630208614370645
10
196.2493531798566
20
95.630208614370645
10
205.1751344298566
20
103.83333361437064
10
205.6829469298566
20
106.05013048937064
10
198.72982192985657
20
106.05013048937062
10
199.6868531798566
20
110.17122423937062
10
197.79232192985663
20
110.17122423937064
10
196.8352906798566
20
106.05013048937064
10
194.6770875548566
20
106.05013048937064
0
SPLINE
5
111
100
AcDbEntity
8
0
100
AcDbSpline
70
0
71
3
72
9
73
5
74
0
42
0.000000001
43
0.0000000001
44
0.0000000001
40
0
40
0
40
0
40
0
40
0.1279904752555206
40
0.23733849656897299
40
0.23733849656897299
40
0.23733849656897299
40
0.23733849656897299
10
212.4944703673566
20
78.960286739370659
30
0
10
212.05813361819622
20
78.979727212506106
30
0
10
211.24901475339976
20
79.015776556469731
30
0
10
210.58404319361856
20
79.472512743135326
30
0
10
210.2776734923566
20
79.682942989370659
30
0
0
SPLINE
5
112
100
AcDbEntity
8
0
100
AcDbSpline
70
0
71
3
72
9
73
5
74
0
42
0.000000001
43
0.0000000001
44
0.0000000001
40
0
40
0
40
0
40
0
40
0.10604812292643705
40
0.22734056639280067
40
0.22734056639280067
40
0.22734056639280067
40
0.22734056639280067
10
210.2776734923566
20
79.682942989370659
30
0
10
210.04439348977741
20
79.960918672355987
30
0
10
209.54429969791221
20
80.55682878815449
30
0
10
209.50034387992667
20
81.337008278363498
30
0
10
209.4768922423566
20
81.753255489370659
30
0
0
SPLINE
5
113
100
AcDbEntity
8
0
100
AcDbSpline
70
0
71
3
72
9
73
5
74
0
42
0.000000001
43
0.0000000001
44
0.0000000001
40
0
40
0
40
0
40
0
40
0.027614884125347107
40
0.06368991446526337
40
0.06368991446526337
40
0.06368991446526337
40
0.06368991446526337
10
209.4768922423566
20
81.753255489370659
30
0
10
209.47981761492224
20
81.845298705959735
30
0
10
209.48656458252282
20
82.057583666673565
30
0
10
209.5115616252391
20
82.268534846178994
30
0
10
209.5257203673566
20
82.388021114370659
30
0
0
SPLINE
5
114
100
AcDbEntity
8
0
100
AcDbSpline
70
0
71
3
72
9
73
5
74
0
42
0.000000001
43
0.0000000001
44
0.0000000001
40
0
40
0
40
0
40
0
40
0.037913396226180007
40
0.071334812161038597
40
0.071334812161038597
40
0.071334812161038597
40
0.071334812161038597
10
209.5257203673566
20
82.388021114370659
30
0
10
209.53945245157854
20
82.513776959728574
30
0
10
209.56528964228318
20
82.750389094216445
30
0
10
209.61814455703646
20
82.982431030692084
30
0
10
209.6429078673566
20
83.091146114370659
30
0
0
LINE
5
115
100
AcDbEntity
8
0
100
AcDbLine
10
209.6429078673566
20
83.091146114370659
30
0
11
211.2835328673566
21
90.171224239370659
31
0
0
LINE
5
116
100
AcDbEntity
8
0
100
AcDbLine
10
211.2835328673566
20
90.171224239370659
30
0
11
213.1194703673566
21
90.171224239370659
31
-3.8518598887744717e-33
0
LINE
5
117
100
AcDbEntity
8
0
100
AcDbLine
10
213.1194703673566
20
90.171224239370659
30
-3.8518598887744717e-33
11
211.6839234923566
21
83.960286739370659
31
-3.8518598887744717e-33
0
SPLINE
5
118
100
AcDbEntity
8
0
100
AcDbSpline
70
0
71
3
72
9
73
5
74
0
42
0.000000001
43
0.0000000001
44
0.0000000001
40
0
40
0
40
0
40
0
40
0.049415413457323247
40
0.091560619760135908
40
0.091560619760135908
40
0.091560619760135908
40
0.091560619760135908
10
211.6839234923566
20
83.960286739370659
30
0
10
211.64824502460505
20
83.799445044592488
30
0
10
211.58213725800223
20
83.501425373667786
30
0
10
211.5314660966088
20
83.200407351692732
30
0
10
211.5081422423566
20
83.061849239370659
30
0
0
SPLINE
5
119
100
AcDbEntity
8
0
100
AcDbSpline
70
0
71
3
72
9
73
5
74
0
42
0.000000001
43
0.0000000001
44
0.0000000001
40
0
40
0
40
0
40
0
40
0.039155467982295876
40
0.077523625569839716
40
0.077523625569839716
40
0.077523625569839716
40
0.077523625569839716
10
211.5081422423566
20
83.061849239370659
30
0
10
211.48820468488742
20
82.932705772026821
30
0
10
211.44873046022198
20
82.677015562636853
30
0
10
211.44274513649884
20
82.418372860435966
30
0
10
211.4397828673566
20
82.290364864370659
30
0
0
SPLINE
5
120
100
AcDbEntity
8
0
100
AcDbSpline
70
0
71
3
72
9
73
5
74
0
42
0.000000001
43
0.0000000001
44
0.0000000001
40
0
40
0
40
0
40
0
40
0.072506066430261223
40
0.13229610050826479
40
0.13229610050826479
40
0.13229610050826479
40
0.13229610050826479
10
211.4397828673566
20
82.290364864370659
30
0
10
211.44925408543003
20
82.042334541436773
30
0
10
211.46653547000744
20
81.58977317454044
30
0
10
211.7305982956465
20
81.224829244775634
30
0
10
211.8499391173566
20
81.059896114370659
30
0
0
SPLINE
5
121
100
AcDbEntity
8
0
100
AcDbSpline
70
0
71
3
72
9
73
5
74
0
42
0.000000001
43
0.0000000001
44
0.0000000001
40
0
40
0
40
0
40
0
40
0.064594460626023462
40
0.15432203603286879
40
0.15432203603286879
40
0.15432203603286879
40
0.15432203603286879
10
211.8499391173566
20
81.059896114370659
30
0
10
212.03251784943029
20
80.938217071948415
30
0
10
212.4687150309974
20
80.647514782817979
30
0
10
212.99754135952293
20
80.642746604697479
30
0
10
213.3050172423566
20
80.639974239370659
30
0
0
SPLINE
5
122
100
AcDbEntity
8
0
100
AcDbSpline
70
0
71
3
72
9
73
5
74
0
42
0.000000001
43
0.0000000001
44
0.0000000001
40
0
40
0
40
0
40
0
40
0.078795039300604386
40
0.17007229411638036
40
0.17007229411638036
40
0.17007229411638036
40
0.17007229411638036
10
213.3050172423566
20
80.639974239370659
30
0
10
213.56847588148639
20
80.661566650291761
30
0
10
214.13712862357903
20
80.708172006332575
30
0
10
214.66326599986942
20
80.930700279063373
30
0
10
214.9456422423566
20
81.050130489370659
30
0
0
SPLINE
5
123
100
AcDbEntity
8
0
100
AcDbSpline
70
0
71
3
72
9
73
5
74
0
42
0.000000001
43
0.0000000001
44
0.0000000001
40
0
40
0
40
0
40
0
40
0.098705302878853735
40
0.19953272084088738
40
0.19953272084088738
40
0.19953272084088738
40
0.19953272084088738
10
214.9456422423566
20
81.050130489370659
30
0
10
215.24171252821333
20
81.194343977366628
30
0
10
215.84021846430929
20
81.485871471863121
30
0
10
216.40070149146581
20
81.845145473092629
30
0
10
216.6839234923566
20
82.026692989370659
30
0
0
LINE
5
124
100
AcDbEntity
8
0
100
AcDbLine
10
216.6839234923566
20
82.026692989370645
30
0
11
218.5686891173566
21
90.171224239370659
31
0
0
LINE
5
125
100
AcDbEntity
8
0
100
AcDbLine
10
218.5686891173566
20
90.171224239370659
30
0
11
220.40462661735654
21
90.171224239370659
31
-3.8518598887744717e-33
0
LINE
5
126
100
AcDbEntity
8
0
100
AcDbLine
10
220.40462661735654
20
90.171224239370659
30
-3.8518598887744717e-33
11
216.89876724235654
21
74.975911739370673
31
1.5407439555097887e-32
0
LINE
5
127
100
AcDbEntity
8
0
100
AcDbLine
10
216.89876724235654
20
74.975911739370673
30
1.5407439555097887e-32
11
215.0628297423566
21
74.975911739370673
31
3.8518598887744717e-33
0
LINE
5
128
100
AcDbEntity
8
0
100
AcDbLine
10
215.0628297423566
20
74.975911739370673
30
3.8518598887744717e-33
11
216.3323609923566
21
80.473958614370673
31
3.8518598887744717e-33
0
SPLINE
5
129
100
AcDbEntity
8
0
100
AcDbSpline
70
0
71
3
72
9
73
5
74
0
42
0.000000001
43
0.0000000001
44
0.0000000001
40
0
40
0
40
0
40
0
40
0.12000722426285285
40
0.22558809502331933
40
0.22558809502331933
40
0.22558809502331933
40
0.22558809502331933
10
216.3323609923566
20
80.473958614370659
30
0
10
216.00080266594318
20
80.248916258042073
30
0
10
215.37754342714194
20
79.825884421620842
30
0
10
214.69750907691883
20
79.502339060649774
30
0
10
214.3792359923566
20
79.350911739370659
30
0
0
SPLINE
5
130
100
AcDbEntity
8
0
100
AcDbSpline
70
0
71
3
72
9
73
5
74
0
42
0.000000001
43
0.0000000001
44
0.0000000001
40
0
40
0
40
0
40
0
40
0.097522185809210113
40
0.19347939048685336
40
0.19347939048685336
40
0.19347939048685336
40
0.19347939048685336
10
214.3792359923566
20
79.350911739370659
30
0
10
214.07253623381166
20
79.236981594816029
30
0
10
213.464058461771
20
79.01094959252238
30
0
10
212.81591888072043
20
78.977083045887014
30
0
10
212.4944703673566
20
78.960286739370659
30
0
0
SPLINE
5
131
100
AcDbEntity
8
0
100
AcDbSpline
70
0
71
3
72
9
73
5
74
0
42
0.000000001
43
0.0000000001
44
0.0000000001
40
0
40
0
40
0
40
0
40
0.05857594537432035
40
0.10976228505974664
40
0.10976228505974664
40
0.10976228505974664
40
0.10976228505974664
10
188.2073609923566
20
90.122396114370659
30
0
10
188.3974129405363
20
90.167345084045735
30
0
10
188.75354097191433
20
90.251572518892715
30
0
10
189.11364806904331
20
90.31665503156583
30
0
10
189.2815797423566
20
90.347005489370659
30
0
0
SPLINE
5
132
100
AcDbEntity
8
0
100
AcDbSpline
70
0
71
3
72
9
73
5
74
0
42
0.000000001
43
0.0000000001
44
0.0000000001
40
0
40
0
40
0
40
0
40
0.053058897293773923
40
0.11754160830634883
40
0.11754160830634883
40
0.11754160830634883
40
0.11754160830634883
10
189.2815797423566
20
90.347005489370659
30
0
10
189.45713515599897
20
90.369735898932589
30
0
10
189.8460438352005
20
90.42009067510854
30
0
10
190.23827744001267
20
90.423345118669431
30
0
10
190.4534547423566
20
90.425130489370659
30
0
0
SPLINE
5
133
100
AcDbEntity
8
0
100
AcDbSpline
70
0
71
3
72
9
73
5
74
0
42
0.000000001
43
0.0000000001
44
0.0000000001
40
0
40
0
40
0
40
0
40
0.2038925049340162
40
0.37675251559664863
40
0.37675251559664863
40
0.37675251559664863
40
0.37675251559664863
10
190.4534547423566
20
90.425130489370659
30
0
10
191.146498038228
20
90.397358676015386
30
0
10
192.42710325332141
20
90.34604192679177
30
0
10
193.51088571444819
20
89.670586838097506
30
0
10
194.0081422423566
20
89.360677364370659
30
0
0
SPLINE
5
134
100
AcDbEntity
8
0
100
AcDbSpline
70
0
71
3
72
9
73
5
74
0
42
0.000000001
43
0.0000000001
44
0.0000000001
40
0
40
0
40
0
40
0
40
0.16289596000003276
40
0.34617143446387777
40
0.34617143446387777
40
0.34617143446387777
40
0.34617143446387777
10
194.0081422423566
20
89.360677364370659
30
0
10
194.38376720003788
20
88.94660912601239
30
0
10
195.18201063358254
20
88.066669586453642
30
0
10
195.2573286856925
20
86.875886123626685
30
0
10
195.2972047423566
20
86.245442989370659
30
0
0
SPLINE
5
135
100
AcDbEntity
8
0
100
AcDbSpline
70
0
71
3
72
9
73
5
74
0
42
0.000000001
43
0.0000000001
44
0.0000000001
40
0
40
0
40
0
40
0
40
0.28232158394438117
40
0.55723953837459073
40
0.55723953837459073
40
0.55723953837459073
40
0.55723953837459073
10
195.2972047423566
20
86.245442989370659
30
0
10
195.22254587982744
20
85.286777497153565
30
0
10
195.0751860162631
20
83.394586652673382
30
0
10
193.95521760306514
20
81.863899340487606
30
0
10
193.4026734923566
20
81.108724239370659
30
0
0
SPLINE
5
136
100
AcDbEntity
8
0
100
AcDbSpline
70
0
71
3
72
9
73
5
74
0
42
0.000000001
43
0.0000000001
44
0.0000000001
40
0
40
0
40
0
40
0
40
0.2662167409262875
40
0.52860874461281915
40
0.52860874461281915
40
0.52860874461281915
40
0.52860874461281915
10
193.4026734923566
20
81.108724239370659
30
0
10
192.73714140381009
20
80.48210607645953
30
0
10
191.41563892954053
20
79.237872376897556
30
0
10
189.61097610502463
20
79.052367880610902
30
0
10
188.7151734923566
20
78.960286739370673
30
0
0
SPLINE
5
137
100
AcDbEntity
8
0
100
AcDbSpline
70
0
71
3
72
9
73
5
74
0
42
0.000000001
43
0.0000000001
44
0.0000000001
40
0
40
0
40
0
40
0
40
0.165452067945416
40
0.30447809637137302
40
0.30447809637137302
40
0.30447809637137302
40
0.30447809637137302
10
188.7151734923566
20
78.960286739370673
30
0
10
188.15047493437299
20
78.98360932966456
30
0
10
187.11127159231964
20
79.026529421164867
30
0
10
186.26142176137009
20
79.61796777792631
30
0
10
185.8733766173566
20
79.888021114370673
30
0
0
SPLINE
5
138
100
AcDbEntity
8
0
100
AcDbSpline
70
0
71
3
72
9
73
5
74
0
42
0.000000001
43
0.0000000001
44
0.0000000001
40
0
40
0
40
0
40
0
40
0.13305507274018896
40
0.28328589096401968
40
0.28328589096401968
40
0.28328589096401968
40
0.28328589096401968
10
185.8733766173566
20
79.888021114370673
30
0
10
185.58598245789989
20
80.240504675662663
30
0
10
184.97409514805994
20
80.990973016736376
30
0
10
184.91721362793919
20
81.961321287409717
30
0
10
184.8870484923566
20
82.475911739370659
30
0
0
SPLINE
5
139
100
AcDbEntity
8
0
100
AcDbSpline
70
0
71
3
72
9
73
5
74
0
42
0.000000001
43
0.0000000001
44
0.0000000001
40
0
40
0
40
0
40
0
40
0.037905534779970676
40
0.093231269549564205
40
0.093231269549564205
40
0.093231269549564205
40
0.093231269549564205
10
184.8870484923566
20
82.475911739370659
30
0
10
184.89280129900422
20
82.602190835665525
30
0
10
184.90695072257358
20
82.912782957198175
30
0
10
184.94961881748645
20
83.220838410578068
30
0
10
184.9749391173566
20
83.403646114370659
30
0
0
SPLINE
5
140
100
AcDbEntity
8
0
100
AcDbSpline
70
0
71
3
72
9
73
5
74
0
42
0.000000001
43
0.0000000001
44
0.0000000001
40
0
40
0
40
0
40
0
40
0.069402098990587566
40
0.14984041454323793
40
0.14984041454323793
40
0.14984041454323793
40
0.14984041454323793
10
184.9749391173566
20
83.403646114370659
30
0
10
185.00746711010828
20
83.632760971373798
30
0
10
185.07769564770365
20
84.127424182583312
30
0
10
185.18240189625351
20
84.615983739144212
30
0
10
185.2386109923566
20
84.878255489370659
30
0
0
LINE
5
141
100
AcDbEntity
8
0
100
AcDbLine
10
185.2386109923566
20
84.878255489370659
30
0
11
193.2757203673566
21
84.878255489370659
31
0
0
SPLINE
5
142
100
AcDbEntity
8
0
100
AcDbSpline
70
0
71
3
72
9
73
5
74
0
42
0.000000001
43
0.0000000001
44
0.0000000001
40
0
40
0
40
0
40
0
40
0.028540446308712279
40
0.056370335891882131
40
0.056370335891882131
40
0.056370335891882131
40
0.056370335891882131
10
193.2757203673566
20
84.878255489370659
30
0
10
193.29396740129687
20
84.971660378407478
30
0
10
193.33000718221413
20
85.156144703284426
30
0
10
193.35250424863275
20
85.34276309515468
30
0
10
193.3636109923566
20
85.434896114370659
30
0
0
SPLINE
5
143
100
AcDbEntity
8
0
100
AcDbSpline
70
0
71
3
72
9
73
5
74
0
42
0.000000001
43
0.0000000001
44
0.0000000001
40
0
40
0
40
0
40
0
40
0.026407846255839765
40
0.050826791080156142
40
0.050826791080156142
40
0.050826791080156142
40
0.050826791080156142
10
193.3636109923566
20
85.434896114370659
30
0
10
193.36930501320415
20
85.522756103390662
30
0
10
193.38026421090703
20
85.691858924687082
30
0
10
193.38220825599407
20
85.861302210965192
30
0
10
193.3831422423566
20
85.942708614370659
30
0
0
SPLINE
5
144
100
AcDbEntity
8
0
100
AcDbSpline
70
0
71
3
72
9
73
5
74
0
42
0.000000001
43
0.0000000001
44
0.0000000001
40
0
40
0
40
0
40
0
40
0.12482535559742826
40
0.23777041336813862
40
0.23777041336813862
40
0.23777041336813862
40
0.23777041336813862
10
193.3831422423566
20
85.942708614370659
30
0
10
193.35569435458956
20
86.369870487975561
30
0
10
193.30341094158257
20
87.183538951213961
30
0
10
192.78808650872577
20
87.812099998235681
30
0
10
192.5432984923566
20
88.110677364370659
30
0
0
SPLINE
5
145
100
AcDbEntity
8
0
100
AcDbSpline
70
0
71
3
72
9
73
5
74
0
42
0.000000001
43
0.0000000001
44
0.0000000001
40
0
40
0
40
0
40
0
40
0.11725258609221589
40
0.25535937929271346
40
0.25535937929271346
40
0.25535937929271346
40
0.25535937929271346
10
192.5432984923566
20
88.110677364370659
30
0
10
192.21586226668251
20
88.338140527434618
30
0
10
191.50275295171775
20
88.833522796327884
30
0
10
190.63162226361902
20
88.87142733624998
30
0
10
190.1604859923566
20
88.891927364370659
30
0
0
SPLINE
5
146
100
AcDbEntity
8
0
100
AcDbSpline
70
0
71
3
72
9
73
5
74
0
42
0.000000001
43
0.0000000001
44
0.0000000001
40
0
40
0
40
0
40
0
40
0.10939161991821539
40
0.22555869615056409
40
0.22555869615056409
40
0.22555869615056409
40
0.22555869615056409
10
190.1604859923566
20
88.891927364370659
30
0
10
189.79462683267974
20
88.872420275129343
30
0
10
189.04024806862878
20
88.832197874014412
30
0
10
188.32290186453741
20
88.594450149934147
30
0
10
187.9534547423566
20
88.472005489370659
30
0
0
SPLINE
5
147
100
AcDbEntity
8
0
100
AcDbSpline
70
0
71
3
72
9
73
5
74
0
42
0.000000001
43
0.0000000001
44
0.0000000001
40
0
40
0
40
0
40
0
40
0.11409206268559081
40
0.21396348433041693
40
0.21396348433041693
40
0.21396348433041693
40
0.21396348433041693
10
187.9534547423566
20
88.472005489370659
30
0
10
187.59796662794372
20
88.334186493874128
30
0
10
186.93129908063645
20
88.075726511740058
30
0
10
186.32322301521776
20
87.700079887842875
30
0
10
186.0393922423566
20
87.524739864370659
30
0
0
LINE
5
148
100
AcDbEntity
8
0
100
AcDbLine
10
186.0393922423566
20
87.524739864370659
30
0
11
185.9319703673566
21
87.524739864370659
31
0
0
LINE
5
149
100
AcDbEntity
8
0
100
AcDbLine
10
185.9319703673566
20
87.524739864370659
30
0
11
186.3323609923566
21
89.507161739370659
31
0
0
SPLINE
5
150
100
AcDbEntity
8
0
100
AcDbSpline
70
0
71
3
72
9
73
5
74
0
42
0.000000001
43
0.0000000001
44
0.0000000001
40
0
40
0
40
0
40
0
40
0.049350839812177832
40
0.093613070541348209
40
0.093613070541348209
40
0.093613070541348209
40
0.093613070541348209
10
186.3323609923566
20
89.507161739370659
30
0
10
186.48708119244736
20
89.563047491057844
30
0
10
186.78056825488412
20
89.669056564760723
30
0
10
187.07299956291985
20
89.777943383779899
30
0
10
187.2112672423566
20
89.829427364370659
30
0
0
SPLINE
5
151
100
AcDbEntity
8
0
100
AcDbSpline
70
0
71
3
72
9
73
5
74
0
42
0.000000001
43
0.0000000001
44
0.0000000001
40
0
40
0
40
0
40
0
40
0.046785905727381671
40
0.10387306328264323
40
0.10387306328264323
40
0.10387306328264323
40
0.10387306328264323
10
187.2112672423566
20
89.829427364370659
30
0
10
187.35878929950707
20
89.88023977295137
30
0
10
187.68631460311587
20
89.993052391409648
30
0
10
188.0225634246014
20
90.076522261483149
30
0
10
188.2073609923566
20
90.122396114370659
30
0
0
SPLINE
5
152
100
AcDbEntity
8
0
100
AcDbSpline
70
0
71
3
72
9
73
5
74
0
42
0.000000001
43
0.0000000001
44
0.0000000001
40
0
40
0
40
0
40
0
40
0.1279904752555206
40
0.23733849656897299
40
0.23733849656897299
40
0.23733849656897299
40
0.23733849656897299
10
175.7854859923566
20
78.960286739370673
30
0
10
175.34914924319628
20
78.97972721250612
30
0
10
174.54003037839982
20
79.015776556469731
30
0
10
173.87505881861856
20
79.472512743135326
30
0
10
173.5686891173566
20
79.682942989370673
30
0
0
SPLINE
5
153
100
AcDbEntity
8
0
100
AcDbSpline
70
0
71
3
72
9
73
5
74
0
42
0.000000001
43
0.0000000001
44
0.0000000001
40
0
40
0
40
0
40
0
40
0.10604812292643705
40
0.22734056639280067
40
0.22734056639280067
40
0.22734056639280067
40
0.22734056639280067
10
173.5686891173566
20
79.682942989370673
30
0
10
173.33540911477741
20
79.960918672355987
30
0
10
172.83531532291227
20
80.55682878815449
30
0
10
172.79135950492673
20
81.337008278363498
30
0
10
172.7679078673566
20
81.753255489370659
30
0
0
SPLINE
5
154
100
AcDbEntity
8
0
100
AcDbSpline
70
0
71
3
72
9
73
5
74
0
42
0.000000001
43
0.0000000001
44
0.0000000001
40
0
40
0
40
0
40
0
40
0.027614884125347107
40
0.06368991446526337
40
0.06368991446526337
40
0.06368991446526337
40
0.06368991446526337
10
172.7679078673566
20
81.753255489370659
30
0
10
172.7708332399223
20
81.845298705959749
30
0
10
172.77758020752287
20
82.057583666673565
30
0
10
172.80257725023915
20
82.268534846179023
30
0
10
172.8167359923566
20
82.388021114370659
30
0
0
SPLINE
5
155
100
AcDbEntity
8
0
100
AcDbSpline
70
0
71
3
72
9
73
5
74
0
42
0.000000001
43
0.0000000001
44
0.0000000001
40
0
40
0
40
0
40
0
40
0.037913396226180007
40
0.071334812161038597
40
0.071334812161038597
40
0.071334812161038597
40
0.071334812161038597
10
172.8167359923566
20
82.388021114370659
30
0
10
172.8304680765786
20
82.513776959728602
30
0
10
172.85630526728326
20
82.750389094216445
30
0
10
172.90916018203654
20
82.982431030692098
30
0
10
172.9339234923566
20
83.091146114370659
30
0
0
LINE
5
156
100
AcDbEntity
8
0
100
AcDbLine
10
172.9339234923566
20
83.091146114370659
30
0
11
174.5745484923566
21
90.171224239370659
31
0
0
LINE
5
157
100
AcDbEntity
8
0
100
AcDbLine
10
174.5745484923566
20
90.171224239370659
30
0
11
176.4104859923566
21
90.171224239370659
31
-3.8518598887744717e-33
0
LINE
5
158
100
AcDbEntity
8
0
100
AcDbLine
10
176.4104859923566
20
90.171224239370659
30
-3.8518598887744717e-33
11
174.9749391173566
21
83.960286739370659
31
-3.8518598887744717e-33
0
SPLINE
5
159
100
AcDbEntity
8
0
100
AcDbSpline
70
0
71
3
72
9
73
5
74
0
42
0.000000001
43
0.0000000001
44
0.0000000001
40
0
40
0
40
0
40
0
40
0.049415413457323247
40
0.091560619760135908
40
0.091560619760135908
40
0.091560619760135908
40
0.091560619760135908
10
174.9749391173566
20
83.960286739370659
30
0
10
174.9392606496051
20
83.799445044592488
30
0
10
174.87315288300223
20
83.501425373667786
30
0
10
174.82248172160888
20
83.200407351692732
30
0
10
174.7991578673566
20
83.061849239370659
30
0
0
SPLINE
5
160
100
AcDbEntity
8
0
100
AcDbSpline
70
0
71
3
72
9
73
5
74
0
42
0.000000001
43
0.0000000001
44
0.0000000001
40
0
40
0
40
0
40
0
40
0.039155467982295876
40
0.077523625569839716
40
0.077523625569839716
40
0.077523625569839716
40
0.077523625569839716
10
174.7991578673566
20
83.061849239370659
30
0
10
174.77922030988751
20
82.932705772026821
30
0
10
174.73974608522198
20
82.677015562636853
30
0
10
174.7337607614989
20
82.418372860435966
30
0
10
174.7307984923566
20
82.290364864370659
30
0
0
SPLINE
5
161
100
AcDbEntity
8
0
100
AcDbSpline
70
0
71
3
72
9
73
5
74
0
42
0.000000001
43
0.0000000001
44
0.0000000001
40
0
40
0
40
0
40
0
40
0.072506066430261223
40
0.13229610050826479
40
0.13229610050826479
40
0.13229610050826479
40
0.13229610050826479
10
174.7307984923566
20
82.290364864370659
30
0
10
174.74026971043003
20
82.042334541436787
30
0
10
174.75755109500744
20
81.58977317454044
30
0
10
175.02161392064659
20
81.224829244775634
30
0
10
175.1409547423566
20
81.059896114370659
30
0
0
SPLINE
5
162
100
AcDbEntity
8
0
100
AcDbSpline
70
0
71
3
72
9
73
5
74
0
42
0.000000001
43
0.0000000001
44
0.0000000001
40
0
40
0
40
0
40
0
40
0.064594460626023462
40
0.15432203603286879
40
0.15432203603286879
40
0.15432203603286879
40
0.15432203603286879
10
175.1409547423566
20
81.059896114370659
30
0
10
175.32353347443035
20
80.938217071948415
30
0
10
175.7597306559974
20
80.647514782817993
30
0
10
176.28855698452293
20
80.642746604697479
30
0
10
176.5960328673566
20
80.639974239370659
30
0
0
SPLINE
5
163
100
AcDbEntity
8
0
100
AcDbSpline
70
0
71
3
72
9
73
5
74
0
42
0.000000001
43
0.0000000001
44
0.0000000001
40
0
40
0
40
0
40
0
40
0.078795039300604386
40
0.17007229411638036
40
0.17007229411638036
40
0.17007229411638036
40
0.17007229411638036
10
176.5960328673566
20
80.639974239370659
30
0
10
176.85949150648639
20
80.661566650291761
30
0
10
177.42814424857903
20
80.708172006332575
30
0
10
177.95428162486942
20
80.930700279063373
30
0
10
178.2366578673566
20
81.050130489370659
30
0
0
SPLINE
5
164
100
AcDbEntity
8
0
100
AcDbSpline
70
0
71
3
72
9
73
5
74
0
42
0.000000001
43
0.0000000001
44
0.0000000001
40
0
40
0
40
0
40
0
40
0.098705302878853735
40
0.19953272084088738
40
0.19953272084088738
40
0.19953272084088738
40
0.19953272084088738
10
178.2366578673566
20
81.050130489370659
30
0
10
178.53272815321338
20
81.194343977366628
30
0
10
179.13123408930929
20
81.485871471863121
30
0
10
179.69171711646581
20
81.845145473092643
30
0
10
179.9749391173566
20
82.026692989370659
30
0
0
LINE
5
165
100
AcDbEntity
8
0
100
AcDbLine
10
179.9749391173566
20
82.026692989370645
30
0
11
181.8597047423566
21
90.171224239370659
31
0
0
LINE
5
166
100
AcDbEntity
8
0
100
AcDbLine
10
181.8597047423566
20
90.171224239370659
30
0
11
183.6956422423566
21
90.171224239370659
31
-3.8518598887744717e-33
0
LINE
5
167
100
AcDbEntity
8
0
100
AcDbLine
10
183.6956422423566
20
90.171224239370659
30
-3.8518598887744717e-33
11
181.1761109923566
21
79.263021114370673
31
0
0
LINE
5
168
100
AcDbEntity
8
0
100
AcDbLine
10
181.1761109923566
20
79.263021114370673
30
0
11
179.3401734923566
21
79.263021114370673
31
3.8518598887744717e-33
0
LINE
5
169
100
AcDbEntity
8
0
100
AcDbLine
10
179.3401734923566
20
79.263021114370673
30
3.8518598887744717e-33
11
179.6233766173566
21
80.473958614370659
31
1.9259299443872359e-33
0
SPLINE
5
170
100
AcDbEntity
8
0
100
AcDbSpline
70
0
71
3
72
9
73
5
74
0
42
0.000000001
43
0.0000000001
44
0.0000000001
40
0
40
0
40
0
40
0
40
0.12000722426285285
40
0.22558809502331933
40
0.22558809502331933
40
0.22558809502331933
40
0.22558809502331933
10
179.6233766173566
20
80.473958614370659
30
0
10
179.29181829094324
20
80.248916258042073
30
0
10
178.66855905214194
20
79.825884421620856
30
0
10
177.98852470191883
20
79.502339060649774
30
0
10
177.6702516173566
20
79.350911739370673
30
0
0
SPLINE
5
171
100
AcDbEntity
8
0
100
AcDbSpline
70
0
71
3
72
9
73
5
74
0
42
0.000000001
43
0.0000000001
44
0.0000000001
40
0
40
0
40
0
40
0
40
0.097522185809210113
40
0.19347939048685336
40
0.19347939048685336
40
0.19347939048685336
40
0.19347939048685336
10
177.6702516173566
20
79.350911739370673
30
0
10
177.36355185881172
20
79.236981594816044
30
0
10
176.755074086771
20
79.01094959252238
30
0
10
176.10693450572052
20
78.977083045887028
30
0
10
175.7854859923566
20
78.960286739370673
30
0
0
LWPOLYLINE
5
172
100
AcDbEntity
8
0
100
AcDbPolyline
90
4
70
1
43
0.0
10
168.5003297423566
20
79.263021114370673
10
171.0198609923566
20
90.171224239370659
10
169.1839234923566
20
90.171224239370645
10
166.6643922423566
20
79.263021114370673
0
LWPOLYLINE
5
173
100
AcDbEntity
8
0
100
AcDbPolyline
90
4
70
1
43
0.0
10
167.7581422423566
20
75.532552364370673
10
168.1975953673566
20
77.436849239370673
10
166.1272828673566
20
77.436849239370687
10
165.6878297423566
20
75.532552364370687
0
LWPOLYLINE
5
174
100
AcDbEntity
8
0
100
AcDbPolyline
90
12
70
1
43
0.0
10
166.7718141173566
20
90.171224239370659
10
164.5159547423566
20
90.171224239370659
10
160.42415786735663
20
85.991536739370645
10
158.16829849235668
20
90.171224239370659
10
156.09798599235668
20
90.171224239370659
10
159.15462661735668
20
84.761067989370673
10
153.57845474235668
20
79.263021114370673
10
155.84407974235668
20
79.263021114370645
10
159.90657974235666
20
83.423177364370673
10
162.1526734923566
20
79.263021114370673
10
164.2132203673566
20
79.263021114370673
10
161.1663453673566
20
84.653646114370659
0
SPLINE
5
175
100
AcDbEntity
8
0
100
AcDbSpline
70
0
71
3
72
9
73
5
74
0
42
0.000000001
43
0.0000000001
44
0.0000000001
40
0
40
0
40
0
40
0
40
0.17130758083201922
40
0.32477186093288246
40
0.32477186093288246
40
0.32477186093288246
40
0.32477186093288246
10
201.1370484923566
20
78.960286739370659
30
0
10
200.55252321900724
20
78.994351643185908
30
0
10
199.44435649418432
20
79.058933269701441
30
0
10
198.55788536381601
20
79.721447826990072
30
0
10
198.1390016173566
20
80.034505489370659
30
0
0
SPLINE
5
176
100
AcDbEntity
8
0
100
AcDbSpline
70
0
71
3
72
9
73
5
74
0
42
0.000000001
43
0.0000000001
44
0.0000000001
40
0
40
0
40
0
40
0
40
0.15522813436004251
40
0.33512846793433471
40
0.33512846793433471
40
0.33512846793433471
40
0.33512846793433471
10
198.1390016173566
20
80.034505489370659
30
0
10
197.81476293132363
20
80.453333900401361
30
0
10
197.11475056215329
20
81.357559956423728
30
0
10
197.05681874805919
20
82.504665299364518
30
0
10
197.0257203673566
20
83.120442989370659
30
0
0
SPLINE
5
177
100
AcDbEntity
8
0
100
AcDbSpline
70
0
71
3
72
9
73
5
74
0
42
0.000000001
43
0.0000000001
44
0.0000000001
40
0
40
0
40
0
40
0
40
0.14399330446783762
40
0.28575052629295383
40
0.28575052629295383
40
0.28575052629295383
40
0.28575052629295383
10
197.0257203673566
20
83.120442989370659
30
0
10
197.04384500569489
20
83.602055464171826
30
0
10
197.07981282352634
20
84.557801418140301
30
0
10
197.34391925647685
20
85.476960028565941
30
0
10
197.4749391173566
20
85.932942989370659
30
0
0
SPLINE
5
178
100
AcDbEntity
8
0
100
AcDbSpline
70
0
71
3
72
9
73
5
74
0
42
0.000000001
43
0.0000000001
44
0.0000000001
40
0
40
0
40
0
40
0
40
0.13714098443728176
40
0.26769117450637048
40
0.26769117450637048
40
0.26769117450637048
40
0.26769117450637048
10
197.4749391173566
20
85.932942989370659
30
0
10
197.63662408391625
20
86.363201288073114
30
0
10
197.95222367492079
20
87.203040303327128
30
0
10
198.48475863100958
20
87.924731654614305
30
0
10
198.7444703673566
20
88.276692989370659
30
0
0
SPLINE
5
179
100
AcDbEntity
8
0
100
AcDbSpline
70
0
71
3
72
9
73
5
74
0
42
0.000000001
43
0.0000000001
44
0.0000000001
40
0
40
0
40
0
40
0
40
0.12999405077012649
40
0.25587145125629607
40
0.25587145125629607
40
0.25587145125629607
40
0.25587145125629607
10
198.7444703673566
20
88.276692989370659
30
0
10
199.03558275741631
20
88.601395227119582
30
0
10
199.60858859331395
20
89.240517035439098
30
0
10
200.3450531224413
20
89.681059429330091
30
0
10
200.7073609923566
20
89.897786739370659
30
0
0
SPLINE
5
180
100
AcDbEntity
8
0
100
AcDbSpline
70
0
71
3
72
9
73
5
74
0
42
0.000000001
43
0.0000000001
44
0.0000000001
40
0
40
0
40
0
40
0
40
0.12811335999252943
40
0.26801701561305835
40
0.26801701561305835
40
0.26801701561305835
40
0.26801701561305835
10
200.7073609923566
20
89.897786739370659
30
0
10
201.10394028642082
20
90.065747867782463
30
0
10
201.93359613851334
20
90.417127617549085
30
0
10
202.83466396204204
20
90.454467412358625
30
0
10
203.3050172423566
20
90.473958614370659
30
0
0
SPLINE
5
181
100
AcDbEntity
8
0
100
AcDbSpline
70
0
71
3
72
9
73
5
74
0
42
0.000000001
43
0.0000000001
44
0.0000000001
40
0
40
0
40
0
40
0
40
0.17528038723563769
40
0.32990950749786008
40
0.32990950749786008
40
0.32990950749786008
40
0.32990950749786008
10
203.3050172423566
20
90.473958614370659
30
0
10
203.90417253213917
20
90.440644724020046
30
0
10
205.03189155241486
20
90.377941934896029
30
0
10
205.92399587643868
20
89.691962609657452
30
0
10
206.3421266173566
20
89.370442989370659
30
0
0
SPLINE
5
182
100
AcDbEntity
8
0
100
AcDbSpline
70
0
71
3
72
9
73
5
74
0
42
0.000000001
43
0.0000000001
44
0.0000000001
40
0
40
0
40
0
40
0
40
0.15530356828578068
40
0.33171388067196922
40
0.33171388067196922
40
0.33171388067196922
40
0.33171388067196922
10
206.3421266173566
20
89.370442989370659
30
0
10
206.65794487861029
20
88.945854845173514
30
0
10
207.33250311435376
20
88.038974323666309
30
0
10
207.39361225439865
20
86.906371533496682
30
0
10
207.4261109923566
20
86.304036739370659
30
0
0
SPLINE
5
183
100
AcDbEntity
8
0
100
AcDbSpline
70
0
71
3
72
9
73
5
74
0
42
0.000000001
43
0.0000000001
44
0.0000000001
40
0
40
0
40
0
40
0
40
0.14348761620070286
40
0.28364836415417316
40
0.28364836415417316
40
0.28364836415417316
40
0.28364836415417316
10
207.4261109923566
20
86.304036739370659
30
0
10
207.40867478469079
20
85.824111543344813
30
0
10
207.37420664094151
20
84.87538857774274
30
0
10
207.11482671607243
20
83.9622715823363
30
0
10
206.9866578673566
20
83.511067989370659
30
0
0
SPLINE
5
184
100
AcDbEntity
8
0
100
AcDbSpline
70
0
71
3
72
9
73
5
74
0
42
0.000000001
43
0.0000000001
44
0.0000000001
40
0
40
0
40
0
40
0
40
0.13688692920556403
40
0.27028068398473992
40
0.27028068398473992
40
0.27028068398473992
40
0.27028068398473992
10
206.9866578673566
20
83.511067989370659
30
0
10
206.82249316555115
20
83.082858978795642
30
0
10
206.49835302925297
20
82.237368288498672
30
0
10
205.96220481727778
20
81.507837711191783
30
0
10
205.6975953673566
20
81.147786739370659
30
0
0
SPLINE
5
185
100
AcDbEntity
8
0
100
AcDbSpline
70
0
71
3
72
9
73
5
74
0
42
0.000000001
43
0.0000000001
44
0.0000000001
40
0
40
0
40
0
40
0
40
0.1270587188563404
40
0.25566174838677852
40
0.25566174838677852
40
0.25566174838677852
40
0.25566174838677852
10
205.6975953673566
20
81.147786739370659
30
0
10
205.41119103787372
20
80.831847125184254
30
0
10
204.83490133276561
20
80.196127869751891
30
0
10
204.08991611984035
20
79.770226743576217
30
0
10
203.7151734923566
20
79.555989864370659
30
0
0
SPLINE
5
186
100
AcDbEntity
8
0
100
AcDbSpline
70
0
71
3
72
9
73
5
74
0
42
0.000000001
43
0.0000000001
44
0.0000000001
40
0
40
0
40
0
40
0
40
0.1313660335802028
40
0.26646671428820257
40
0.26646671428820257
40
0.26646671428820257
40
0.26646671428820257
10
203.7151734923566
20
79.555989864370659
30
0
10
203.30916611111803
20
79.382252736084396
30
0
10
202.48560883450017
20
79.029839250934529
30
0
10
201.59074922222067
20
78.983686526739646
30
0
10
201.1370484923566
20
78.960286739370659
30
0
0
SPLINE
5
187
100
AcDbEntity
8
0
100
AcDbSpline
70
0
71
3
72
9
73
5
74
0
42
0.000000001
43
0.0000000001
44
0.0000000001
40
0
40
0
40
0
40
0
40
0.11692908723582417
40
0.23390913840164498
40
0.23390913840164498
40
0.23390913840164498
40
0.23390913840164498
10
220.33626724235654
20
79.126302364370659
30
0
10
220.35785178633944
20
79.518593959395105
30
0
10
220.40103028200031
20
80.303348131035136
30
0
10
220.70288508294618
20
81.029014917365345
30
0
10
220.85384536735654
20
81.391927364370659
30
0
0
SPLINE
5
188
100
AcDbEntity
8
0
100
AcDbSpline
70
0
71
3
72
9
73
5
74
0
42
0.000000001
43
0.0000000001
44
0.0000000001
40
0
40
0
40
0
40
0
40
0.11759369705851851
40
0.2377545440528312
40
0.2377545440528312
40
0.2377545440528312
40
0.2377545440528312
10
220.85384536735654
20
81.391927364370659
30
0
10
221.04594744588474
20
81.73674229927768
30
0
10
221.43434532123473
20
82.433899712320212
30
0
10
222.02179353187958
20
82.974285711347136
30
0
10
222.31868911735654
20
83.247396114370659
30
0
0
SPLINE
5
189
100
AcDbEntity
8
0
100
AcDbSpline
70
0
71
3
72
9
73
5
74
0
42
0.000000001
43
0.0000000001
44
0.0000000001
40
0
40
0
40
0
40
0
40
0.11525299439088102
40
0.23091897965753183
40
0.23091897965753183
40
0.23091897965753183
40
0.23091897965753183
10
222.31868911735654
20
83.247396114370659
30
0
10
222.62745082362173
20
83.479439829220894
30
0
10
223.24608063488944
20
83.944358750871061
30
0
10
223.96853476151597
20
84.221739131358135
30
0
10
224.33040786735654
20
84.360677364370659
30
0
0
SPLINE
5
190
100
AcDbEntity
8
0
100
AcDbSpline
70
0
71
3
72
9
73
5
74
0
42
0.000000001
43
0.0000000001
44
0.0000000001
40
0
40
0
40
0
40
0
40
0.12480386605387923
40
0.26986079449688344
40
0.26986079449688344
40
0.26986079449688344
40
0.26986079449688344
10
224.33040786735654
20
84.360677364370659
30
0
10
224.73438663332928
20
84.465906975340189
30
0
10
225.60790148661269
20
84.693442766647934
30
0
10
226.51099053518715
20
84.712019844995737
30
0
10
226.99642349235654
20
84.722005489370659
30
0
0
LINE
5
191
100
AcDbEntity
8
0
100
AcDbLine
10
226.99642349235654
20
84.722005489370659
30
0
11
229.11556411735654
21
84.722005489370659
31
-3.8518598887744717e-33
0
LINE
5
192
100
AcDbEntity
8
0
100
AcDbLine
10
229.11556411735654
20
84.722005489370659
30
-3.8518598887744717e-33
11
230.37532974235654
21
90.171224239370659
31
0
0
LINE
5
193
100
AcDbEntity
8
0
100
AcDbLine
10
230.37532974235654
20
90.171224239370659
30
0
11
232.32845474235654
21
90.171224239370659
31
-3.8518598887744717e-33
0
LINE
5
194
100
AcDbEntity
8
0
100
AcDbLine
10
232.32845474235654
20
90.171224239370659
30
-3.8518598887744717e-33
11
228.96907974235654
21
75.630208614370673
31
-7.7037197775489434e-33
0
LINE
5
195
100
AcDbEntity
8
0
100
AcDbLine
10
228.96907974235654
20
75.630208614370673
30
-7.7037197775489434e-33
11
225.14095474235654
21
75.630208614370673
31
7.7037197775489434e-33
0
SPLINE
5
196
100
AcDbEntity
8
0
100
AcDbSpline
70
0
71
3
72
9
73
5
74
0
42
0.000000001
43
0.0000000001
44
0.0000000001
40
0
40
0
40
0
40
0
40
0.12147928208840834
40
0.22142587398549127
40
0.22142587398549127
40
0.22142587398549127
40
0.22142587398549127
10
225.14095474235654
20
75.630208614370673
30
0
10
224.73489297301461
20
75.635561791009181
30
0
10
223.99474551228806
20
75.645319272247178
30
0
10
223.2705668549267
20
75.796392571122411
30
0
10
222.94368911735654
20
75.864583614370673
30
0
0
SPLINE
5
197
100
AcDbEntity
8
0
100
AcDbSpline
70
0
71
3
72
9
73
5
74
0
42
0.000000001
43
0.0000000001
44
0.0000000001
40
0
40
0
40
0
40
0
40
0.084101041445821159
40
0.15850627655319149
40
0.15850627655319149
40
0.15850627655319149
40
0.15850627655319149
10
222.94368911735654
20
75.864583614370673
30
0
10
222.67351464300071
20
75.946257614120228
30
0
10
222.16431345816807
20
76.100189615067549
30
0
10
221.72440672014466
20
76.398418572199333
30
0
10
221.51790786735654
20
76.538411739370659
30
0
0
SPLINE
5
198
100
AcDbEntity
8
0
100
AcDbSpline
70
0
71
3
72
9
73
5
74
0
42
0.000000001
43
0.0000000001
44
0.0000000001
40
0
40
0
40
0
40
0
40
0.070448003112779031
40
0.1398045691462349
40
0.1398045691462349
40
0.1398045691462349
40
0.1398045691462349
10
221.51790786735654
20
76.538411739370659
30
0
10
221.33764530490674
20
76.692196214903589
30
0
10
220.97991295249153
20
76.997382613286561
30
0
10
220.7520457519972
20
77.40861801875603
30
0
10
220.63900161735654
20
77.612630489370659
30
0
0
SPLINE
5
199
100
AcDbEntity
8
0
100
AcDbSpline
70
0
71
3
72
9
73
5
74
0
42
0.000000001
43
0.0000000001
44
0.0000000001
40
0
40
0
40
0
40
0
40
0.072726865518036823
40
0.15534962246868261
40
0.15534962246868261
40
0.15534962246868261
40
0.15534962246868261
10
220.63900161735654
20
77.612630489370659
30
0
10
220.55080033017157
20
77.840338789263541
30
0
10
220.36239627112352
20
78.326739490976337
30
0
10
220.34533910354668
20
78.848698345297464
30
0
10
220.33626724235654
20
79.126302364370659
30
0
0
SPLINE
5
200
100
AcDbEntity
8
0
100
AcDbSpline
70
0
71
3
72
9
73
5
74
0
42
0.000000001
43
0.0000000001
44
0.0000000001
40
0
40
0
40
0
40
0
40
0.11480841060492861
40
0.22832198735918274
40
0.22832198735918274
40
0.22832198735918274
40
0.22832198735918274
10
182.14779067985666
20
104.68294298937064
30
0
10
182.1660799022157
20
105.06767661907747
30
0
10
182.20245207716587
20
105.8328047701923
30
0
10
182.46598849160301
20
106.55196472252624
30
0
10
182.59700942985666
20
106.90950548937064
30
0
0
SPLINE
5
201
100
AcDbEntity
8
0
100
AcDbSpline
70
0
71
3
72
9
73
5
74
0
42
0.000000001
43
0.0000000001
44
0.0000000001
40
0
40
0
40
0
40
0
40
0.11287484768237274
40
0.22576236808329248
40
0.22576236808329248
40
0.22576236808329248
40
0.22576236808329248
10
182.59700942985666
20
106.90950548937064
30
0
10
182.76262591883886
20
107.25008906069206
30
0
10
183.09387749094697
20
107.93129444143516
30
0
10
183.61548694038603
20
108.48056027941276
30
0
10
183.87630630485666
20
108.75520861437064
30
0
0
SPLINE
5
202
100
AcDbEntity
8
0
100
AcDbSpline
70
0
71
3
72
9
73
5
74
0
42
0.000000001
43
0.0000000001
44
0.0000000001
40
0
40
0
40
0
40
0
40
0.11779045121265605
40
0.23811413716853114
40
0.23811413716853114
40
0.23811413716853114
40
0.23811413716853114
10
183.87630630485666
20
108.75520861437064
30
0
10
184.17655069067123
20
109.01153588945995
30
0
10
184.78349660294106
20
109.52970308648051
30
0
10
185.51075943380789
20
109.8585613922433
30
0
10
185.87825942985666
20
110.02473986437062
30
0
0
SPLINE
5
203
100
AcDbEntity
8
0
100
AcDbSpline
70
0
71
3
72
9
73
5
74
0
42
0.000000001
43
0.0000000001
44
0.0000000001
40
0
40
0
40
0
40
0
40
0.12875380315996696
40
0.27347730975146001
40
0.27347730975146001
40
0.27347730975146001
40
0.27347730975146001
10
185.87825942985666
20
110.02473986437062
30
0
10
186.28926912277208
20
110.15564139071978
30
0
10
187.16226721946242
20
110.4336805351158
30
0
10
188.07878656520856
20
110.46001989249174
30
0
10
188.56380630485666
20
110.47395861437062
30
0
0
SPLINE
5
204
100
AcDbEntity
8
0
100
AcDbSpline
70
0
71
3
72
9
73
5
74
0
42
0.000000001
43
0.0000000001
44
0.0000000001
40
0
40
0
40
0
40
0
40
0.11595420367478497
40
0.22703577344593229
40
0.22703577344593229
40
0.22703577344593229
40
0.22703577344593229
10
188.56380630485666
20
110.47395861437062
30
0
10
188.95130164586595
20
110.46283400710033
30
0
10
189.71000897742152
20
110.44105227141637
30
0
10
190.44855323278506
20
110.26642807389352
30
0
10
190.8099000548566
20
110.18098986437062
30
0
0
SPLINE
5
205
100
AcDbEntity
8
0
100
AcDbSpline
70
0
71
3
72
9
73
5
74
0
42
0.000000001
43
0.0000000001
44
0.0000000001
40
0
40
0
40
0
40
0
40
0.10122301142296856
40
0.18652736686513555
40
0.18652736686513555
40
0.18652736686513555
40
0.18652736686513555
10
190.8099000548566
20
110.18098986437062
30
0
10
191.13446493906366
20
110.08678699410135
30
0
10
191.73255259104087
20
109.91319589959184
30
0
10
192.29892737371117
20
109.65468370971287
30
0
10
192.5579469298566
20
109.53645861437062
30
0
0
LINE
5
206
100
AcDbEntity
8
0
100
AcDbLine
10
192.5579469298566
20
109.53645861437064
30
0
11
192.1673219298566
21
107.64192736437062
31
0
0
LINE
5
207
100
AcDbEntity
8
0
100
AcDbLine
10
192.1673219298566
20
107.64192736437062
30
0
11
192.0306031798566
21
107.64192736437064
31
2.4074124304840448e-34
0
SPLINE
5
208
100
AcDbEntity
8
0
100
AcDbSpline
70
0
71
3
72
9
73
5
74
0
42
0.000000001
43
0.0000000001
44
0.0000000001
40
0
40
0
40
0
40
0
40
0.08353784420816418
40
0.18391052516847528
40
0.18391052516847528
40
0.18391052516847528
40
0.18391052516847528
10
192.0306031798566
20
107.64192736437064
30
0
10
191.79799497413896
20
107.79645293871575
30
0
10
191.28590254851417
20
108.13664461829697
30
0
10
190.71262239543023
20
108.35991631980477
30
0
10
190.3997438048566
20
108.48177111437064
30
0
0
SPLINE
5
209
100
AcDbEntity
8
0
100
AcDbSpline
70
0
71
3
72
9
73
5
74
0
42
0.000000001
43
0.0000000001
44
0.0000000001
40
0
40
0
40
0
40
0
40
0.1081352819945282
40
0.21692999859187528
40
0.21692999859187528
40
0.21692999859187528
40
0.21692999859187528
10
190.3997438048566
20
108.48177111437064
30
0
10
190.05413596337399
20
108.59000650655661
30
0
10
189.36081268180197
20
108.80713733602704
30
0
10
188.63489815420445
20
108.83759149623231
30
0
10
188.27083755485666
20
108.85286486437064
30
0
0
SPLINE
5
210
100
AcDbEntity
8
0
100
AcDbSpline
70
0
71
3
72
9
73
5
74
0
42
0.000000001
43
0.0000000001
44
0.0000000001
40
0
40
0
40
0
40
0
40
0.16616778413070976
40
0.31740891107376024
40
0.31740891107376024
40
0.31740891107376024
40
0.31740891107376024
10
188.27083755485666
20
108.85286486437064
30
0
10
187.7043884619367
20
108.81779782893804
30
0
10
186.62237373385301
20
108.75081378874354
30
0
10
185.75462214993536
20
108.10560891179748
30
0
10
185.34115005485666
20
107.79817736437064
30
0
0
SPLINE
5
211
100
AcDbEntity
8
0
100
AcDbSpline
70
0
71
3
72
9
73
5
74
0
42
0.000000001
43
0.0000000001
44
0.0000000001
40
0
40
0
40
0
40
0
40
0.14769297148214544
40
0.30472019037717479
40
0.30472019037717479
40
0.30472019037717479
40
0.30472019037717479
10
185.34115005485666
20
107.79817736437064
30
0
10
185.016527488473
20
107.41109650724712
30
0
10
184.34676609606228
20
106.61247114755427
30
0
10
184.26830240685911
20
105.57112692750061
30
0
10
184.22786880485666
20
105.03450548937064
30
0
0
SPLINE
5
212
100
AcDbEntity
8
0
100
AcDbSpline
70
0
71
3
72
9
73
5
74
0
42
0.000000001
43
0.0000000001
44
0.0000000001
40
0
40
0
40
0
40
0
40
0.061121520928288084
40
0.1142146698776822
40
0.1142146698776822
40
0.1142146698776822
40
0.1142146698776822
10
184.22786880485666
20
105.03450548937064
30
0
10
184.23513628976437
20
104.82853635243863
30
0
10
184.24871666827875
20
104.44365232759114
30
0
10
184.40781674424551
20
104.09367720744491
30
0
10
184.48177505485666
20
103.93098986437064
30
0
0
SPLINE
5
213
100
AcDbEntity
8
0
100
AcDbSpline
70
0
71
3
72
9
73
5
74
0
42
0.000000001
43
0.0000000001
44
0.0000000001
40
0
40
0
40
0
40
0
40
0.049707055232373884
40
0.099505160074627938
40
0.099505160074627938
40
0.099505160074627938
40
0.099505160074627938
10
184.48177505485666
20
103.93098986437064
30
0
10
184.57380011177781
20
103.79138119458288
30
0
10
184.75801879013255
20
103.51190813044548
30
0
10
185.02950266186224
20
103.31609526088749
30
0
10
185.16536880485666
20
103.21809923937064
30
0
0
SPLINE
5
214
100
AcDbEntity
8
0
100
AcDbSpline
70
0
71
3
72
9
73
5
74
0
42
0.000000001
43
0.0000000001
44
0.0000000001
40
0
40
0
40
0
40
0
40
0.053502458498074036
40
0.11202342973796051
40
0.11202342973796051
40
0.11202342973796051
40
0.11202342973796051
10
185.16536880485666
20
103.21809923937064
30
0
10
185.32293010510307
20
103.13268889227898
30
0
10
185.65283190294679
20
102.95385673605828
30
0
10
186.01900308047539
20
102.87084140013039
30
0
10
186.21029067985666
20
102.82747423937064
30
0
0
SPLINE
5
215
100
AcDbEntity
8
0
100
AcDbSpline
70
0
71
3
72
9
73
5
74
0
42
0.000000001
43
0.0000000001
44
0.0000000001
40
0
40
0
40
0
40
0
40
0.061906379680314781
40
0.1266699438827231
40
0.1266699438827231
40
0.1266699438827231
40
0.1266699438827231
10
186.21029067985666
20
102.82747423937064
30
0
10
186.41409584107933
20
102.79329941081924
30
0
10
186.83111244693478
20
102.72337247215539
30
0
10
187.25389622933918
20
102.71471375271756
30
0
10
187.47005630485666
20
102.71028673937064
30
0
0
SPLINE
5
216
100
AcDbEntity
8
0
100
AcDbSpline
70
0
71
3
72
9
73
5
74
0
42
0.000000001
43
0.0000000001
44
0.0000000001
40
0
40
0
40
0
40
0
40
0.086240062417554469
40
0.17343142679799051
40
0.17343142679799051
40
0.17343142679799051
40
0.17343142679799051
10
187.47005630485666
20
102.71028673937064
30
0
10
187.75770745941244
20
102.71569156325361
30
0
10
188.33618280783179
20
102.72656083086937
30
0
10
188.91005961734479
20
102.80021218963947
30
0
10
189.1985719298566
20
102.83723986437064
30
0
0
SPLINE
5
217
100
AcDbEntity
8
0
100
AcDbSpline
70
0
71
3
72
9
73
5
74
0
42
0.000000001
43
0.0000000001
44
0.0000000001
40
0
40
0
40
0
40
0
40
0.080557897869856343
40
0.14851368543252785
40
0.14851368543252785
40
0.14851368543252785
40
0.14851368543252785
10
189.1985719298566
20
102.83723986437064
30
0
10
189.46413358919125
20
102.87717960364719
30
0
10
189.95371365247786
20
102.95081109145934
30
0
10
190.44062047673611
20
103.04039112424735
30
0
10
190.6634156798566
20
103.08138048937064
30
0
0
LINE
5
218
100
AcDbEntity
8
0
100
AcDbLine
10
190.6634156798566
20
103.08138048937064
30
0
11
188.9446656798566
21
95.630208614370645
31
0
0
LINE
5
219
100
AcDbEntity
8
0
100
AcDbLine
10
188.9446656798566
20
95.630208614370645
30
0
11
180.22396255485666
21
95.630208614370645
31
1.5407439555097887e-32
0
LINE
5
220
100
AcDbEntity
8
0
100
AcDbLine
10
180.22396255485666
20
95.630208614370645
30
1.5407439555097887e-32
11
180.60482192985666
21
97.270833614370645
31
-1.9259299443872359e-33
0
LINE
5
221
100
AcDbEntity
8
0
100
AcDbLine
10
180.60482192985666
20
97.270833614370645
30
-1.9259299443872359e-33
11
187.43099380485666
21
97.270833614370645
31
0
0
LINE
5
222
100
AcDbEntity
8
0
100
AcDbLine
10
187.43099380485666
20
97.270833614370645
30
0
11
188.34896255485666
21
101.27473986437064
31
0
0
SPLINE
5
223
100
AcDbEntity
8
0
100
AcDbSpline
70
0
71
3
72
9
73
5
74
0
42
0.000000001
43
0.0000000001
44
0.0000000001
40
0
40
0
40
0
40
0
40
0.039881699384947213
40
0.078629362504770511
40
0.078629362504770511
40
0.078629362504770511
40
0.078629362504770511
10
188.34896255485666
20
101.27473986437064
30
0
10
188.21725544693402
20
101.25650231646794
30
0
10
187.95758632317506
20
101.22054580540262
30
0
10
187.69641489122677
20
101.1979729084358
30
0
10
187.56771255485666
20
101.18684923937064
30
0
0
SPLINE
5
224
100
AcDbEntity
8
0
100
AcDbSpline
70
0
71
3
72
9
73
5
74
0
42
0.000000001
43
0.0000000001
44
0.0000000001
40
0
40
0
40
0
40
0
40
0.038393005421501064
40
0.077218273821985151
40
0.077218273821985151
40
0.077218273821985151
40
0.077218273821985151
10
187.56771255485666
20
101.18684923937064
30
0
10
187.43999211208637
20
101.17830439357583
30
0
10
187.18311323495172
20
101.16111849642851
30
0
10
186.92567024803657
20
101.15874550301193
30
0
10
186.79622817985666
20
101.15755236437064
30
0
0
SPLINE
5
225
100
AcDbEntity
8
0
100
AcDbSpline
70
0
71
3
72
9
73
5
74
0
42
0.000000001
43
0.0000000001
44
0.0000000001
40
0
40
0
40
0
40
0
40
0.19674296114204862
40
0.35954668666258294
40
0.35954668666258294
40
0.35954668666258294
40
0.35954668666258294
10
186.79622817985666
20
101.15755236437064
30
0
10
186.12850526079876
20
101.17978892976356
30
0
10
184.90824527405081
20
101.2204261315388
30
0
10
183.85511823884548
20
101.82917488482461
30
0
10
183.37825942985666
20
102.10481798937064
30
0
0
SPLINE
5
226
100
AcDbEntity
8
0
100
AcDbSpline
70
0
71
3
72
9
73
5
74
0
42
0.000000001
43
0.0000000001
44
0.0000000001
40
0
40
0
40
0
40
0
40
0.14498089105379355
40
0.29418257579868134
40
0.29418257579868134
40
0.29418257579868134
40
0.29418257579868134
10
183.37825942985666
20
102.10481798937064
30
0
10
183.01939352038039
20
102.45285731011373
30
0
10
182.2912141248151
20
103.15906833634777
30
0
10
182.19605360103813
20
104.17014926662482
30
0
10
182.14779067985666
20
104.68294298937064
30
0
0
ENDSEC
0
SECTION
2
OBJECTS
0
DICTIONARY
5
C
100
AcDbDictionary
3
ACAD_GROUP
350
D
3
ACAD_MLINESTYLE
350
17
0
DICTIONARY
5
D
100
AcDbDictionary
0
DICTIONARY
5
1A
330
C
100
AcDbDictionary
0
DICTIONARY
5
17
100
AcDbDictionary
0
ENDSEC
0
EOF
