0
SECTION
2
HEADER
9
$INSUNITS
70
4
9
$ACADVER
1
AC1014
9
$HANDSEED
5
FFFF
0
ENDSEC
0
SECTION
2
TABLES
0
TABLE
2
VPORT
5
8
100
AcDbSymbolTable
0
ENDTAB
0
TABLE
2
LTYPE
5
5
100
AcDbSymbolTable
0
LTYPE
5
14
100
AcDbSymbolTableRecord
100
AcDbLinetypeTableRecord
2
BYBLOCK
70
0
0
LTYPE
5
15
100
AcDbSymbolTableRecord
100
AcDbLinetypeTableRecord
2
BYLAYER
70
0
0
ENDTAB
0
TABLE
2
LAYER
5
2
100
AcDbSymbolTable
70
2
0
LAYER
5
50
100
AcDbSymbolTableRecord
100
AcDbLayerTableRecord
2
0
70
0
6
CONTINUOUS
0
ENDTAB
0
TABLE
2
STYLE
5
3
100
AcDbSymbolTable
70
1
0
STYLE
5
11
100
AcDbSymbolTableRecord
100
AcDbTextStyleTableRecord
2
STANDARD
70
0
0
ENDTAB
0
TABLE
2
VIEW
5
6
100
AcDbSymbolTable
70
0
0
ENDTAB
0
TABLE
2
UCS
5
7
100
AcDbSymbolTable
70
0
0
ENDTAB
0
TABLE
2
APPID
5
9
100
AcDbSymbolTable
70
2
0
APPID
5
12
100
AcDbSymbolTableRecord
100
AcDbRegAppTableRecord
2
ACAD
70
0
0
ENDTAB
0
TABLE
2
DIMSTYLE
5
A
100
AcDbSymbolTable
70
1
0
ENDTAB
0
TABLE
2
BLOCK_RECORD
5
1
100
AcDbSymbolTable
70
1
0
BLOCK_RECORD
5
1F
100
AcDbSymbolTableRecord
100
AcDbBlockTableRecord
2
*MODEL_SPACE
0
BLOCK_RECORD
5
1B
100
AcDbSymbolTableRecord
100
AcDbBlockTableRecord
2
*PAPER_SPACE
0
ENDTAB
0
ENDSEC
0
SECTION
2
BLOCKS
0
BLOCK
5
20
100
AcDbEntity
100
AcDbBlockBegin
2
*MODEL_SPACE
0
ENDBLK
5
21
100
AcDbEntity
100
AcDbBlockEnd
0
BLOCK
5
1C
100
AcDbEntity
100
AcDbBlockBegin
2
*PAPER_SPACE
0
ENDBLK
5
1D
100
AcDbEntity
100
AcDbBlockEnd
0
ENDSEC
0
SECTION
2
ENTITIES
0
LWPOLYLINE
5
100
100
AcDbEntity
8
0
100
AcDbPolyline
90
30
70
1
43
0.0
10
-137.02324999999996
20
109.06250000000013
10
-137.02324999999993
20
126.06250000000006
10
-137.02625
20
126.06250000000003
10
-137.02625
20
130.58750000000001
42
-0.99999999999999989
10
-128.73625000000001
20
130.58750000000003
10
-67.056250000000006
20
130.58750000000001
10
-67.056250000000006
20
94.987500000000011
42
-0.99999999999999989
10
-67.056250000000006
20
85.987500000000026
10
-67.056250000000006
20
50.387500000000003
10
-98.38124999999998
20
50.387500000000003
42
-0.99999999999999989
10
-107.38124999999997
20
50.387500000000003
10
-188.38124999999997
20
50.387500000000003
42
-0.99999999999999989
10
-197.38124999999997
20
50.387500000000003
10
-278.38124999999997
20
50.387500000000003
42
-0.99999999999999989
10
-287.38124999999997
20
50.387500000000003
10
-318.70624999999995
20
50.387500000000003
10
-318.70624999999995
20
85.987500000000026
42
-0.99999999999999989
10
-318.70624999999995
20
94.987500000000011
10
-318.70624999999995
20
130.58750000000001
10
-257.38125000000002
20
130.58750000000001
42
-0.99999999999999989
10
-248.38125000000002
20
130.58750000000003
10
-245.62499999999983
20
130.58750000000018
42
-0.41421356237313667
10
-245.12499999999966
20
130.08750000000003
10
-245.12499999999983
20
112.56250000000009
42
0.41421356237309509
10
-244.62499999999983
20
112.06250000000011
10
-244.49999999999986
20
112.06250000000011
42
-0.41421356237313667
10
-243.99999999999983
20
111.56250000000011
10
-243.99999999999989
20
109.06250000000013
42
0.41421356237309509
10
-243.49999999999989
20
108.56250000000014
10
-137.52324999999993
20
108.56250000000011
42
0.41421356237309509
0
LWPOLYLINE
5
101
100
AcDbEntity
8
0
100
AcDbPolyline
90
24
70
1
43
0.0
10
-313.09425000000005
20
69.412499999999994
42
-0.4142135623730222
10
-313.59424999999999
20
68.912500000000009
10
-313.68125000000003
20
68.912500000000009
42
0.41421356237307422
10
-314.18125000000003
20
68.412500000000009
10
-314.18125000000003
20
55.412500000000009
42
0.41421356237313145
10
-313.68125000000003
20
54.912500000000009
10
-281.63125000000002
20
54.912500000000009
42
0.4142135623730222
10
-281.13125000000002
20
55.412500000000009
10
-281.13125000000002
20
68.412500000000009
42
0.41421356237312629
10
-281.63125000000002
20
68.912500000000009
10
-281.71825000000007
20
68.912500000000009
42
-0.4142135623730222
10
-282.21825000000001
20
69.412499999999994
10
-282.21825000000001
20
70.412500000000009
42
0.41421356237313145
10
-282.71825000000001
20
70.912500000000009
10
-288.71825000000001
20
70.912500000000009
42
0.4142135623730222
10
-289.21825000000001
20
70.412500000000009
10
-289.21825000000007
20
69.412499999999994
42
-0.4142135623730222
10
-289.71825000000001
20
68.912500000000009
10
-305.59425000000005
20
68.912500000000009
42
-0.4142135623730222
10
-306.09424999999999
20
69.412499999999994
10
-306.09424999999999
20
70.412500000000009
42
0.41421356237312101
10
-306.59424999999999
20
70.912500000000009
10
-312.59424999999999
20
70.912500000000009
42
0.41421356237302742
10
-313.09424999999999
20
70.412499999999994
0
CIRCLE
5
102
100
AcDbEntity
8
0
100
AcDbCircle
10
-252.88125000000002
20
132.58749999999998
30
0
40
1
210
0
220
-0
230
1
0
CIRCLE
5
103
100
AcDbEntity
8
0
100
AcDbCircle
10
-132.88125000000002
20
132.58749999999998
30
0
40
1
210
0
220
-0
230
1
0
CIRCLE
5
104
100
AcDbEntity
8
0
100
AcDbCircle
10
-192.88124999999997
20
48.387500000000003
30
0
40
1
210
0
220
-0
230
1
0
CIRCLE
5
105
100
AcDbEntity
8
0
100
AcDbCircle
10
-282.88124999999997
20
48.387500000000003
30
0
40
1
210
0
220
-0
230
1
0
CIRCLE
5
106
100
AcDbEntity
8
0
100
AcDbCircle
10
-102.88124999999997
20
48.387500000000003
30
0
40
1
210
0
220
-0
230
1
0
CIRCLE
5
107
100
AcDbEntity
8
0
100
AcDbCircle
10
-320.70625000000001
20
90.487500000000011
30
0
40
1
210
0
220
-0
230
1
0
CIRCLE
5
108
100
AcDbEntity
8
0
100
AcDbCircle
10
-65.056250000000006
20
90.487500000000011
30
0
40
1
210
0
220
-0
230
1
0
LWPOLYLINE
5
109
100
AcDbEntity
8
0
100
AcDbPolyline
90
8
70
1
43
0.0
10
-219.21875
20
93.512500000000003
42
-0.4142135623730534
10
-219.71875
20
93.012499999999989
10
-232.71875
20
93.012499999999974
42
-0.41421356237310542
10
-233.21875000000003
20
93.512500000000003
10
-233.21875
20
106.51250000000002
42
-0.4142135623730222
10
-232.71875
20
107.01250000000002
10
-219.71875
20
107.01250000000002
42
-0.41421356237313667
10
-219.21875
20
106.51250000000002
0
LWPOLYLINE
5
110
100
AcDbEntity
8
0
100
AcDbPolyline
90
8
70
1
43
0.0
10
-104.91875
20
93.512500000000003
42
-0.41421356237309509
10
-105.41875000000002
20
93.012499999999989
10
-118.41875000000002
20
93.012499999999989
42
-0.41421356237309509
10
-118.91875000000002
20
93.512500000000003
10
-118.91875000000002
20
106.51250000000002
42
-0.41421356237309509
10
-118.41875000000002
20
107.01250000000002
10
-105.41875000000002
20
107.01250000000002
42
-0.41421356237309509
10
-104.91875
20
106.51250000000002
0
LWPOLYLINE
5
111
100
AcDbEntity
8
0
100
AcDbPolyline
90
8
70
1
43
0.0
10
-162.06875000000002
20
93.512500000000003
42
-0.4142135623730222
10
-162.56875000000002
20
93.012499999999989
10
-175.56875000000002
20
93.012499999999989
42
-0.41421356237313667
10
-176.06875000000002
20
93.512500000000003
10
-176.06875000000002
20
106.51250000000002
42
-0.4142135623730534
10
-175.56875000000002
20
107.01250000000002
10
-162.56875000000002
20
107.01250000000003
42
-0.41421356237310542
10
-162.06874999999999
20
106.51250000000002
0
LWPOLYLINE
5
112
100
AcDbEntity
8
0
100
AcDbPolyline
90
8
70
1
43
0.0
10
-238.26875000000001
20
93.512500000000003
42
-0.4142135623730534
10
-238.76875000000001
20
93.012499999999989
10
-251.76875000000001
20
93.012499999999974
42
-0.41421356237310542
10
-252.26875000000004
20
93.512500000000003
10
-252.26875000000001
20
106.51250000000002
42
-0.4142135623730222
10
-251.76875000000001
20
107.01250000000002
10
-238.76875000000001
20
107.01250000000002
42
-0.41421356237313667
10
-238.26875000000001
20
106.51250000000002
0
LWPOLYLINE
5
113
100
AcDbEntity
8
0
100
AcDbPolyline
90
8
70
1
43
0.0
10
-85.081249999999997
20
54.912500000000009
42
-0.41421356237308982
10
-85.581250000000011
20
55.412500000000009
10
-85.581250000000011
20
68.412500000000009
42
-0.41421356237310542
10
-85.081249999999997
20
68.912500000000009
10
-72.081250000000011
20
68.912500000000009
42
-0.41421356237310542
10
-71.581250000000011
20
68.412500000000009
10
-71.581250000000011
20
55.412500000000009
42
-0.41421356237309509
10
-72.081250000000011
20
54.912500000000009
0
LWPOLYLINE
5
114
100
AcDbEntity
8
0
100
AcDbPolyline
90
8
70
1
43
0.0
10
-311.30000000000001
20
93.012499999999974
42
-0.41421356237310542
10
-311.80000000000001
20
93.512500000000003
10
-311.80000000000001
20
106.51250000000002
42
-0.4142135623730222
10
-311.30000000000001
20
107.01250000000002
10
-298.30000000000001
20
107.01250000000002
42
-0.41421356237313667
10
-297.80000000000001
20
106.51250000000002
10
-297.80000000000001
20
93.512500000000003
42
-0.4142135623730534
10
-298.30000000000001
20
93.012499999999989
0
LWPOLYLINE
5
115
100
AcDbEntity
8
0
100
AcDbPolyline
90
8
70
1
43
0.0
10
-243.03125
20
55.412500000000009
10
-243.03125
20
68.412500000000009
42
0.41421356237313667
10
-243.53125000000003
20
68.912500000000009
10
-256.53125
20
68.912500000000009
42
0.41421356237307422
10
-257.03125
20
68.412500000000009
10
-257.03125
20
55.412500000000009
42
0.41421356237313145
10
-256.53125
20
54.912500000000009
10
-243.53125000000003
20
54.912500000000009
42
0.41421356237307422
0
LWPOLYLINE
5
116
100
AcDbEntity
8
0
100
AcDbPolyline
90
8
70
1
43
0.0
10
-293.03749999999997
20
74.462500000000006
42
-0.41421356237307422
10
-293.53750000000002
20
73.962500000000006
10
-306.53750000000002
20
73.96250000000002
42
-0.41421356237312629
10
-307.03750000000002
20
74.462500000000006
10
-307.03750000000002
20
87.46250000000002
42
-0.41421356237301177
10
-306.53750000000002
20
87.962500000000006
10
-293.53750000000002
20
87.962500000000006
42
-0.41421356237313667
10
-293.03750000000002
20
87.462500000000006
0
LWPOLYLINE
5
117
100
AcDbEntity
8
0
100
AcDbPolyline
90
8
70
1
43
0.0
10
-228.74374999999998
20
74.462500000000006
42
-0.41421356237307422
10
-229.24375000000001
20
73.962500000000006
10
-242.24375000000003
20
73.96250000000002
42
-0.41421356237312629
10
-242.74375000000003
20
74.462500000000006
10
-242.74374999999998
20
87.46250000000002
42
-0.41421356237301177
10
-242.24375000000003
20
87.962500000000006
10
-229.24375000000001
20
87.962500000000006
42
-0.41421356237313667
10
-228.74375000000001
20
87.462500000000006
0
LWPOLYLINE
5
118
100
AcDbEntity
8
0
100
AcDbPolyline
90
8
70
1
43
0.0
10
-223.98125000000007
20
55.412500000000009
42
-0.4142135623730222
10
-224.48125000000005
20
54.912500000000009
10
-237.48125000000002
20
54.912500000000023
42
-0.41421356237312101
10
-237.98125000000002
20
55.412500000000009
10
-237.98124999999999
20
68.412500000000009
42
-0.4142135623730222
10
-237.48125000000002
20
68.912500000000009
10
-224.48125000000005
20
68.912499999999994
42
-0.41421356237312629
10
-223.98125000000005
20
68.412500000000009
0
LWPOLYLINE
5
119
100
AcDbEntity
8
0
100
AcDbPolyline
90
8
70
1
43
0.0
10
-297.80000000000001
20
112.56250000000001
42
-0.4142135623730534
10
-298.30000000000001
20
112.0625
10
-311.30000000000001
20
112.06249999999999
42
-0.41421356237310542
10
-311.80000000000001
20
112.56250000000001
10
-311.80000000000001
20
125.56250000000003
42
-0.41421356237303264
10
-311.30000000000001
20
126.0625
10
-298.30000000000001
20
126.06250000000001
42
-0.41421356237309509
10
-297.80000000000001
20
125.5625
0
LWPOLYLINE
5
120
100
AcDbEntity
8
0
100
AcDbPolyline
90
8
70
1
43
0.0
10
-276.36875000000003
20
112.56250000000001
42
-0.4142135623730222
10
-276.86874999999998
20
112.0625
10
-289.86875000000003
20
112.0625
42
-0.41421356237313667
10
-290.36875000000003
20
112.56250000000001
10
-290.36875000000003
20
125.56250000000003
42
-0.41421356237306384
10
-289.86875000000003
20
126.0625
10
-276.86874999999998
20
126.0625
42
-0.41421356237308465
10
-276.36874999999998
20
125.5625
0
LWPOLYLINE
5
121
100
AcDbEntity
8
0
100
AcDbPolyline
90
8
70
1
43
0.0
10
-185.88125000000005
20
55.412500000000009
42
-0.4142135623730222
10
-186.38125000000002
20
54.912500000000009
10
-199.38124999999999
20
54.912500000000023
42
-0.41421356237312101
10
-199.88124999999999
20
55.412500000000009
10
-199.88124999999997
20
68.412500000000009
42
-0.4142135623730222
10
-199.38124999999999
20
68.912500000000009
10
-186.38125000000002
20
68.912499999999994
42
-0.41421356237312629
10
-185.88125000000002
20
68.412500000000009
0
LWPOLYLINE
5
122
100
AcDbEntity
8
0
100
AcDbPolyline
90
8
70
1
43
0.0
10
-262.08125000000001
20
55.412500000000009
42
-0.41421356237307422
10
-262.58125000000001
20
54.912500000000009
10
-275.58125000000007
20
54.912500000000023
42
-0.41421356237312101
10
-276.08125000000007
20
55.412500000000009
10
-276.08125000000001
20
68.412500000000009
42
-0.4142135623730222
10
-275.58125000000007
20
68.912500000000009
10
-262.58125000000001
20
68.912500000000009
42
-0.41421356237313667
10
-262.08125000000001
20
68.412500000000009
0
LWPOLYLINE
5
123
100
AcDbEntity
8
0
100
AcDbPolyline
90
8
70
1
43
0.0
10
-109.68125000000001
20
55.412500000000009
42
-0.41421356237308982
10
-110.18125000000001
20
54.912500000000009
10
-123.18125000000002
20
54.912500000000009
42
-0.41421356237308982
10
-123.68125000000003
20
55.412500000000009
10
-123.68125000000003
20
68.412500000000009
42
-0.41421356237310542
10
-123.18125000000002
20
68.912500000000009
10
-110.18125000000001
20
68.912499999999994
42
-0.41421356237310542
10
-109.68125000000001
20
68.412500000000009
0
LWPOLYLINE
5
124
100
AcDbEntity
8
0
100
AcDbPolyline
90
8
70
1
43
0.0
10
-147.78125
20
55.412500000000009
42
-0.41421356237308982
10
-148.28125
20
54.912500000000009
10
-161.28125
20
54.912500000000009
42
-0.41421356237313145
10
-161.78125
20
55.412500000000009
10
-161.78125000000006
20
68.412500000000009
42
-0.41421356237307422
10
-161.28125
20
68.912500000000009
10
-148.28125
20
68.912499999999994
42
-0.41421356237310542
10
-147.78125
20
68.412500000000009
0
LWPOLYLINE
5
125
100
AcDbEntity
8
0
100
AcDbPolyline
90
8
70
1
43
0.0
10
-108.89375000000001
20
73.962500000000006
42
-0.41421356237307944
10
-109.39375000000001
20
74.462500000000006
10
-109.39375000000001
20
87.46250000000002
42
-0.41421356237308465
10
-108.89375000000001
20
87.962500000000006
10
-95.893750000000011
20
87.962500000000006
42
-0.41421356237309509
10
-95.393749999999997
20
87.462500000000006
10
-95.393749999999997
20
74.462499999999991
42
-0.41421356237309509
10
-95.893750000000011
20
73.962500000000006
0
LWPOLYLINE
5
126
100
AcDbEntity
8
0
100
AcDbPolyline
90
8
70
1
43
0.0
10
-266.84375
20
74.462500000000006
42
-0.4142135623730222
10
-267.34375
20
73.962500000000006
10
-280.34375
20
73.962500000000006
42
-0.41421356237313667
10
-280.84375
20
74.462500000000006
10
-280.84375
20
87.46250000000002
42
-0.41421356237304296
10
-280.34375
20
87.962500000000006
10
-267.34375
20
87.96250000000002
42
-0.41421356237310542
10
-266.84375
20
87.462500000000006
0
LWPOLYLINE
5
127
100
AcDbEntity
8
0
100
AcDbPolyline
90
8
70
1
43
0.0
10
-190.64375000000007
20
74.462500000000006
42
-0.4142135623730222
10
-191.14375000000001
20
73.962500000000006
10
-204.14375000000001
20
73.96250000000002
42
-0.41421356237312629
10
-204.64375000000001
20
74.462500000000006
10
-204.64374999999995
20
87.46250000000002
42
-0.41421356237301177
10
-204.14375000000001
20
87.962500000000006
10
-191.14375000000001
20
87.96250000000002
42
-0.41421356237310542
10
-190.64375000000001
20
87.462500000000006
0
LWPOLYLINE
5
128
100
AcDbEntity
8
0
100
AcDbPolyline
90
8
70
1
43
0.0
10
-114.44375000000001
20
74.462499999999991
10
-114.44375000000001
20
87.462500000000006
42
0.41421356237309509
10
-114.94375000000002
20
87.962500000000006
10
-127.94375000000002
20
87.962500000000006
42
0.41421356237308465
10
-128.44375000000002
20
87.46250000000002
10
-128.44375000000002
20
74.462500000000006
42
0.41421356237310542
10
-127.94375000000002
20
73.962500000000006
10
-114.94375000000002
20
73.962500000000006
42
0.41421356237309509
0
LWPOLYLINE
5
129
100
AcDbEntity
8
0
100
AcDbPolyline
90
8
70
1
43
0.0
10
-209.69374999999997
20
74.462500000000006
42
-0.41421356237307422
10
-210.19374999999999
20
73.962500000000006
10
-223.19375000000002
20
73.96250000000002
42
-0.41421356237312629
10
-223.69375000000002
20
74.462500000000006
10
-223.69374999999997
20
87.46250000000002
42
-0.41421356237301177
10
-223.19375000000002
20
87.962500000000006
10
-210.19374999999999
20
87.962500000000006
42
-0.41421356237313667
10
-209.69374999999999
20
87.462500000000006
0
LWPOLYLINE
5
130
100
AcDbEntity
8
0
100
AcDbPolyline
90
8
70
1
43
0.0
10
-73.962500000000006
20
74.462500000000006
42
-0.41421356237310542
10
-74.462500000000006
20
73.962500000000006
10
-87.462500000000006
20
73.96250000000002
42
-0.41421356237310542
10
-87.962500000000006
20
74.462500000000006
10
-87.962500000000006
20
87.46250000000002
42
-0.41421356237308465
10
-87.462500000000006
20
87.962500000000006
10
-74.462500000000006
20
87.962500000000006
42
-0.41421356237310542
10
-73.962500000000006
20
87.462500000000006
0
LWPOLYLINE
5
131
100
AcDbEntity
8
0
100
AcDbPolyline
90
8
70
1
43
0.0
10
-171.59375000000006
20
74.462500000000006
42
-0.4142135623730222
10
-172.09375
20
73.962500000000006
10
-185.09375
20
73.96250000000002
42
-0.41421356237312629
10
-185.59375
20
74.462500000000006
10
-185.59374999999994
20
87.46250000000002
42
-0.41421356237301177
10
-185.09375
20
87.962500000000006
10
-172.09375
20
87.96250000000002
42
-0.41421356237310542
10
-171.59375
20
87.462500000000006
0
LWPOLYLINE
5
132
100
AcDbEntity
8
0
100
AcDbPolyline
90
8
70
1
43
0.0
10
-142.23124999999999
20
54.912500000000009
42
-0.41421356237308982
10
-142.73124999999999
20
55.412500000000009
10
-142.73124999999999
20
68.412500000000009
42
-0.41421356237310542
10
-142.23124999999999
20
68.912500000000009
10
-129.23124999999999
20
68.912500000000009
42
-0.41421356237309509
10
-128.73125000000002
20
68.412500000000009
10
-128.73124999999999
20
55.412500000000009
42
-0.414213562373069
10
-129.23125000000002
20
54.912500000000009
0
LWPOLYLINE
5
133
100
AcDbEntity
8
0
100
AcDbPolyline
90
8
70
1
43
0.0
10
-194.61874999999998
20
93.012499999999974
42
-0.41421356237310542
10
-195.11875000000001
20
93.512500000000003
10
-195.11874999999998
20
106.51250000000002
42
-0.4142135623730222
10
-194.61874999999998
20
107.01250000000002
10
-181.61875000000003
20
107.01250000000003
42
-0.41421356237310542
10
-181.11875000000001
20
106.51250000000002
10
-181.11875000000003
20
93.512500000000003
42
-0.4142135623730222
10
-181.61875000000003
20
93.012499999999989
0
LWPOLYLINE
5
134
100
AcDbEntity
8
0
100
AcDbPolyline
90
8
70
1
43
0.0
10
-123.96875000000001
20
93.512500000000003
10
-123.96875000000001
20
106.51250000000002
42
0.41421356237309509
10
-124.46875000000003
20
107.01250000000002
10
-137.46875
20
107.01250000000002
42
0.41421356237309509
10
-137.96875
20
106.51250000000002
10
-137.96875
20
93.512500000000003
42
0.41421356237309509
10
-137.46875
20
93.012499999999989
10
-124.46875000000003
20
93.012499999999989
42
0.41421356237309509
0
LWPOLYLINE
5
135
100
AcDbEntity
8
0
100
AcDbPolyline
90
8
70
1
43
0.0
10
-95.393749999999997
20
112.56250000000001
42
-0.41421356237309509
10
-95.893750000000011
20
112.0625
10
-108.89375000000001
20
112.0625
42
-0.41421356237309509
10
-109.39375000000001
20
112.56250000000001
10
-109.39375000000001
20
125.56250000000003
42
-0.41421356237309509
10
-108.89375000000001
20
126.0625
10
-95.893750000000011
20
126.0625
42
-0.41421356237310542
10
-95.393749999999997
20
125.5625
0
LWPOLYLINE
5
136
100
AcDbEntity
8
0
100
AcDbPolyline
90
8
70
1
43
0.0
10
-78.725000000000009
20
93.512500000000003
42
-0.41421356237308982
10
-79.225000000000009
20
93.012499999999989
10
-92.224999999999994
20
93.012499999999989
42
-0.41421356237309509
10
-92.725000000000009
20
93.512500000000003
10
-92.725000000000009
20
106.51250000000002
42
-0.41421356237309509
10
-92.224999999999994
20
107.01250000000002
10
-79.225000000000009
20
107.01250000000002
42
-0.41421356237309509
10
-78.725000000000009
20
106.51250000000002
0
LWPOLYLINE
5
137
100
AcDbEntity
8
0
100
AcDbPolyline
90
8
70
1
43
0.0
10
-133.49375000000003
20
74.462500000000006
42
-0.41421356237310542
10
-133.99375000000001
20
73.962500000000006
10
-146.99375000000001
20
73.96250000000002
42
-0.41421356237310542
10
-147.49375000000001
20
74.462500000000006
10
-147.49375000000001
20
87.46250000000002
42
-0.41421356237308465
10
-146.99375000000001
20
87.962500000000006
10
-133.99374999999998
20
87.962500000000006
42
-0.41421356237309509
10
-133.49375000000003
20
87.462500000000006
0
LWPOLYLINE
5
138
100
AcDbEntity
8
0
100
AcDbPolyline
90
8
70
1
43
0.0
10
-143.01875000000001
20
93.512500000000003
42
-0.41421356237310542
10
-143.51875000000001
20
93.012499999999989
10
-156.51875000000001
20
93.012499999999989
42
-0.41421356237307422
10
-157.01875000000004
20
93.512500000000003
10
-157.01875000000001
20
106.51250000000002
42
-0.41421356237310542
10
-156.51875000000001
20
107.01250000000002
10
-143.51875000000001
20
107.01250000000002
42
-0.41421356237310542
10
-143.01875000000001
20
106.51250000000002
0
LWPOLYLINE
5
139
100
AcDbEntity
8
0
100
AcDbPolyline
90
8
70
1
43
0.0
10
-152.54374999999999
20
74.462500000000006
42
-0.41421356237310542
10
-153.04374999999999
20
73.962500000000006
10
-166.04375000000002
20
73.962500000000006
42
-0.41421356237313667
10
-166.54375000000002
20
74.462500000000006
10
-166.54375000000002
20
87.46250000000002
42
-0.41421356237304296
10
-166.04375000000002
20
87.962500000000006
10
-153.04374999999999
20
87.962500000000006
42
-0.41421356237309509
10
-152.54374999999999
20
87.462500000000006
0
LWPOLYLINE
5
140
100
AcDbEntity
8
0
100
AcDbPolyline
90
8
70
1
43
0.0
10
-247.79374999999999
20
74.462500000000006
42
-0.41421356237307422
10
-248.29375000000002
20
73.962500000000006
10
-261.29375000000005
20
73.96250000000002
42
-0.41421356237312629
10
-261.79375000000005
20
74.462500000000006
10
-261.79374999999999
20
87.46250000000002
42
-0.41421356237301177
10
-261.29375000000005
20
87.962500000000006
10
-248.29375000000002
20
87.962500000000006
42
-0.41421356237313667
10
-247.79375000000002
20
87.462500000000006
0
LWPOLYLINE
5
141
100
AcDbEntity
8
0
100
AcDbPolyline
90
8
70
1
43
0.0
10
-166.83125000000004
20
55.412500000000009
42
-0.4142135623730222
10
-167.33125000000001
20
54.912500000000009
10
-180.33125000000001
20
54.912500000000009
42
-0.41421356237313145
10
-180.83125000000001
20
55.412500000000009
10
-180.83125000000007
20
68.412500000000009
42
-0.41421356237307422
10
-180.33125000000001
20
68.912500000000009
10
-167.33125000000001
20
68.912499999999994
42
-0.41421356237312629
10
-166.83125000000001
20
68.412500000000009
0
LWPOLYLINE
5
142
100
AcDbEntity
8
0
100
AcDbPolyline
90
8
70
1
43
0.0
10
-73.96250000000002
20
112.56250000000001
42
-0.41421356237310542
10
-74.462500000000006
20
112.0625
10
-87.462500000000006
20
112.0625
42
-0.41421356237309509
10
-87.962500000000006
20
112.56250000000001
10
-87.962500000000006
20
125.56250000000003
42
-0.41421356237309509
10
-87.462500000000006
20
126.0625
10
-74.462500000000006
20
126.0625
42
-0.41421356237307422
10
-73.962500000000006
20
125.5625
0
LWPOLYLINE
5
143
100
AcDbEntity
8
0
100
AcDbPolyline
90
8
70
1
43
0.0
10
-204.93125000000006
20
55.412500000000009
42
-0.4142135623730222
10
-205.43125000000003
20
54.912500000000009
10
-218.43125000000001
20
54.912500000000023
42
-0.41421356237312101
10
-218.93125000000001
20
55.412500000000009
10
-218.93124999999998
20
68.412500000000009
42
-0.4142135623730222
10
-218.43125000000001
20
68.912500000000009
10
-205.43125000000003
20
68.912499999999994
42
-0.41421356237312629
10
-204.93125000000003
20
68.412500000000009
0
LWPOLYLINE
5
144
100
AcDbEntity
8
0
100
AcDbPolyline
90
8
70
1
43
0.0
10
-276.36874999999998
20
93.512500000000003
10
-276.36874999999998
20
106.51250000000002
42
0.41421356237310542
10
-276.86874999999998
20
107.01250000000002
10
-289.86875000000003
20
107.01250000000002
42
0.4142135623730534
10
-290.36875000000003
20
106.51250000000002
10
-290.36875000000003
20
93.512500000000003
42
0.41421356237313667
10
-289.86875000000003
20
93.012499999999989
10
-276.86874999999998
20
93.012499999999989
42
0.4142135623730222
0
LWPOLYLINE
5
145
100
AcDbEntity
8
0
100
AcDbPolyline
90
8
70
1
43
0.0
10
-257.31875000000002
20
93.512500000000003
42
-0.4142135623730222
10
-257.81875000000002
20
93.012499999999989
10
-270.81875000000002
20
93.012499999999989
42
-0.41421356237313667
10
-271.31875000000002
20
93.512500000000003
10
-271.31875000000002
20
106.51250000000002
42
-0.4142135623730534
10
-270.81875000000002
20
107.01250000000002
10
-257.81875000000002
20
107.01250000000003
42
-0.41421356237310542
10
-257.31874999999997
20
106.51250000000002
0
LWPOLYLINE
5
146
100
AcDbEntity
8
0
100
AcDbPolyline
90
8
70
1
43
0.0
10
-90.631249999999994
20
55.412500000000009
42
-0.41421356237308982
10
-91.131249999999994
20
54.912500000000009
10
-104.13125000000001
20
54.912500000000009
42
-0.41421356237308982
10
-104.63125000000002
20
55.412500000000009
10
-104.63125000000002
20
68.412500000000009
42
-0.41421356237310542
10
-104.13125000000001
20
68.912500000000009
10
-91.131249999999994
20
68.912499999999994
42
-0.41421356237310542
10
-90.631249999999994
20
68.412500000000009
0
LWPOLYLINE
5
147
100
AcDbEntity
8
0
100
AcDbPolyline
90
8
70
1
43
0.0
10
-200.16875000000005
20
93.512500000000003
42
-0.4142135623730222
10
-200.66875000000005
20
93.012499999999989
10
-213.66874999999999
20
93.012499999999974
42
-0.41421356237310542
10
-214.16875000000002
20
93.512500000000003
10
-214.16874999999999
20
106.51250000000002
42
-0.4142135623730222
10
-213.66874999999999
20
107.01250000000002
10
-200.66875000000005
20
107.01250000000003
42
-0.41421356237310542
10
-200.16875000000002
20
106.51250000000002
0
LWPOLYLINE
5
148
100
AcDbEntity
8
0
100
AcDbPolyline
90
8
70
1
43
0.0
10
-114.44375000000001
20
112.56250000000001
42
-0.41421356237309509
10
-114.94375000000002
20
112.0625
10
-130.32500000000002
20
112.0625
42
-0.41421356237310542
10
-130.82499999999999
20
112.56250000000001
10
-130.82499999999999
20
125.56250000000003
42
-0.41421356237308465
10
-130.32500000000002
20
126.0625
10
-114.94375000000002
20
126.0625
42
-0.41421356237310542
10
-114.44375000000001
20
125.5625
0
LWPOLYLINE
5
149
100
AcDbEntity
8
0
100
AcDbPolyline
90
8
70
1
43
0.0
10
-268.43749999999977
20
112.06250000000014
10
-255.43749999999977
20
112.06250000000011
42
0.41421356237311585
10
-254.9374999999998
20
112.56250000000009
10
-254.93749999999977
20
125.56250000000013
42
0.41421356237308465
10
-255.43749999999974
20
126.0625000000001
10
-268.43749999999977
20
126.0625000000001
42
0.41421356237316787
10
-268.93749999999977
20
125.56250000000013
10
-268.93749999999977
20
112.56250000000011
42
0.41421356237309509
0
ENDSEC
0
SECTION
2
OBJECTS
0
DICTIONARY
5
C
100
AcDbDictionary
3
ACAD_GROUP
350
D
3
ACAD_MLINESTYLE
350
17
0
DICTIONARY
5
D
100
AcDbDictionary
0
DICTIONARY
5
1A
330
C
100
AcDbDictionary
0
DICTIONARY
5
17
100
AcDbDictionary
0
ENDSEC
0
EOF
