0
SECTION
2
HEADER
9
$INSUNITS
70
4
9
$ACADVER
1
AC1014
9
$HANDSEED
5
FFFF
0
ENDSEC
0
SECTION
2
TABLES
0
TABLE
2
VPORT
5
8
100
AcDbSymbolTable
0
ENDTAB
0
TABLE
2
LTYPE
5
5
100
AcDbSymbolTable
0
LTYPE
5
14
100
AcDbSymbolTableRecord
100
AcDbLinetypeTableRecord
2
BYBLOCK
70
0
0
LTYPE
5
15
100
AcDbSymbolTableRecord
100
AcDbLinetypeTableRecord
2
BYLAYER
70
0
0
ENDTAB
0
TABLE
2
LAYER
5
2
100
AcDbSymbolTable
70
2
0
LAYER
5
50
100
AcDbSymbolTableRecord
100
AcDbLayerTableRecord
2
0
70
0
6
CONTINUOUS
0
ENDTAB
0
TABLE
2
STYLE
5
3
100
AcDbSymbolTable
70
1
0
STYLE
5
11
100
AcDbSymbolTableRecord
100
AcDbTextStyleTableRecord
2
STANDARD
70
0
0
ENDTAB
0
TABLE
2
VIEW
5
6
100
AcDbSymbolTable
70
0
0
ENDTAB
0
TABLE
2
UCS
5
7
100
AcDbSymbolTable
70
0
0
ENDTAB
0
TABLE
2
APPID
5
9
100
AcDbSymbolTable
70
2
0
APPID
5
12
100
AcDbSymbolTableRecord
100
AcDbRegAppTableRecord
2
ACAD
70
0
0
ENDTAB
0
TABLE
2
DIMSTYLE
5
A
100
AcDbSymbolTable
70
1
0
ENDTAB
0
TABLE
2
BLOCK_RECORD
5
1
100
AcDbSymbolTable
70
1
0
BLOCK_RECORD
5
1F
100
AcDbSymbolTableRecord
100
AcDbBlockTableRecord
2
*MODEL_SPACE
0
BLOCK_RECORD
5
1B
100
AcDbSymbolTableRecord
100
AcDbBlockTableRecord
2
*PAPER_SPACE
0
ENDTAB
0
ENDSEC
0
SECTION
2
BLOCKS
0
BLOCK
5
20
100
AcDbEntity
100
AcDbBlockBegin
2
*MODEL_SPACE
0
ENDBLK
5
21
100
AcDbEntity
100
AcDbBlockEnd
0
BLOCK
5
1C
100
AcDbEntity
100
AcDbBlockBegin
2
*PAPER_SPACE
0
ENDBLK
5
1D
100
AcDbEntity
100
AcDbBlockEnd
0
ENDSEC
0
SECTION
2
ENTITIES
0
CIRCLE
5
100
100
AcDbEntity
8
0
100
AcDbCircle
10
-126.20624999999984
20
61.912499999999923
30
0
40
1.2499999999999984
210
-3.7982270983039203e-65
220
-1.5407439555097887e-33
230
1
0
CIRCLE
5
101
100
AcDbEntity
8
0
100
AcDbCircle
10
-102.96345474393982
20
77.993911153576889
30
0
40
0.99999999999999523
210
-0
220
0
230
1
0
CIRCLE
5
102
100
AcDbEntity
8
0
100
AcDbCircle
10
-282.96345474393917
20
77.993911153576903
30
0
40
0.99999999999997746
210
-0
220
0
230
1
0
CIRCLE
5
103
100
AcDbEntity
8
0
100
AcDbCircle
10
-282.96345474393951
20
92.993911153577002
30
0
40
0.99999999999999878
210
4.4804341258729724e-80
220
-1.5407439555097887e-33
230
1
0
CIRCLE
5
104
100
AcDbEntity
8
0
100
AcDbCircle
10
-102.96345474393995
20
92.993911153576988
30
0
40
0.99999999999999878
210
4.4804341258729724e-80
220
-1.5407439555097887e-33
230
1
0
LWPOLYLINE
5
105
100
AcDbEntity
8
0
100
AcDbPolyline
90
32
70
1
43
0.0
10
-83.413393428487481
20
49.882585638849044
42
-0.4142135623730977
10
-84.413393428487467
20
48.882585638849044
10
-91.799374910807984
20
48.882585638849044
42
-0.41421356237309509
10
-92.799374910807984
20
49.882585638849044
10
-92.799374910807984
20
50.143958614653997
10
-98.144017504398107
20
50.143958614654011
42
-0.9512850844534535
10
-107.61848249560146
20
50.143958614653997
10
-142.47040455503736
20
50.143958614654011
42
-0.94590530292691666
10
-151.45650493284305
20
50.143958614654011
10
-188.14401750439797
20
50.143958614654025
42
-0.95128508445344651
10
-197.6184824956012
20
50.143958614654011
10
-234.47040455503725
20
50.143958614654018
42
-0.94590530292691666
10
-243.45650493284296
20
50.143958614654018
10
-278.14401750439777
20
50.143958614654032
42
-0.95128508445345439
10
-287.61848249560109
20
50.143958614654025
10
-318.93845474394004
20
50.143958614654032
10
-318.93845474394004
20
85.75025553248156
42
-0.95367576806226728
10
-318.93845474393999
20
95.22474446751815
10
-318.93845474394004
20
130.84395861465396
10
-297.4565049328429
20
130.84395861465399
42
-0.94590530292691777
10
-288.47040455503713
20
130.84395861465393
10
-257.61846806260024
20
130.84395861465393
42
-0.94856122854490976
10
-248.14403193739864
20
130.84395861465393
10
-137.61846806260064
20
130.84395861465393
42
-0.94856122854490976
10
-128.14403193739884
20
130.84395861465393
10
-97.456504932843146
20
130.84395861465393
42
-0.94590530292691666
10
-88.470404555037391
20
130.84395861465393
10
-66.806454743940279
20
130.84395861465393
10
-66.806454743940293
20
95.224725613609635
42
-0.94996631171874168
10
-66.806454743940293
20
85.750274386390146
10
-66.806454743940321
20
50.143958614653997
10
-83.413393428487467
20
50.143958614653997
0
CIRCLE
5
106
100
AcDbEntity
8
0
100
AcDbCircle
10
-292.96345474394002
20
132.59395861465396
30
0
40
0.99999999999999878
210
0
220
-0
230
1
0
CIRCLE
5
107
100
AcDbEntity
8
0
100
AcDbCircle
10
-146.96345474394019
20
48.393958614654011
30
0
40
0.99999999999999878
210
0
220
-0
230
1
0
CIRCLE
5
108
100
AcDbEntity
8
0
100
AcDbCircle
10
-92.963454743940275
20
132.5939586146539
30
0
40
0.99999999999999878
210
0
220
-0
230
1
0
CIRCLE
5
109
100
AcDbEntity
8
0
100
AcDbCircle
10
-238.9634547439401
20
48.393958614654018
30
0
40
0.99999999999999878
210
0
220
-0
230
1
0
ENDSEC
0
SECTION
2
OBJECTS
0
DICTIONARY
5
C
100
AcDbDictionary
3
ACAD_GROUP
350
D
3
ACAD_MLINESTYLE
350
17
0
DICTIONARY
5
D
100
AcDbDictionary
0
DICTIONARY
5
1A
330
C
100
AcDbDictionary
0
DICTIONARY
5
17
100
AcDbDictionary
0
ENDSEC
0
EOF
