0
SECTION
2
HEADER
9
$INSUNITS
70
4
9
$ACADVER
1
AC1014
9
$HANDSEED
5
FFFF
0
ENDSEC
0
SECTION
2
TABLES
0
TABLE
2
VPORT
5
8
100
AcDbSymbolTable
0
ENDTAB
0
TABLE
2
LTYPE
5
5
100
AcDbSymbolTable
0
LTYPE
5
14
100
AcDbSymbolTableRecord
100
AcDbLinetypeTableRecord
2
BYBLOCK
70
0
0
LTYPE
5
15
100
AcDbSymbolTableRecord
100
AcDbLinetypeTableRecord
2
BYLAYER
70
0
0
ENDTAB
0
TABLE
2
LAYER
5
2
100
AcDbSymbolTable
70
2
0
LAYER
5
50
100
AcDbSymbolTableRecord
100
AcDbLayerTableRecord
2
0
70
0
6
CONTINUOUS
0
ENDTAB
0
TABLE
2
STYLE
5
3
100
AcDbSymbolTable
70
1
0
STYLE
5
11
100
AcDbSymbolTableRecord
100
AcDbTextStyleTableRecord
2
STANDARD
70
0
0
ENDTAB
0
TABLE
2
VIEW
5
6
100
AcDbSymbolTable
70
0
0
ENDTAB
0
TABLE
2
UCS
5
7
100
AcDbSymbolTable
70
0
0
ENDTAB
0
TABLE
2
APPID
5
9
100
AcDbSymbolTable
70
2
0
APPID
5
12
100
AcDbSymbolTableRecord
100
AcDbRegAppTableRecord
2
ACAD
70
0
0
ENDTAB
0
TABLE
2
DIMSTYLE
5
A
100
AcDbSymbolTable
70
1
0
ENDTAB
0
TABLE
2
BLOCK_RECORD
5
1
100
AcDbSymbolTable
70
1
0
BLOCK_RECORD
5
1F
100
AcDbSymbolTableRecord
100
AcDbBlockTableRecord
2
*MODEL_SPACE
0
BLOCK_RECORD
5
1B
100
AcDbSymbolTableRecord
100
AcDbBlockTableRecord
2
*PAPER_SPACE
0
ENDTAB
0
ENDSEC
0
SECTION
2
BLOCKS
0
BLOCK
5
20
100
AcDbEntity
100
AcDbBlockBegin
2
*MODEL_SPACE
0
ENDBLK
5
21
100
AcDbEntity
100
AcDbBlockEnd
0
BLOCK
5
1C
100
AcDbEntity
100
AcDbBlockBegin
2
*PAPER_SPACE
0
ENDBLK
5
1D
100
AcDbEntity
100
AcDbBlockEnd
0
ENDSEC
0
SECTION
2
ENTITIES
0
CIRCLE
5
100
100
AcDbEntity
8
0
100
AcDbCircle
10
292.96345474394002
20
132.59395861465396
30
0
40
0.99999999999999878
210
0
220
-0
230
1
0
CIRCLE
5
101
100
AcDbEntity
8
0
100
AcDbCircle
10
238.9634547439401
20
48.393958614654018
30
0
40
0.99999999999999878
210
0
220
-0
230
1
0
CIRCLE
5
102
100
AcDbEntity
8
0
100
AcDbCircle
10
146.96345474394019
20
48.393958614654011
30
0
40
0.99999999999999878
210
0
220
-0
230
1
0
CIRCLE
5
103
100
AcDbEntity
8
0
100
AcDbCircle
10
92.963454743940275
20
132.5939586146539
30
0
40
0.99999999999999878
210
0
220
-0
230
1
0
CIRCLE
5
104
100
AcDbEntity
8
0
100
AcDbCircle
10
102.96345474393995
20
92.993911153576988
30
0
40
0.99999999999999878
210
4.4804341258729724e-80
220
1.5407439555097887e-33
230
1
0
CIRCLE
5
105
100
AcDbEntity
8
0
100
AcDbCircle
10
282.96345474393951
20
92.993911153577002
30
0
40
0.99999999999999878
210
4.4804341258729724e-80
220
1.5407439555097887e-33
230
1
0
LWPOLYLINE
5
106
100
AcDbEntity
8
0
100
AcDbPolyline
90
32
70
1
43
0.0
10
84.413393428487467
20
48.882585638849037
42
-0.4142135623730977
10
83.413393428487467
20
49.882585638849044
10
83.413393428487467
20
50.14395861465399
10
66.806454743940293
20
50.143958614653997
10
66.806454743940293
20
85.750274386390188
42
-0.9499663117187428
10
66.806454743940293
20
95.224725613609593
10
66.806454743940293
20
130.84395861465393
10
88.470404555037433
20
130.84395861465393
42
-0.94590530292691666
10
97.456504932843103
20
130.84395861465393
10
128.14403193739889
20
130.84395861465393
42
-0.94856122854490921
10
137.61846806260058
20
130.84395861465393
10
248.14403193739852
20
130.84395861465393
42
-0.94856122854490821
10
257.61846806260036
20
130.84395861465396
10
288.47040455503719
20
130.84395861465396
42
-0.94590530292691577
10
297.45650493284285
20
130.84395861465396
10
318.93845474394004
20
130.84395861465396
10
318.9384547439401
20
95.224744467518164
42
-0.95367576806226007
10
318.93845474394004
20
85.750255532481546
10
318.93845474394004
20
50.143958614654032
10
287.61848249560109
20
50.143958614654053
42
-0.95128508445345705
10
278.14401750439777
20
50.143958614654032
10
243.45650493284293
20
50.143958614654011
42
-0.94590530292691666
10
234.47040455503728
20
50.143958614654025
10
197.61848249560126
20
50.143958614654018
42
-0.95128508445344651
10
188.14401750439794
20
50.143958614654018
10
151.45650493284305
20
50.143958614654011
42
-0.94590530292691666
10
142.47040455503736
20
50.143958614654011
10
107.61848249560144
20
50.143958614654011
42
-0.95128508445345272
10
98.144017504398121
20
50.143958614653997
10
92.799374910807956
20
50.143958614653997
10
92.799374910807984
20
49.882585638849044
42
-0.4142135623731002
10
91.799374910807956
20
48.882585638849044
0
LWPOLYLINE
5
107
100
AcDbEntity
8
0
100
AcDbPolyline
90
11
70
1
43
0.0
10
194.33529068143983
20
104.56575548965388
10
196.49349380643983
20
104.56575548965388
10
194.43294693143983
20
95.630208614653881
10
196.24935318143983
20
95.630208614653895
10
205.17513443143983
20
103.83333361465388
10
205.68294693143983
20
106.05013048965388
10
198.7298219314398
20
106.05013048965387
10
199.68685318143983
20
110.17122423965387
10
197.79232193143986
20
110.17122423965388
10
196.83529068143983
20
106.05013048965388
10
194.67708755643983
20
106.05013048965388
0
SPLINE
5
108
100
AcDbEntity
8
0
100
AcDbSpline
70
0
71
3
72
9
73
5
74
0
42
0.000000001
43
0.0000000001
44
0.0000000001
40
0
40
0
40
0
40
0
40
0.1279904752555206
40
0.23733849656897299
40
0.23733849656897299
40
0.23733849656897299
40
0.23733849656897299
10
212.49447036893983
20
78.96028673965391
30
0
10
212.05813361977945
20
78.979727212789342
30
0
10
211.24901475498297
20
79.015776556752982
30
0
10
210.58404319520179
20
79.472512743418562
30
0
10
210.27767349393983
20
79.68294298965391
30
0
0
SPLINE
5
109
100
AcDbEntity
8
0
100
AcDbSpline
70
0
71
3
72
9
73
5
74
0
42
0.000000001
43
0.0000000001
44
0.0000000001
40
0
40
0
40
0
40
0
40
0.10604812292643705
40
0.22734056639280067
40
0.22734056639280067
40
0.22734056639280067
40
0.22734056639280067
10
210.27767349393983
20
79.68294298965391
30
0
10
210.04439349136064
20
79.960918672639224
30
0
10
209.54429969949544
20
80.556828788437741
30
0
10
209.50034388150988
20
81.337008278646735
30
0
10
209.47689224393983
20
81.753255489653895
30
0
0
SPLINE
5
110
100
AcDbEntity
8
0
100
AcDbSpline
70
0
71
3
72
9
73
5
74
0
42
0.000000001
43
0.0000000001
44
0.0000000001
40
0
40
0
40
0
40
0
40
0.027614884125347107
40
0.06368991446526337
40
0.06368991446526337
40
0.06368991446526337
40
0.06368991446526337
10
209.47689224393983
20
81.753255489653895
30
0
10
209.47981761650544
20
81.845298706242971
30
0
10
209.48656458410602
20
82.057583666956816
30
0
10
209.5115616268223
20
82.268534846462245
30
0
10
209.52572036893983
20
82.388021114653895
30
0
0
SPLINE
5
111
100
AcDbEntity
8
0
100
AcDbSpline
70
0
71
3
72
9
73
5
74
0
42
0.000000001
43
0.0000000001
44
0.0000000001
40
0
40
0
40
0
40
0
40
0.037913396226180007
40
0.071334812161038597
40
0.071334812161038597
40
0.071334812161038597
40
0.071334812161038597
10
209.52572036893983
20
82.388021114653895
30
0
10
209.53945245316177
20
82.513776960011825
30
0
10
209.56528964386644
20
82.750389094499681
30
0
10
209.61814455861969
20
82.98243103097532
30
0
10
209.64290786893983
20
83.091146114653895
30
0
0
LINE
5
112
100
AcDbEntity
8
0
100
AcDbLine
10
209.64290786893983
20
83.091146114653895
30
0
11
211.28353286893983
21
90.171224239653895
31
0
0
LINE
5
113
100
AcDbEntity
8
0
100
AcDbLine
10
211.28353286893983
20
90.171224239653895
30
0
11
213.11947036893983
21
90.171224239653895
31
0
0
LINE
5
114
100
AcDbEntity
8
0
100
AcDbLine
10
213.11947036893983
20
90.171224239653895
30
0
11
211.68392349393983
21
83.960286739653895
31
0
0
SPLINE
5
115
100
AcDbEntity
8
0
100
AcDbSpline
70
0
71
3
72
9
73
5
74
0
42
0.000000001
43
0.0000000001
44
0.0000000001
40
0
40
0
40
0
40
0
40
0.049415413457323247
40
0.091560619760135908
40
0.091560619760135908
40
0.091560619760135908
40
0.091560619760135908
10
211.68392349393983
20
83.960286739653895
30
0
10
211.64824502618828
20
83.799445044875739
30
0
10
211.58213725958547
20
83.501425373951022
30
0
10
211.53146609819203
20
83.200407351975969
30
0
10
211.50814224393983
20
83.061849239653895
30
0
0
SPLINE
5
116
100
AcDbEntity
8
0
100
AcDbSpline
70
0
71
3
72
9
73
5
74
0
42
0.000000001
43
0.0000000001
44
0.0000000001
40
0
40
0
40
0
40
0
40
0.039155467982295876
40
0.077523625569839716
40
0.077523625569839716
40
0.077523625569839716
40
0.077523625569839716
10
211.50814224393983
20
83.061849239653895
30
0
10
211.48820468647068
20
82.932705772310058
30
0
10
211.44873046180521
20
82.67701556292009
30
0
10
211.44274513808205
20
82.418372860719202
30
0
10
211.43978286893983
20
82.290364864653895
30
0
0
SPLINE
5
117
100
AcDbEntity
8
0
100
AcDbSpline
70
0
71
3
72
9
73
5
74
0
42
0.000000001
43
0.0000000001
44
0.0000000001
40
0
40
0
40
0
40
0
40
0.072506066430261223
40
0.13229610050826479
40
0.13229610050826479
40
0.13229610050826479
40
0.13229610050826479
10
211.43978286893983
20
82.290364864653895
30
0
10
211.44925408701326
20
82.04233454172001
30
0
10
211.4665354715907
20
81.589773174823677
30
0
10
211.73059829722973
20
81.224829245058871
30
0
10
211.84993911893983
20
81.059896114653895
30
0
0
SPLINE
5
118
100
AcDbEntity
8
0
100
AcDbSpline
70
0
71
3
72
9
73
5
74
0
42
0.000000001
43
0.0000000001
44
0.0000000001
40
0
40
0
40
0
40
0
40
0.064594460626023462
40
0.15432203603286879
40
0.15432203603286879
40
0.15432203603286879
40
0.15432203603286879
10
211.84993911893983
20
81.059896114653895
30
0
10
212.03251785101349
20
80.938217072231652
30
0
10
212.46871503258063
20
80.647514783101215
30
0
10
212.99754136110613
20
80.642746604980715
30
0
10
213.30501724393983
20
80.639974239653895
30
0
0
SPLINE
5
119
100
AcDbEntity
8
0
100
AcDbSpline
70
0
71
3
72
9
73
5
74
0
42
0.000000001
43
0.0000000001
44
0.0000000001
40
0
40
0
40
0
40
0
40
0.078795039300604386
40
0.17007229411638036
40
0.17007229411638036
40
0.17007229411638036
40
0.17007229411638036
10
213.30501724393983
20
80.639974239653895
30
0
10
213.56847588306962
20
80.661566650574997
30
0
10
214.13712862516229
20
80.708172006615811
30
0
10
214.66326600145266
20
80.93070027934661
30
0
10
214.94564224393983
20
81.050130489653895
30
0
0
SPLINE
5
120
100
AcDbEntity
8
0
100
AcDbSpline
70
0
71
3
72
9
73
5
74
0
42
0.000000001
43
0.0000000001
44
0.0000000001
40
0
40
0
40
0
40
0
40
0.098705302878853735
40
0.19953272084088738
40
0.19953272084088738
40
0.19953272084088738
40
0.19953272084088738
10
214.94564224393983
20
81.050130489653895
30
0
10
215.24171252979656
20
81.194343977649879
30
0
10
215.84021846589252
20
81.485871472146357
30
0
10
216.40070149304904
20
81.845145473375865
30
0
10
216.68392349393983
20
82.026692989653895
30
0
0
LINE
5
121
100
AcDbEntity
8
0
100
AcDbLine
10
216.68392349393983
20
82.026692989653881
30
0
11
218.56868911893983
21
90.171224239653881
31
0
0
LINE
5
122
100
AcDbEntity
8
0
100
AcDbLine
10
218.56868911893983
20
90.171224239653881
30
0
11
220.40462661893974
21
90.171224239653895
31
0
0
LINE
5
123
100
AcDbEntity
8
0
100
AcDbLine
10
220.40462661893974
20
90.171224239653895
30
0
11
216.89876724393974
21
74.97591173965391
31
0
0
LINE
5
124
100
AcDbEntity
8
0
100
AcDbLine
10
216.89876724393974
20
74.97591173965391
30
0
11
215.06282974393983
21
74.97591173965391
31
0
0
LINE
5
125
100
AcDbEntity
8
0
100
AcDbLine
10
215.06282974393983
20
74.97591173965391
30
0
11
216.33236099393983
21
80.47395861465391
31
0
0
SPLINE
5
126
100
AcDbEntity
8
0
100
AcDbSpline
70
0
71
3
72
9
73
5
74
0
42
0.000000001
43
0.0000000001
44
0.0000000001
40
0
40
0
40
0
40
0
40
0.12000722426285285
40
0.22558809502331933
40
0.22558809502331933
40
0.22558809502331933
40
0.22558809502331933
10
216.33236099393983
20
80.473958614653895
30
0
10
216.00080266752641
20
80.248916258325309
30
0
10
215.37754342872518
20
79.825884421904078
30
0
10
214.69750907850204
20
79.502339060933011
30
0
10
214.37923599393983
20
79.35091173965391
30
0
0
SPLINE
5
127
100
AcDbEntity
8
0
100
AcDbSpline
70
0
71
3
72
9
73
5
74
0
42
0.000000001
43
0.0000000001
44
0.0000000001
40
0
40
0
40
0
40
0
40
0.097522185809210113
40
0.19347939048685336
40
0.19347939048685336
40
0.19347939048685336
40
0.19347939048685336
10
214.37923599393983
20
79.35091173965391
30
0
10
214.07253623539489
20
79.236981595099266
30
0
10
213.46405846335421
20
79.010949592805616
30
0
10
212.81591888230366
20
78.97708304617025
30
0
10
212.49447036893983
20
78.96028673965391
30
0
0
SPLINE
5
128
100
AcDbEntity
8
0
100
AcDbSpline
70
0
71
3
72
9
73
5
74
0
42
0.000000001
43
0.0000000001
44
0.0000000001
40
0
40
0
40
0
40
0
40
0.05857594537432035
40
0.10976228505974664
40
0.10976228505974664
40
0.10976228505974664
40
0.10976228505974664
10
188.20736099393983
20
90.122396114653895
30
0
10
188.39741294211956
20
90.167345084328971
30
0
10
188.75354097349756
20
90.251572519175966
30
0
10
189.11364807062654
20
90.316655031849081
30
0
10
189.28157974393983
20
90.347005489653895
30
0
0
SPLINE
5
129
100
AcDbEntity
8
0
100
AcDbSpline
70
0
71
3
72
9
73
5
74
0
42
0.000000001
43
0.0000000001
44
0.0000000001
40
0
40
0
40
0
40
0
40
0.053058897293773923
40
0.11754160830634883
40
0.11754160830634883
40
0.11754160830634883
40
0.11754160830634883
10
189.28157974393983
20
90.347005489653895
30
0
10
189.45713515758223
20
90.36973589921584
30
0
10
189.84604383678374
20
90.420090675391776
30
0
10
190.2382774415959
20
90.423345118952682
30
0
10
190.45345474393983
20
90.425130489653895
30
0
0
SPLINE
5
130
100
AcDbEntity
8
0
100
AcDbSpline
70
0
71
3
72
9
73
5
74
0
42
0.000000001
43
0.0000000001
44
0.0000000001
40
0
40
0
40
0
40
0
40
0.2038925049340162
40
0.37675251559664863
40
0.37675251559664863
40
0.37675251559664863
40
0.37675251559664863
10
190.45345474393983
20
90.425130489653895
30
0
10
191.14649803981123
20
90.397358676298637
30
0
10
192.42710325490464
20
90.346041927075021
30
0
10
193.51088571603142
20
89.670586838380743
30
0
10
194.00814224393983
20
89.360677364653895
30
0
0
SPLINE
5
131
100
AcDbEntity
8
0
100
AcDbSpline
70
0
71
3
72
9
73
5
74
0
42
0.000000001
43
0.0000000001
44
0.0000000001
40
0
40
0
40
0
40
0
40
0.16289596000003276
40
0.34617143446387777
40
0.34617143446387777
40
0.34617143446387777
40
0.34617143446387777
10
194.00814224393983
20
89.360677364653895
30
0
10
194.38376720162111
20
88.946609126295627
30
0
10
195.1820106351658
20
88.066669586736879
30
0
10
195.25732868727573
20
86.875886123909936
30
0
10
195.29720474393983
20
86.245442989653895
30
0
0
SPLINE
5
132
100
AcDbEntity
8
0
100
AcDbSpline
70
0
71
3
72
9
73
5
74
0
42
0.000000001
43
0.0000000001
44
0.0000000001
40
0
40
0
40
0
40
0
40
0.28232158394438117
40
0.55723953837459073
40
0.55723953837459073
40
0.55723953837459073
40
0.55723953837459073
10
195.29720474393983
20
86.245442989653895
30
0
10
195.22254588141067
20
85.286777497436802
30
0
10
195.07518601784631
20
83.394586652956633
30
0
10
193.9552176046484
20
81.863899340770843
30
0
10
193.40267349393983
20
81.108724239653895
30
0
0
SPLINE
5
133
100
AcDbEntity
8
0
100
AcDbSpline
70
0
71
3
72
9
73
5
74
0
42
0.000000001
43
0.0000000001
44
0.0000000001
40
0
40
0
40
0
40
0
40
0.2662167409262875
40
0.52860874461281915
40
0.52860874461281915
40
0.52860874461281915
40
0.52860874461281915
10
193.40267349393983
20
81.108724239653895
30
0
10
192.73714140539334
20
80.482106076742767
30
0
10
191.41563893112377
20
79.237872377180793
30
0
10
189.61097610660786
20
79.052367880894138
30
0
10
188.71517349393983
20
78.96028673965391
30
0
0
SPLINE
5
134
100
AcDbEntity
8
0
100
AcDbSpline
70
0
71
3
72
9
73
5
74
0
42
0.000000001
43
0.0000000001
44
0.0000000001
40
0
40
0
40
0
40
0
40
0.165452067945416
40
0.30447809637137302
40
0.30447809637137302
40
0.30447809637137302
40
0.30447809637137302
10
188.71517349393983
20
78.96028673965391
30
0
10
188.1504749359562
20
78.983609329947797
30
0
10
187.11127159390287
20
79.026529421448103
30
0
10
186.26142176295332
20
79.617967778209547
30
0
10
185.87337661893983
20
79.88802111465391
30
0
0
SPLINE
5
135
100
AcDbEntity
8
0
100
AcDbSpline
70
0
71
3
72
9
73
5
74
0
42
0.000000001
43
0.0000000001
44
0.0000000001
40
0
40
0
40
0
40
0
40
0.13305507274018896
40
0.28328589096401968
40
0.28328589096401968
40
0.28328589096401968
40
0.28328589096401968
10
185.87337661893983
20
79.88802111465391
30
0
10
185.58598245948309
20
80.2405046759459
30
0
10
184.97409514964318
20
80.990973017019613
30
0
10
184.91721362952239
20
81.961321287692954
30
0
10
184.88704849393983
20
82.475911739653895
30
0
0
SPLINE
5
136
100
AcDbEntity
8
0
100
AcDbSpline
70
0
71
3
72
9
73
5
74
0
42
0.000000001
43
0.0000000001
44
0.0000000001
40
0
40
0
40
0
40
0
40
0.037905534779970676
40
0.093231269549564205
40
0.093231269549564205
40
0.093231269549564205
40
0.093231269549564205
10
184.88704849393983
20
82.475911739653895
30
0
10
184.89280130058745
20
82.602190835948761
30
0
10
184.90695072415684
20
82.912782957481411
30
0
10
184.94961881906966
20
83.220838410861319
30
0
10
184.97493911893983
20
83.403646114653895
30
0
0
SPLINE
5
137
100
AcDbEntity
8
0
100
AcDbSpline
70
0
71
3
72
9
73
5
74
0
42
0.000000001
43
0.0000000001
44
0.0000000001
40
0
40
0
40
0
40
0
40
0.069402098990587566
40
0.14984041454323793
40
0.14984041454323793
40
0.14984041454323793
40
0.14984041454323793
10
184.97493911893983
20
83.403646114653895
30
0
10
185.00746711169148
20
83.632760971657035
30
0
10
185.07769564928685
20
84.127424182866548
30
0
10
185.18240189783677
20
84.615983739427463
30
0
10
185.23861099393983
20
84.878255489653895
30
0
0
LINE
5
138
100
AcDbEntity
8
0
100
AcDbLine
10
185.23861099393983
20
84.878255489653895
30
0
11
193.27572036893983
21
84.878255489653895
31
0
0
SPLINE
5
139
100
AcDbEntity
8
0
100
AcDbSpline
70
0
71
3
72
9
73
5
74
0
42
0.000000001
43
0.0000000001
44
0.0000000001
40
0
40
0
40
0
40
0
40
0.028540446308712279
40
0.056370335891882131
40
0.056370335891882131
40
0.056370335891882131
40
0.056370335891882131
10
193.27572036893983
20
84.878255489653895
30
0
10
193.29396740288013
20
84.971660378690714
30
0
10
193.33000718379736
20
85.156144703567662
30
0
10
193.35250425021599
20
85.342763095437917
30
0
10
193.36361099393983
20
85.434896114653895
30
0
0
SPLINE
5
140
100
AcDbEntity
8
0
100
AcDbSpline
70
0
71
3
72
9
73
5
74
0
42
0.000000001
43
0.0000000001
44
0.0000000001
40
0
40
0
40
0
40
0
40
0.026407846255839765
40
0.050826791080156142
40
0.050826791080156142
40
0.050826791080156142
40
0.050826791080156142
10
193.36361099393983
20
85.434896114653895
30
0
10
193.36930501478741
20
85.522756103673899
30
0
10
193.38026421249026
20
85.691858924970319
30
0
10
193.3822082575773
20
85.861302211248443
30
0
10
193.38314224393983
20
85.942708614653895
30
0
0
SPLINE
5
141
100
AcDbEntity
8
0
100
AcDbSpline
70
0
71
3
72
9
73
5
74
0
42
0.000000001
43
0.0000000001
44
0.0000000001
40
0
40
0
40
0
40
0
40
0.12482535559742826
40
0.23777041336813862
40
0.23777041336813862
40
0.23777041336813862
40
0.23777041336813862
10
193.38314224393983
20
85.942708614653895
30
0
10
193.35569435617282
20
86.369870488258798
30
0
10
193.3034109431658
20
87.183538951497198
30
0
10
192.788086510309
20
87.812099998518931
30
0
10
192.54329849393983
20
88.110677364653895
30
0
0
SPLINE
5
142
100
AcDbEntity
8
0
100
AcDbSpline
70
0
71
3
72
9
73
5
74
0
42
0.000000001
43
0.0000000001
44
0.0000000001
40
0
40
0
40
0
40
0
40
0.11725258609221589
40
0.25535937929271346
40
0.25535937929271346
40
0.25535937929271346
40
0.25535937929271346
10
192.54329849393983
20
88.110677364653895
30
0
10
192.21586226826574
20
88.338140527717854
30
0
10
191.50275295330096
20
88.83352279661112
30
0
10
190.63162226520228
20
88.871427336533216
30
0
10
190.16048599393983
20
88.891927364653895
30
0
0
SPLINE
5
143
100
AcDbEntity
8
0
100
AcDbSpline
70
0
71
3
72
9
73
5
74
0
42
0.000000001
43
0.0000000001
44
0.0000000001
40
0
40
0
40
0
40
0
40
0.10939161991821539
40
0.22555869615056409
40
0.22555869615056409
40
0.22555869615056409
40
0.22555869615056409
10
190.16048599393983
20
88.891927364653895
30
0
10
189.794626834263
20
88.872420275412594
30
0
10
189.04024807021202
20
88.832197874297648
30
0
10
188.32290186612062
20
88.594450150217398
30
0
10
187.95345474393983
20
88.472005489653895
30
0
0
SPLINE
5
144
100
AcDbEntity
8
0
100
AcDbSpline
70
0
71
3
72
9
73
5
74
0
42
0.000000001
43
0.0000000001
44
0.0000000001
40
0
40
0
40
0
40
0
40
0.11409206268559081
40
0.21396348433041693
40
0.21396348433041693
40
0.21396348433041693
40
0.21396348433041693
10
187.95345474393983
20
88.472005489653895
30
0
10
187.59796662952695
20
88.334186494157365
30
0
10
186.93129908221971
20
88.075726512023294
30
0
10
186.32322301680097
20
87.700079888126112
30
0
10
186.03939224393983
20
87.524739864653895
30
0
0
LINE
5
145
100
AcDbEntity
8
0
100
AcDbLine
10
186.03939224393983
20
87.524739864653895
30
0
11
185.93197036893983
21
87.524739864653895
31
0
0
LINE
5
146
100
AcDbEntity
8
0
100
AcDbLine
10
185.93197036893983
20
87.524739864653895
30
0
11
186.33236099393983
21
89.507161739653895
31
0
0
SPLINE
5
147
100
AcDbEntity
8
0
100
AcDbSpline
70
0
71
3
72
9
73
5
74
0
42
0.000000001
43
0.0000000001
44
0.0000000001
40
0
40
0
40
0
40
0
40
0.049350839812177832
40
0.093613070541348209
40
0.093613070541348209
40
0.093613070541348209
40
0.093613070541348209
10
186.33236099393983
20
89.507161739653895
30
0
10
186.48708119403062
20
89.563047491341081
30
0
10
186.78056825646735
20
89.669056565043959
30
0
10
187.07299956450305
20
89.777943384063136
30
0
10
187.21126724393983
20
89.829427364653895
30
0
0
SPLINE
5
148
100
AcDbEntity
8
0
100
AcDbSpline
70
0
71
3
72
9
73
5
74
0
42
0.000000001
43
0.0000000001
44
0.0000000001
40
0
40
0
40
0
40
0
40
0.046785905727381671
40
0.10387306328264323
40
0.10387306328264323
40
0.10387306328264323
40
0.10387306328264323
10
187.21126724393983
20
89.829427364653895
30
0
10
187.35878930109033
20
89.880239773234621
30
0
10
187.68631460469913
20
89.993052391692885
30
0
10
188.02256342618463
20
90.076522261766385
30
0
10
188.20736099393983
20
90.122396114653895
30
0
0
SPLINE
5
149
100
AcDbEntity
8
0
100
AcDbSpline
70
0
71
3
72
9
73
5
74
0
42
0.000000001
43
0.0000000001
44
0.0000000001
40
0
40
0
40
0
40
0
40
0.1279904752555206
40
0.23733849656897299
40
0.23733849656897299
40
0.23733849656897299
40
0.23733849656897299
10
175.78548599393983
20
78.96028673965391
30
0
10
175.34914924477954
20
78.979727212789356
30
0
10
174.54003037998305
20
79.015776556752982
30
0
10
173.87505882020179
20
79.472512743418577
30
0
10
173.56868911893983
20
79.68294298965391
30
0
0
SPLINE
5
150
100
AcDbEntity
8
0
100
AcDbSpline
70
0
71
3
72
9
73
5
74
0
42
0.000000001
43
0.0000000001
44
0.0000000001
40
0
40
0
40
0
40
0
40
0.10604812292643705
40
0.22734056639280067
40
0.22734056639280067
40
0.22734056639280067
40
0.22734056639280067
10
173.56868911893983
20
79.68294298965391
30
0
10
173.33540911636064
20
79.960918672639224
30
0
10
172.83531532449553
20
80.556828788437741
30
0
10
172.79135950650996
20
81.337008278646735
30
0
10
172.76790786893983
20
81.753255489653895
30
0
0
SPLINE
5
151
100
AcDbEntity
8
0
100
AcDbSpline
70
0
71
3
72
9
73
5
74
0
42
0.000000001
43
0.0000000001
44
0.0000000001
40
0
40
0
40
0
40
0
40
0.027614884125347107
40
0.06368991446526337
40
0.06368991446526337
40
0.06368991446526337
40
0.06368991446526337
10
172.76790786893983
20
81.753255489653895
30
0
10
172.77083324150553
20
81.845298706243
30
0
10
172.77758020910611
20
82.057583666956816
30
0
10
172.80257725182238
20
82.268534846462259
30
0
10
172.81673599393983
20
82.388021114653895
30
0
0
SPLINE
5
152
100
AcDbEntity
8
0
100
AcDbSpline
70
0
71
3
72
9
73
5
74
0
42
0.000000001
43
0.0000000001
44
0.0000000001
40
0
40
0
40
0
40
0
40
0.037913396226180007
40
0.071334812161038597
40
0.071334812161038597
40
0.071334812161038597
40
0.071334812161038597
10
172.81673599393983
20
82.388021114653895
30
0
10
172.83046807816186
20
82.513776960011839
30
0
10
172.85630526886649
20
82.750389094499681
30
0
10
172.90916018361975
20
82.982431030975334
30
0
10
172.93392349393983
20
83.091146114653895
30
0
0
LINE
5
153
100
AcDbEntity
8
0
100
AcDbLine
10
172.93392349393983
20
83.091146114653895
30
0
11
174.57454849393983
21
90.171224239653895
31
0
0
LINE
5
154
100
AcDbEntity
8
0
100
AcDbLine
10
174.57454849393983
20
90.171224239653895
30
0
11
176.41048599393983
21
90.171224239653895
31
0
0
LINE
5
155
100
AcDbEntity
8
0
100
AcDbLine
10
176.41048599393983
20
90.171224239653895
30
0
11
174.97493911893983
21
83.960286739653895
31
0
0
SPLINE
5
156
100
AcDbEntity
8
0
100
AcDbSpline
70
0
71
3
72
9
73
5
74
0
42
0.000000001
43
0.0000000001
44
0.0000000001
40
0
40
0
40
0
40
0
40
0.049415413457323247
40
0.091560619760135908
40
0.091560619760135908
40
0.091560619760135908
40
0.091560619760135908
10
174.97493911893983
20
83.960286739653895
30
0
10
174.93926065118836
20
83.799445044875739
30
0
10
174.87315288458547
20
83.501425373951022
30
0
10
174.82248172319208
20
83.200407351975969
30
0
10
174.79915786893983
20
83.061849239653895
30
0
0
SPLINE
5
157
100
AcDbEntity
8
0
100
AcDbSpline
70
0
71
3
72
9
73
5
74
0
42
0.000000001
43
0.0000000001
44
0.0000000001
40
0
40
0
40
0
40
0
40
0.039155467982295876
40
0.077523625569839716
40
0.077523625569839716
40
0.077523625569839716
40
0.077523625569839716
10
174.79915786893983
20
83.061849239653895
30
0
10
174.77922031147074
20
82.932705772310058
30
0
10
174.73974608680521
20
82.67701556292009
30
0
10
174.73376076308213
20
82.418372860719202
30
0
10
174.73079849393983
20
82.290364864653895
30
0
0
SPLINE
5
158
100
AcDbEntity
8
0
100
AcDbSpline
70
0
71
3
72
9
73
5
74
0
42
0.000000001
43
0.0000000001
44
0.0000000001
40
0
40
0
40
0
40
0
40
0.072506066430261223
40
0.13229610050826479
40
0.13229610050826479
40
0.13229610050826479
40
0.13229610050826479
10
174.73079849393983
20
82.290364864653895
30
0
10
174.74026971201326
20
82.042334541720038
30
0
10
174.7575510965907
20
81.589773174823677
30
0
10
175.02161392222979
20
81.224829245058871
30
0
10
175.14095474393983
20
81.059896114653895
30
0
0
SPLINE
5
159
100
AcDbEntity
8
0
100
AcDbSpline
70
0
71
3
72
9
73
5
74
0
42
0.000000001
43
0.0000000001
44
0.0000000001
40
0
40
0
40
0
40
0
40
0.064594460626023462
40
0.15432203603286879
40
0.15432203603286879
40
0.15432203603286879
40
0.15432203603286879
10
175.14095474393983
20
81.059896114653895
30
0
10
175.32353347601358
20
80.938217072231652
30
0
10
175.75973065758063
20
80.647514783101229
30
0
10
176.28855698610613
20
80.642746604980715
30
0
10
176.59603286893983
20
80.639974239653895
30
0
0
SPLINE
5
160
100
AcDbEntity
8
0
100
AcDbSpline
70
0
71
3
72
9
73
5
74
0
42
0.000000001
43
0.0000000001
44
0.0000000001
40
0
40
0
40
0
40
0
40
0.078795039300604386
40
0.17007229411638036
40
0.17007229411638036
40
0.17007229411638036
40
0.17007229411638036
10
176.59603286893983
20
80.639974239653895
30
0
10
176.85949150806962
20
80.661566650574997
30
0
10
177.42814425016229
20
80.708172006615811
30
0
10
177.95428162645266
20
80.93070027934661
30
0
10
178.23665786893983
20
81.050130489653895
30
0
0
SPLINE
5
161
100
AcDbEntity
8
0
100
AcDbSpline
70
0
71
3
72
9
73
5
74
0
42
0.000000001
43
0.0000000001
44
0.0000000001
40
0
40
0
40
0
40
0
40
0.098705302878853735
40
0.19953272084088738
40
0.19953272084088738
40
0.19953272084088738
40
0.19953272084088738
10
178.23665786893983
20
81.050130489653895
30
0
10
178.53272815479664
20
81.194343977649879
30
0
10
179.13123409089252
20
81.485871472146357
30
0
10
179.69171711804904
20
81.845145473375879
30
0
10
179.97493911893983
20
82.026692989653895
30
0
0
LINE
5
162
100
AcDbEntity
8
0
100
AcDbLine
10
179.97493911893983
20
82.026692989653881
30
0
11
181.85970474393983
21
90.171224239653881
31
0
0
LINE
5
163
100
AcDbEntity
8
0
100
AcDbLine
10
181.85970474393983
20
90.171224239653881
30
0
11
183.69564224393983
21
90.171224239653895
31
0
0
LINE
5
164
100
AcDbEntity
8
0
100
AcDbLine
10
183.69564224393983
20
90.171224239653895
30
0
11
181.17611099393983
21
79.26302111465391
31
0
0
LINE
5
165
100
AcDbEntity
8
0
100
AcDbLine
10
181.17611099393983
20
79.26302111465391
30
0
11
179.34017349393983
21
79.26302111465391
31
0
0
LINE
5
166
100
AcDbEntity
8
0
100
AcDbLine
10
179.34017349393983
20
79.26302111465391
30
0
11
179.62337661893983
21
80.473958614653895
31
0
0
SPLINE
5
167
100
AcDbEntity
8
0
100
AcDbSpline
70
0
71
3
72
9
73
5
74
0
42
0.000000001
43
0.0000000001
44
0.0000000001
40
0
40
0
40
0
40
0
40
0.12000722426285285
40
0.22558809502331933
40
0.22558809502331933
40
0.22558809502331933
40
0.22558809502331933
10
179.62337661893983
20
80.473958614653895
30
0
10
179.2918182925265
20
80.248916258325309
30
0
10
178.66855905372518
20
79.825884421904092
30
0
10
177.98852470350204
20
79.502339060933011
30
0
10
177.67025161893983
20
79.35091173965391
30
0
0
SPLINE
5
168
100
AcDbEntity
8
0
100
AcDbSpline
70
0
71
3
72
9
73
5
74
0
42
0.000000001
43
0.0000000001
44
0.0000000001
40
0
40
0
40
0
40
0
40
0.097522185809210113
40
0.19347939048685336
40
0.19347939048685336
40
0.19347939048685336
40
0.19347939048685336
10
177.67025161893983
20
79.35091173965391
30
0
10
177.36355186039498
20
79.23698159509928
30
0
10
176.75507408835421
20
79.010949592805616
30
0
10
176.10693450730372
20
78.977083046170264
30
0
10
175.78548599393983
20
78.96028673965391
30
0
0
LWPOLYLINE
5
169
100
AcDbEntity
8
0
100
AcDbPolyline
90
4
70
1
43
0.0
10
168.50032974393983
20
79.26302111465391
10
171.01986099393983
20
90.171224239653895
10
169.18392349393983
20
90.171224239653881
10
166.66439224393983
20
79.26302111465391
0
LWPOLYLINE
5
170
100
AcDbEntity
8
0
100
AcDbPolyline
90
4
70
1
43
0.0
10
167.75814224393983
20
75.53255236465391
10
168.19759536893983
20
77.43684923965391
10
166.12728286893983
20
77.436849239653924
10
165.68782974393983
20
75.532552364653924
0
LWPOLYLINE
5
171
100
AcDbEntity
8
0
100
AcDbPolyline
90
12
70
1
43
0.0
10
166.77181411893983
20
90.171224239653895
10
164.51595474393983
20
90.171224239653895
10
160.42415786893983
20
85.991536739653881
10
158.16829849393991
20
90.171224239653895
10
156.09798599393991
20
90.171224239653895
10
159.15462661893991
20
84.76106798965391
10
153.57845474393991
20
79.26302111465391
10
155.84407974393991
20
79.263021114653895
10
159.90657974393989
20
83.42317736465391
10
162.15267349393983
20
79.26302111465391
10
164.21322036893983
20
79.26302111465391
10
161.16634536893983
20
84.653646114653895
0
SPLINE
5
172
100
AcDbEntity
8
0
100
AcDbSpline
70
0
71
3
72
9
73
5
74
0
42
0.000000001
43
0.0000000001
44
0.0000000001
40
0
40
0
40
0
40
0
40
0.17130758083201922
40
0.32477186093288246
40
0.32477186093288246
40
0.32477186093288246
40
0.32477186093288246
10
201.13704849393983
20
78.96028673965391
30
0
10
200.55252322059047
20
78.994351643469145
30
0
10
199.44435649576752
20
79.058933269984678
30
0
10
198.55788536539927
20
79.721447827273323
30
0
10
198.13900161893983
20
80.034505489653895
30
0
0
SPLINE
5
173
100
AcDbEntity
8
0
100
AcDbSpline
70
0
71
3
72
9
73
5
74
0
42
0.000000001
43
0.0000000001
44
0.0000000001
40
0
40
0
40
0
40
0
40
0.15522813436004251
40
0.33512846793433471
40
0.33512846793433471
40
0.33512846793433471
40
0.33512846793433471
10
198.13900161893983
20
80.034505489653895
30
0
10
197.81476293290689
20
80.453333900684612
30
0
10
197.11475056373649
20
81.357559956706979
30
0
10
197.05681874964242
20
82.504665299647755
30
0
10
197.02572036893983
20
83.120442989653895
30
0
0
SPLINE
5
174
100
AcDbEntity
8
0
100
AcDbSpline
70
0
71
3
72
9
73
5
74
0
42
0.000000001
43
0.0000000001
44
0.0000000001
40
0
40
0
40
0
40
0
40
0.14399330446783762
40
0.28575052629295383
40
0.28575052629295383
40
0.28575052629295383
40
0.28575052629295383
10
197.02572036893983
20
83.120442989653895
30
0
10
197.04384500727812
20
83.602055464455063
30
0
10
197.07981282510957
20
84.557801418423537
30
0
10
197.34391925806008
20
85.476960028849177
30
0
10
197.47493911893983
20
85.932942989653895
30
0
0
SPLINE
5
175
100
AcDbEntity
8
0
100
AcDbSpline
70
0
71
3
72
9
73
5
74
0
42
0.000000001
43
0.0000000001
44
0.0000000001
40
0
40
0
40
0
40
0
40
0.13714098443728176
40
0.26769117450637048
40
0.26769117450637048
40
0.26769117450637048
40
0.26769117450637048
10
197.47493911893983
20
85.932942989653895
30
0
10
197.63662408549948
20
86.36320128835635
30
0
10
197.95222367650405
20
87.203040303610365
30
0
10
198.48475863259281
20
87.924731654897542
30
0
10
198.74447036893983
20
88.276692989653895
30
0
0
SPLINE
5
176
100
AcDbEntity
8
0
100
AcDbSpline
70
0
71
3
72
9
73
5
74
0
42
0.000000001
43
0.0000000001
44
0.0000000001
40
0
40
0
40
0
40
0
40
0.12999405077012649
40
0.25587145125629607
40
0.25587145125629607
40
0.25587145125629607
40
0.25587145125629607
10
198.74447036893983
20
88.276692989653895
30
0
10
199.03558275899954
20
88.601395227402818
30
0
10
199.60858859489718
20
89.240517035722334
30
0
10
200.3450531240245
20
89.681059429613327
30
0
10
200.70736099393983
20
89.897786739653895
30
0
0
SPLINE
5
177
100
AcDbEntity
8
0
100
AcDbSpline
70
0
71
3
72
9
73
5
74
0
42
0.000000001
43
0.0000000001
44
0.0000000001
40
0
40
0
40
0
40
0
40
0.12811335999252943
40
0.26801701561305835
40
0.26801701561305835
40
0.26801701561305835
40
0.26801701561305835
10
200.70736099393983
20
89.897786739653895
30
0
10
201.10394028800408
20
90.065747868065699
30
0
10
201.9335961400966
20
90.417127617832321
30
0
10
202.83466396362527
20
90.454467412641861
30
0
10
203.30501724393983
20
90.473958614653895
30
0
0
SPLINE
5
178
100
AcDbEntity
8
0
100
AcDbSpline
70
0
71
3
72
9
73
5
74
0
42
0.000000001
43
0.0000000001
44
0.0000000001
40
0
40
0
40
0
40
0
40
0.17528038723563769
40
0.32990950749786008
40
0.32990950749786008
40
0.32990950749786008
40
0.32990950749786008
10
203.30501724393983
20
90.473958614653895
30
0
10
203.90417253372243
20
90.440644724303283
30
0
10
205.03189155399809
20
90.377941935179265
30
0
10
205.92399587802191
20
89.691962609940688
30
0
10
206.34212661893983
20
89.370442989653895
30
0
0
SPLINE
5
179
100
AcDbEntity
8
0
100
AcDbSpline
70
0
71
3
72
9
73
5
74
0
42
0.000000001
43
0.0000000001
44
0.0000000001
40
0
40
0
40
0
40
0
40
0.15530356828578068
40
0.33171388067196922
40
0.33171388067196922
40
0.33171388067196922
40
0.33171388067196922
10
206.34212661893983
20
89.370442989653895
30
0
10
206.6579448801935
20
88.945854845456751
30
0
10
207.33250311593702
20
88.038974323949546
30
0
10
207.39361225598188
20
86.906371533779918
30
0
10
207.42611099393983
20
86.304036739653895
30
0
0
SPLINE
5
180
100
AcDbEntity
8
0
100
AcDbSpline
70
0
71
3
72
9
73
5
74
0
42
0.000000001
43
0.0000000001
44
0.0000000001
40
0
40
0
40
0
40
0
40
0.14348761620070286
40
0.28364836415417316
40
0.28364836415417316
40
0.28364836415417316
40
0.28364836415417316
10
207.42611099393983
20
86.304036739653895
30
0
10
207.40867478627399
20
85.82411154362805
30
0
10
207.37420664252477
20
84.875388578025976
30
0
10
207.11482671765566
20
83.962271582619536
30
0
10
206.98665786893983
20
83.511067989653895
30
0
0
SPLINE
5
181
100
AcDbEntity
8
0
100
AcDbSpline
70
0
71
3
72
9
73
5
74
0
42
0.000000001
43
0.0000000001
44
0.0000000001
40
0
40
0
40
0
40
0
40
0.13688692920556403
40
0.27028068398473992
40
0.27028068398473992
40
0.27028068398473992
40
0.27028068398473992
10
206.98665786893983
20
83.511067989653895
30
0
10
206.82249316713438
20
83.082858979078878
30
0
10
206.4983530308362
20
82.237368288781909
30
0
10
205.96220481886098
20
81.50783771147502
30
0
10
205.69759536893983
20
81.147786739653895
30
0
0
SPLINE
5
182
100
AcDbEntity
8
0
100
AcDbSpline
70
0
71
3
72
9
73
5
74
0
42
0.000000001
43
0.0000000001
44
0.0000000001
40
0
40
0
40
0
40
0
40
0.1270587188563404
40
0.25566174838677852
40
0.25566174838677852
40
0.25566174838677852
40
0.25566174838677852
10
205.69759536893983
20
81.147786739653895
30
0
10
205.41119103945698
20
80.831847125467505
30
0
10
204.83490133434884
20
80.196127870035127
30
0
10
204.08991612142358
20
79.770226743859467
30
0
10
203.71517349393983
20
79.55598986465391
30
0
0
SPLINE
5
183
100
AcDbEntity
8
0
100
AcDbSpline
70
0
71
3
72
9
73
5
74
0
42
0.000000001
43
0.0000000001
44
0.0000000001
40
0
40
0
40
0
40
0
40
0.1313660335802028
40
0.26646671428820257
40
0.26646671428820257
40
0.26646671428820257
40
0.26646671428820257
10
203.71517349393983
20
79.55598986465391
30
0
10
203.30916611270126
20
79.382252736367633
30
0
10
202.48560883608343
20
79.029839251217766
30
0
10
201.59074922380393
20
78.983686527022897
30
0
10
201.13704849393983
20
78.96028673965391
30
0
0
SPLINE
5
184
100
AcDbEntity
8
0
100
AcDbSpline
70
0
71
3
72
9
73
5
74
0
42
0.000000001
43
0.0000000001
44
0.0000000001
40
0
40
0
40
0
40
0
40
0.11692908723582417
40
0.23390913840164498
40
0.23390913840164498
40
0.23390913840164498
40
0.23390913840164498
10
220.33626724393974
20
79.12630236465391
30
0
10
220.35785178792267
20
79.518593959678341
30
0
10
220.40103028358351
20
80.303348131318373
30
0
10
220.70288508452938
20
81.029014917648595
30
0
10
220.85384536893974
20
81.391927364653895
30
0
0
SPLINE
5
185
100
AcDbEntity
8
0
100
AcDbSpline
70
0
71
3
72
9
73
5
74
0
42
0.000000001
43
0.0000000001
44
0.0000000001
40
0
40
0
40
0
40
0
40
0.11759369705851851
40
0.2377545440528312
40
0.2377545440528312
40
0.2377545440528312
40
0.2377545440528312
10
220.85384536893974
20
81.391927364653895
30
0
10
221.045947447468
20
81.736742299560916
30
0
10
221.43434532281793
20
82.433899712603449
30
0
10
222.02179353346281
20
82.974285711630372
30
0
10
222.31868911893974
20
83.247396114653895
30
0
0
SPLINE
5
186
100
AcDbEntity
8
0
100
AcDbSpline
70
0
71
3
72
9
73
5
74
0
42
0.000000001
43
0.0000000001
44
0.0000000001
40
0
40
0
40
0
40
0
40
0.11525299439088102
40
0.23091897965753183
40
0.23091897965753183
40
0.23091897965753183
40
0.23091897965753183
10
222.31868911893974
20
83.247396114653895
30
0
10
222.62745082520496
20
83.47943982950413
30
0
10
223.2460806364727
20
83.944358751154311
30
0
10
223.96853476309923
20
84.221739131641371
30
0
10
224.33040786893974
20
84.360677364653895
30
0
0
SPLINE
5
187
100
AcDbEntity
8
0
100
AcDbSpline
70
0
71
3
72
9
73
5
74
0
42
0.000000001
43
0.0000000001
44
0.0000000001
40
0
40
0
40
0
40
0
40
0.12480386605387923
40
0.26986079449688344
40
0.26986079449688344
40
0.26986079449688344
40
0.26986079449688344
10
224.33040786893974
20
84.360677364653895
30
0
10
224.73438663491251
20
84.465906975623426
30
0
10
225.60790148819592
20
84.693442766931184
30
0
10
226.51099053677035
20
84.712019845278974
30
0
10
226.99642349393974
20
84.722005489653895
30
0
0
LINE
5
188
100
AcDbEntity
8
0
100
AcDbLine
10
226.99642349393974
20
84.722005489653895
30
0
11
229.11556411893974
21
84.722005489653895
31
0
0
LINE
5
189
100
AcDbEntity
8
0
100
AcDbLine
10
229.11556411893974
20
84.722005489653895
30
0
11
230.37532974393974
21
90.171224239653895
31
0
0
LINE
5
190
100
AcDbEntity
8
0
100
AcDbLine
10
230.37532974393974
20
90.171224239653895
30
0
11
232.32845474393974
21
90.171224239653895
31
0
0
LINE
5
191
100
AcDbEntity
8
0
100
AcDbLine
10
232.32845474393974
20
90.171224239653895
30
0
11
228.96907974393974
21
75.63020861465391
31
0
0
LINE
5
192
100
AcDbEntity
8
0
100
AcDbLine
10
228.96907974393974
20
75.63020861465391
30
0
11
225.14095474393974
21
75.63020861465391
31
0
0
SPLINE
5
193
100
AcDbEntity
8
0
100
AcDbSpline
70
0
71
3
72
9
73
5
74
0
42
0.000000001
43
0.0000000001
44
0.0000000001
40
0
40
0
40
0
40
0
40
0.12147928208840834
40
0.22142587398549127
40
0.22142587398549127
40
0.22142587398549127
40
0.22142587398549127
10
225.14095474393974
20
75.63020861465391
30
0
10
224.73489297459787
20
75.635561791292417
30
0
10
223.99474551387129
20
75.645319272530415
30
0
10
223.27056685650996
20
75.796392571405647
30
0
10
222.94368911893974
20
75.86458361465391
30
0
0
SPLINE
5
194
100
AcDbEntity
8
0
100
AcDbSpline
70
0
71
3
72
9
73
5
74
0
42
0.000000001
43
0.0000000001
44
0.0000000001
40
0
40
0
40
0
40
0
40
0.084101041445821159
40
0.15850627655319149
40
0.15850627655319149
40
0.15850627655319149
40
0.15850627655319149
10
222.94368911893974
20
75.86458361465391
30
0
10
222.67351464458392
20
75.946257614403464
30
0
10
222.16431345975133
20
76.100189615350786
30
0
10
221.72440672172792
20
76.398418572482569
30
0
10
221.51790786893974
20
76.53841173965391
30
0
0
SPLINE
5
195
100
AcDbEntity
8
0
100
AcDbSpline
70
0
71
3
72
9
73
5
74
0
42
0.000000001
43
0.0000000001
44
0.0000000001
40
0
40
0
40
0
40
0
40
0.070448003112779031
40
0.1398045691462349
40
0.1398045691462349
40
0.1398045691462349
40
0.1398045691462349
10
221.51790786893974
20
76.53841173965391
30
0
10
221.33764530648995
20
76.69219621518684
30
0
10
220.97991295407473
20
76.997382613569812
30
0
10
220.75204575358043
20
77.408618019039267
30
0
10
220.63900161893974
20
77.61263048965391
30
0
0
SPLINE
5
196
100
AcDbEntity
8
0
100
AcDbSpline
70
0
71
3
72
9
73
5
74
0
42
0.000000001
43
0.0000000001
44
0.0000000001
40
0
40
0
40
0
40
0
40
0.072726865518036823
40
0.15534962246868261
40
0.15534962246868261
40
0.15534962246868261
40
0.15534962246868261
10
220.63900161893974
20
77.61263048965391
30
0
10
220.55080033175477
20
77.840338789546792
30
0
10
220.36239627270675
20
78.326739491259588
30
0
10
220.34533910512991
20
78.848698345580701
30
0
10
220.33626724393974
20
79.12630236465391
30
0
0
SPLINE
5
197
100
AcDbEntity
8
0
100
AcDbSpline
70
0
71
3
72
9
73
5
74
0
42
0.000000001
43
0.0000000001
44
0.0000000001
40
0
40
0
40
0
40
0
40
0.11480841060492861
40
0.22832198735918274
40
0.22832198735918274
40
0.22832198735918274
40
0.22832198735918274
10
182.14779068143991
20
104.68294298965388
30
0
10
182.1660799037989
20
105.06767661936072
30
0
10
182.2024520787491
20
105.83280477047553
30
0
10
182.46598849318622
20
106.55196472280947
30
0
10
182.59700943143991
20
106.90950548965388
30
0
0
SPLINE
5
198
100
AcDbEntity
8
0
100
AcDbSpline
70
0
71
3
72
9
73
5
74
0
42
0.000000001
43
0.0000000001
44
0.0000000001
40
0
40
0
40
0
40
0
40
0.11287484768237274
40
0.22576236808329248
40
0.22576236808329248
40
0.22576236808329248
40
0.22576236808329248
10
182.59700943143991
20
106.90950548965388
30
0
10
182.76262592042207
20
107.2500890609753
30
0
10
183.0938774925302
20
107.93129444171839
30
0
10
183.61548694196927
20
108.48056027969599
30
0
10
183.87630630643991
20
108.75520861465388
30
0
0
SPLINE
5
199
100
AcDbEntity
8
0
100
AcDbSpline
70
0
71
3
72
9
73
5
74
0
42
0.000000001
43
0.0000000001
44
0.0000000001
40
0
40
0
40
0
40
0
40
0.11779045121265605
40
0.23811413716853114
40
0.23811413716853114
40
0.23811413716853114
40
0.23811413716853114
10
183.87630630643991
20
108.75520861465388
30
0
10
184.17655069225447
20
109.01153588974319
30
0
10
184.78349660452432
20
109.52970308676376
30
0
10
185.51075943539109
20
109.85856139252654
30
0
10
185.87825943143991
20
110.02473986465387
30
0
0
SPLINE
5
200
100
AcDbEntity
8
0
100
AcDbSpline
70
0
71
3
72
9
73
5
74
0
42
0.000000001
43
0.0000000001
44
0.0000000001
40
0
40
0
40
0
40
0
40
0.12875380315996696
40
0.27347730975146001
40
0.27347730975146001
40
0.27347730975146001
40
0.27347730975146001
10
185.87825943143991
20
110.02473986465387
30
0
10
186.28926912435531
20
110.15564139100303
30
0
10
187.16226722104565
20
110.43368053539905
30
0
10
188.07878656679179
20
110.46001989277498
30
0
10
188.56380630643991
20
110.47395861465387
30
0
0
SPLINE
5
201
100
AcDbEntity
8
0
100
AcDbSpline
70
0
71
3
72
9
73
5
74
0
42
0.000000001
43
0.0000000001
44
0.0000000001
40
0
40
0
40
0
40
0
40
0.11595420367478497
40
0.22703577344593229
40
0.22703577344593229
40
0.22703577344593229
40
0.22703577344593229
10
188.56380630643991
20
110.47395861465387
30
0
10
188.95130164744921
20
110.46283400738358
30
0
10
189.71000897900473
20
110.44105227169962
30
0
10
190.44855323436826
20
110.26642807417676
30
0
10
190.80990005643983
20
110.18098986465387
30
0
0
SPLINE
5
202
100
AcDbEntity
8
0
100
AcDbSpline
70
0
71
3
72
9
73
5
74
0
42
0.000000001
43
0.0000000001
44
0.0000000001
40
0
40
0
40
0
40
0
40
0.10122301142296856
40
0.18652736686513555
40
0.18652736686513555
40
0.18652736686513555
40
0.18652736686513555
10
190.80990005643983
20
110.18098986465387
30
0
10
191.13446494064689
20
110.0867869943846
30
0
10
191.73255259262413
20
109.91319589987509
30
0
10
192.2989273752944
20
109.65468370999611
30
0
10
192.55794693143983
20
109.53645861465387
30
0
0
LINE
5
203
100
AcDbEntity
8
0
100
AcDbLine
10
192.55794693143983
20
109.53645861465388
30
0
11
192.16732193143983
21
107.64192736465387
31
0
0
LINE
5
204
100
AcDbEntity
8
0
100
AcDbLine
10
192.16732193143983
20
107.64192736465387
30
0
11
192.03060318143983
21
107.64192736465388
31
0
0
SPLINE
5
205
100
AcDbEntity
8
0
100
AcDbSpline
70
0
71
3
72
9
73
5
74
0
42
0.000000001
43
0.0000000001
44
0.0000000001
40
0
40
0
40
0
40
0
40
0.08353784420816418
40
0.18391052516847528
40
0.18391052516847528
40
0.18391052516847528
40
0.18391052516847528
10
192.03060318143983
20
107.64192736465388
30
0
10
191.79799497572219
20
107.79645293899898
30
0
10
191.2859025500974
20
108.13664461858022
30
0
10
190.71262239701349
20
108.359916320088
30
0
10
190.39974380643983
20
108.48177111465388
30
0
0
SPLINE
5
206
100
AcDbEntity
8
0
100
AcDbSpline
70
0
71
3
72
9
73
5
74
0
42
0.000000001
43
0.0000000001
44
0.0000000001
40
0
40
0
40
0
40
0
40
0.1081352819945282
40
0.21692999859187528
40
0.21692999859187528
40
0.21692999859187528
40
0.21692999859187528
10
190.39974380643983
20
108.48177111465388
30
0
10
190.0541359649572
20
108.59000650683984
30
0
10
189.36081268338518
20
108.80713733631028
30
0
10
188.63489815578765
20
108.83759149651554
30
0
10
188.27083755643991
20
108.85286486465388
30
0
0
SPLINE
5
207
100
AcDbEntity
8
0
100
AcDbSpline
70
0
71
3
72
9
73
5
74
0
42
0.000000001
43
0.0000000001
44
0.0000000001
40
0
40
0
40
0
40
0
40
0.16616778413070976
40
0.31740891107376024
40
0.31740891107376024
40
0.31740891107376024
40
0.31740891107376024
10
188.27083755643991
20
108.85286486465388
30
0
10
187.70438846351993
20
108.81779782922129
30
0
10
186.62237373543627
20
108.75081378902678
30
0
10
185.75462215151859
20
108.10560891208071
30
0
10
185.34115005643991
20
107.79817736465388
30
0
0
SPLINE
5
208
100
AcDbEntity
8
0
100
AcDbSpline
70
0
71
3
72
9
73
5
74
0
42
0.000000001
43
0.0000000001
44
0.0000000001
40
0
40
0
40
0
40
0
40
0.14769297148214544
40
0.30472019037717479
40
0.30472019037717479
40
0.30472019037717479
40
0.30472019037717479
10
185.34115005643991
20
107.79817736465388
30
0
10
185.01652749005621
20
107.41109650753037
30
0
10
184.34676609764551
20
106.61247114783751
30
0
10
184.26830240844231
20
105.57112692778387
30
0
10
184.22786880643991
20
105.03450548965388
30
0
0
SPLINE
5
209
100
AcDbEntity
8
0
100
AcDbSpline
70
0
71
3
72
9
73
5
74
0
42
0.000000001
43
0.0000000001
44
0.0000000001
40
0
40
0
40
0
40
0
40
0.061121520928288084
40
0.1142146698776822
40
0.1142146698776822
40
0.1142146698776822
40
0.1142146698776822
10
184.22786880643991
20
105.03450548965388
30
0
10
184.2351362913476
20
104.82853635272187
30
0
10
184.24871666986201
20
104.44365232787439
30
0
10
184.40781674582871
20
104.09367720772815
30
0
10
184.48177505643991
20
103.93098986465388
30
0
0
SPLINE
5
210
100
AcDbEntity
8
0
100
AcDbSpline
70
0
71
3
72
9
73
5
74
0
42
0.000000001
43
0.0000000001
44
0.0000000001
40
0
40
0
40
0
40
0
40
0.049707055232373884
40
0.099505160074627938
40
0.099505160074627938
40
0.099505160074627938
40
0.099505160074627938
10
184.48177505643991
20
103.93098986465388
30
0
10
184.57380011336107
20
103.79138119486612
30
0
10
184.75801879171576
20
103.51190813072873
30
0
10
185.0295026634455
20
103.31609526117074
30
0
10
185.16536880643991
20
103.21809923965388
30
0
0
SPLINE
5
211
100
AcDbEntity
8
0
100
AcDbSpline
70
0
71
3
72
9
73
5
74
0
42
0.000000001
43
0.0000000001
44
0.0000000001
40
0
40
0
40
0
40
0
40
0.053502458498074036
40
0.11202342973796051
40
0.11202342973796051
40
0.11202342973796051
40
0.11202342973796051
10
185.16536880643991
20
103.21809923965388
30
0
10
185.32293010668633
20
103.13268889256221
30
0
10
185.65283190453002
20
102.95385673634152
30
0
10
186.01900308205865
20
102.87084140041364
30
0
10
186.21029068143991
20
102.82747423965388
30
0
0
SPLINE
5
212
100
AcDbEntity
8
0
100
AcDbSpline
70
0
71
3
72
9
73
5
74
0
42
0.000000001
43
0.0000000001
44
0.0000000001
40
0
40
0
40
0
40
0
40
0.061906379680314781
40
0.1266699438827231
40
0.1266699438827231
40
0.1266699438827231
40
0.1266699438827231
10
186.21029068143991
20
102.82747423965388
30
0
10
186.41409584266256
20
102.79329941110248
30
0
10
186.83111244851801
20
102.72337247243863
30
0
10
187.25389623092241
20
102.71471375300079
30
0
10
187.47005630643991
20
102.71028673965388
30
0
0
SPLINE
5
213
100
AcDbEntity
8
0
100
AcDbSpline
70
0
71
3
72
9
73
5
74
0
42
0.000000001
43
0.0000000001
44
0.0000000001
40
0
40
0
40
0
40
0
40
0.086240062417554469
40
0.17343142679799051
40
0.17343142679799051
40
0.17343142679799051
40
0.17343142679799051
10
187.47005630643991
20
102.71028673965388
30
0
10
187.75770746099568
20
102.71569156353685
30
0
10
188.33618280941499
20
102.72656083115263
30
0
10
188.91005961892802
20
102.80021218992272
30
0
10
189.19857193143983
20
102.83723986465388
30
0
0
SPLINE
5
214
100
AcDbEntity
8
0
100
AcDbSpline
70
0
71
3
72
9
73
5
74
0
42
0.000000001
43
0.0000000001
44
0.0000000001
40
0
40
0
40
0
40
0
40
0.080557897869856343
40
0.14851368543252785
40
0.14851368543252785
40
0.14851368543252785
40
0.14851368543252785
10
189.19857193143983
20
102.83723986465388
30
0
10
189.46413359077445
20
102.87717960393044
30
0
10
189.95371365406106
20
102.95081109174259
30
0
10
190.44062047831937
20
103.0403911245306
30
0
10
190.66341568143983
20
103.08138048965388
30
0
0
LINE
5
215
100
AcDbEntity
8
0
100
AcDbLine
10
190.66341568143983
20
103.08138048965388
30
0
11
188.94466568143983
21
95.630208614653895
31
0
0
LINE
5
216
100
AcDbEntity
8
0
100
AcDbLine
10
188.94466568143983
20
95.630208614653895
30
0
11
180.22396255643991
21
95.630208614653881
31
0
0
LINE
5
217
100
AcDbEntity
8
0
100
AcDbLine
10
180.22396255643991
20
95.630208614653881
30
0
11
180.60482193143991
21
97.270833614653881
31
0
0
LINE
5
218
100
AcDbEntity
8
0
100
AcDbLine
10
180.60482193143991
20
97.270833614653881
30
0
11
187.43099380643991
21
97.270833614653881
31
0
0
LINE
5
219
100
AcDbEntity
8
0
100
AcDbLine
10
187.43099380643991
20
97.270833614653881
30
0
11
188.34896255643991
21
101.27473986465388
31
0
0
SPLINE
5
220
100
AcDbEntity
8
0
100
AcDbSpline
70
0
71
3
72
9
73
5
74
0
42
0.000000001
43
0.0000000001
44
0.0000000001
40
0
40
0
40
0
40
0
40
0.039881699384947213
40
0.078629362504770511
40
0.078629362504770511
40
0.078629362504770511
40
0.078629362504770511
10
188.34896255643991
20
101.27473986465388
30
0
10
188.21725544851722
20
101.25650231675118
30
0
10
187.95758632475832
20
101.22054580568586
30
0
10
187.69641489281
20
101.19797290871904
30
0
10
187.56771255643991
20
101.18684923965388
30
0
0
SPLINE
5
221
100
AcDbEntity
8
0
100
AcDbSpline
70
0
71
3
72
9
73
5
74
0
42
0.000000001
43
0.0000000001
44
0.0000000001
40
0
40
0
40
0
40
0
40
0.038393005421501064
40
0.077218273821985151
40
0.077218273821985151
40
0.077218273821985151
40
0.077218273821985151
10
187.56771255643991
20
101.18684923965388
30
0
10
187.43999211366963
20
101.17830439385907
30
0
10
187.18311323653495
20
101.16111849671177
30
0
10
186.92567024961983
20
101.15874550329517
30
0
10
186.79622818143991
20
101.15755236465388
30
0
0
SPLINE
5
222
100
AcDbEntity
8
0
100
AcDbSpline
70
0
71
3
72
9
73
5
74
0
42
0.000000001
43
0.0000000001
44
0.0000000001
40
0
40
0
40
0
40
0
40
0.19674296114204862
40
0.35954668666258294
40
0.35954668666258294
40
0.35954668666258294
40
0.35954668666258294
10
186.79622818143991
20
101.15755236465388
30
0
10
186.12850526238196
20
101.17978893004681
30
0
10
184.90824527563404
20
101.22042613182204
30
0
10
183.85511824042874
20
101.82917488510785
30
0
10
183.37825943143991
20
102.10481798965388
30
0
0
SPLINE
5
223
100
AcDbEntity
8
0
100
AcDbSpline
70
0
71
3
72
9
73
5
74
0
42
0.000000001
43
0.0000000001
44
0.0000000001
40
0
40
0
40
0
40
0
40
0.14498089105379355
40
0.29418257579868134
40
0.29418257579868134
40
0.29418257579868134
40
0.29418257579868134
10
183.37825943143991
20
102.10481798965388
30
0
10
183.01939352196365
20
102.45285731039698
30
0
10
182.29121412639836
20
103.15906833663101
30
0
10
182.19605360262136
20
104.17014926690806
30
0
10
182.14779068143991
20
104.68294298965388
30
0
0
LWPOLYLINE
5
224
100
AcDbEntity
8
0
100
AcDbPolyline
90
3
70
1
43
0.0
10
203.99349380643983
20
104.56575548965388
10
196.86458755643983
20
97.993489864653881
10
198.38802505643983
20
104.56575548965388
0
SPLINE
5
225
100
AcDbEntity
8
0
100
AcDbSpline
70
0
71
3
72
9
73
5
74
0
42
0.000000001
43
0.0000000001
44
0.0000000001
40
0
40
0
40
0
40
0
40
0.090058443379157693
40
0.17738573963378004
40
0.17738573963378004
40
0.17738573963378004
40
0.17738573963378004
10
203.01204849393983
20
88.940755489653895
30
0
10
202.70889202451082
20
88.923217825048539
30
0
10
202.11177272579022
20
88.888674349825791
30
0
10
201.576396402954
20
88.622550135427716
30
0
10
201.31282974393983
20
88.491536739653895
30
0
0
SPLINE
5
226
100
AcDbEntity
8
0
100
AcDbSpline
70
0
71
3
72
9
73
5
74
0
42
0.000000001
43
0.0000000001
44
0.0000000001
40
0
40
0
40
0
40
0
40
0.088674146984418778
40
0.18141963259677052
40
0.18141963259677052
40
0.18141963259677052
40
0.18141963259677052
10
201.31282974393983
20
88.491536739653895
30
0
10
201.06637069716712
20
88.324270638795156
30
0
10
200.56213681123518
20
87.982058668388277
30
0
10
200.19942660999163
20
87.492042954068381
30
0
10
200.01400161893983
20
87.241536739653895
30
0
0
SPLINE
5
227
100
AcDbEntity
8
0
100
AcDbSpline
70
0
71
3
72
9
73
5
74
0
42
0.000000001
43
0.0000000001
44
0.0000000001
40
0
40
0
40
0
40
0
40
0.09615700973294912
40
0.19830849311024942
40
0.19830849311024942
40
0.19830849311024942
40
0.19830849311024942
10
200.01400161893983
20
87.241536739653895
30
0
10
199.84752182251805
20
86.966066728236044
30
0
10
199.50418380011712
20
86.397953774088904
30
0
10
199.31214318205713
20
85.762319985344504
30
0
10
199.21322036893983
20
85.434896114653895
30
0
0
SPLINE
5
228
100
AcDbEntity
8
0
100
AcDbSpline
70
0
71
3
72
9
73
5
74
0
42
0.000000001
43
0.0000000001
44
0.0000000001
40
0
40
0
40
0
40
0
40
0.10758626670197007
40
0.2191392985848899
40
0.2191392985848899
40
0.2191392985848899
40
0.2191392985848899
10
199.21322036893983
20
85.434896114653895
30
0
10
199.13062705301243
20
85.084888784161748
30
0
10
198.96239515990047
20
84.37196915924261
30
0
10
198.94093934390611
20
83.639693078238281
30
0
10
198.93001724393983
20
83.266927364653895
30
0
0
SPLINE
5
229
100
AcDbEntity
8
0
100
AcDbSpline
70
0
71
3
72
9
73
5
74
0
42
0.000000001
43
0.0000000001
44
0.0000000001
40
0
40
0
40
0
40
0
40
0.12122583876099552
40
0.22103636683205857
40
0.22103636683205857
40
0.22103636683205857
40
0.22103636683205857
10
198.93001724393983
20
83.266927364653895
30
0
10
198.94501408051255
20
82.853232541573703
30
0
10
198.97235846768197
20
82.098924700889995
30
0
10
199.39394413974284
20
81.477309559441679
30
0
10
199.58431411893983
20
81.196614864653895
30
0
0
SPLINE
5
230
100
AcDbEntity
8
0
100
AcDbSpline
70
0
71
3
72
9
73
5
74
0
42
0.000000001
43
0.0000000001
44
0.0000000001
40
0
40
0
40
0
40
0
40
0.094865205905075412
40
0.20202959235322729
40
0.20202959235322729
40
0.20202959235322729
40
0.20202959235322729
10
199.58431411893983
20
81.196614864653895
30
0
10
199.83565004646584
20
80.99174143510055
30
0
10
200.37090735706107
20
80.55543293756682
30
0
10
201.06293745264338
20
80.514958883646955
30
0
10
201.43001724393983
20
80.493489864653895
30
0
0
SPLINE
5
231
100
AcDbEntity
8
0
100
AcDbSpline
70
0
71
3
72
9
73
5
74
0
42
0.000000001
43
0.0000000001
44
0.0000000001
40
0
40
0
40
0
40
0
40
0.090573539592815611
40
0.17773721348449578
40
0.17773721348449578
40
0.17773721348449578
40
0.17773721348449578
10
201.43001724393983
20
80.493489864653895
30
0
10
201.7351299106719
20
80.5111035614012
30
0
10
202.33386852050864
20
80.545667843564615
30
0
10
202.86752622103236
20
80.818617609738496
30
0
10
203.12923599393983
20
80.952474239653895
30
0
0
SPLINE
5
232
100
AcDbEntity
8
0
100
AcDbSpline
70
0
71
3
72
9
73
5
74
0
42
0.000000001
43
0.0000000001
44
0.0000000001
40
0
40
0
40
0
40
0
40
0.088137808876648738
40
0.18063650259136138
40
0.18063650259136138
40
0.18063650259136138
40
0.18063650259136138
10
203.12923599393983
20
80.952474239653895
30
0
10
203.37342907016094
20
81.11950426955849
30
0
10
203.87389741408521
20
81.461828645603731
30
0
10
204.24039260317591
20
81.945192207710761
30
0
10
204.42806411893983
20
82.192708614653895
30
0
0
SPLINE
5
233
100
AcDbEntity
8
0
100
AcDbSpline
70
0
71
3
72
9
73
5
74
0
42
0.000000001
43
0.0000000001
44
0.0000000001
40
0
40
0
40
0
40
0
40
0.095848129346539454
40
0.19870350548791615
40
0.19870350548791615
40
0.19870350548791615
40
0.19870350548791615
10
204.42806411893983
20
82.192708614653895
30
0
10
204.59519952318885
20
82.466552405720677
30
0
10
204.94168923500524
20
83.034260107603274
30
0
10
205.13733724257571
20
83.67017768565853
30
0
10
205.23861099393983
20
83.999349239653895
30
0
0
SPLINE
5
234
100
AcDbEntity
8
0
100
AcDbSpline
70
0
71
3
72
9
73
5
74
0
42
0.000000001
43
0.0000000001
44
0.0000000001
40
0
40
0
40
0
40
0
40
0.10758626670197007
40
0.21719018146442781
40
0.21719018146442781
40
0.21719018146442781
40
0.21719018146442781
10
205.23861099393983
20
83.999349239653895
30
0
10
205.32120988744362
20
84.34934904624491
30
0
10
205.48795671507128
20
85.055912475168356
30
0
10
205.51045863837714
20
85.781581550521878
30
0
10
205.52181411893983
20
86.147786739653895
30
0
0
SPLINE
5
235
100
AcDbEntity
8
0
100
AcDbSpline
70
0
71
3
72
9
73
5
74
0
42
0.000000001
43
0.0000000001
44
0.0000000001
40
0
40
0
40
0
40
0
40
0.12025827944797544
40
0.22092033394946664
40
0.22092033394946664
40
0.22092033394946664
40
0.22092033394946664
10
205.52181411893983
20
86.147786739653895
30
0
10
205.50563703390537
20
86.55775073255171
30
0
10
205.47591893844825
20
87.310874614200287
30
0
10
205.0579597766494
20
87.934118841559325
30
0
10
204.86751724393983
20
88.218099239653895
30
0
0
SPLINE
5
236
100
AcDbEntity
8
0
100
AcDbSpline
70
0
71
3
72
9
73
5
74
0
42
0.000000001
43
0.0000000001
44
0.0000000001
40
0
40
0
40
0
40
0
40
0.095888542084295758
40
0.20385612790528507
40
0.20385612790528507
40
0.20385612790528507
40
0.20385612790528507
10
204.86751724393983
20
88.218099239653895
30
0
10
204.6159457401491
20
88.428674375592337
30
0
10
204.08111236444725
20
88.876350718484247
30
0
10
203.38220714482566
20
88.918455621643716
30
0
10
203.01204849393983
20
88.940755489653895
30
0
0
SPLINE
5
237
100
AcDbEntity
8
0
100
AcDbSpline
70
0
71
3
72
9
73
5
74
0
42
0.000000001
43
0.0000000001
44
0.0000000001
40
0
40
0
40
0
40
0
40
0.082695947355447191
40
0.16020396334261361
40
0.16020396334261361
40
0.16020396334261361
40
0.16020396334261361
10
223.72493911893974
20
82.251302364653895
30
0
10
223.51971311578092
20
82.064039218514111
30
0
10
223.12213596552837
20
81.701260882223309
30
0
10
222.86366257826961
20
81.229529802425802
30
0
10
222.73861099393974
20
81.001302364653895
30
0
0
SPLINE
5
238
100
AcDbEntity
8
0
100
AcDbSpline
70
0
71
3
72
9
73
5
74
0
42
0.000000001
43
0.0000000001
44
0.0000000001
40
0
40
0
40
0
40
0
40
0.077359839413149764
40
0.15883845829616108
40
0.15883845829616108
40
0.15883845829616108
40
0.15883845829616108
10
222.73861099393974
20
81.001302364653895
30
0
10
222.64178668051846
20
80.760177418234036
30
0
10
222.44298294997705
20
80.265089591829309
30
0
10
222.41892211671512
20
79.731861253918836
30
0
10
222.40657974393974
20
79.45833361465391
30
0
0
SPLINE
5
239
100
AcDbEntity
8
0
100
AcDbSpline
70
0
71
3
72
9
73
5
74
0
42
0.000000001
43
0.0000000001
44
0.0000000001
40
0
40
0
40
0
40
0
40
0.048274448742872483
40
0.094654742294593863
40
0.094654742294593863
40
0.094654742294593863
40
0.094654742294593863
10
222.40657974393974
20
79.45833361465391
30
0
10
222.41292640672754
20
79.296660245697922
30
0
10
222.42537070689559
20
78.979657121417034
30
0
10
222.52417957634833
20
78.678274859778426
30
0
10
222.57259536893974
20
78.53059923965391
30
0
0
SPLINE
5
240
100
AcDbEntity
8
0
100
AcDbSpline
70
0
71
3
72
9
73
5
74
0
42
0.000000001
43
0.0000000001
44
0.0000000001
40
0
40
0
40
0
40
0
40
0.044463765726206
40
0.088143109524109808
40
0.088143109524109808
40
0.088143109524109808
40
0.088143109524109808
10
222.57259536893974
20
78.53059923965391
30
0
10
222.63513545148427
20
78.394294385889765
30
0
10
222.75911229544548
20
78.124089344598829
30
0
10
222.98047643139262
20
77.925757595926243
30
0
10
223.09017349393974
20
77.82747423965391
30
0
0
SPLINE
5
241
100
AcDbEntity
8
0
100
AcDbSpline
70
0
71
3
72
9
73
5
74
0
42
0.000000001
43
0.0000000001
44
0.0000000001
40
0
40
0
40
0
40
0
40
0.053551454453435426
40
0.1102977400939113
40
0.1102977400939113
40
0.1102977400939113
40
0.1102977400939113
10
223.09017349393974
20
77.82747423965391
30
0
10
223.2392934050911
20
77.727173229917796
30
0
10
223.5464295860011
20
77.520587343204866
30
0
10
223.90287976987599
20
77.420158680255682
30
0
10
224.08626724393974
20
77.36848986465391
30
0
0
SPLINE
5
242
100
AcDbEntity
8
0
100
AcDbSpline
70
0
71
3
72
9
73
5
74
0
42
0.000000001
43
0.0000000001
44
0.0000000001
40
0
40
0
40
0
40
0
40
0.066345635968146563
40
0.14943419102303734
40
0.14943419102303734
40
0.14943419102303734
40
0.14943419102303734
10
224.08626724393974
20
77.36848986465391
30
0
10
224.30373613982681
20
77.325903055918801
30
0
10
224.79355416712195
20
77.229982273508355
30
0
10
225.29296134371705
20
77.224855875070517
30
0
10
225.57064224393974
20
77.22200548965391
30
0
0
LINE
5
243
100
AcDbEntity
8
0
100
AcDbLine
10
225.57064224393972
20
77.222005489653895
30
0
11
227.37728286893974
21
77.22200548965391
31
0
0
LINE
5
244
100
AcDbEntity
8
0
100
AcDbLine
10
227.37728286893974
20
77.22200548965391
30
0
11
228.75423599393974
21
83.149739864653895
31
0
0
LINE
5
245
100
AcDbEntity
8
0
100
AcDbLine
10
228.75423599393974
20
83.149739864653895
30
0
11
227.01595474393974
21
83.149739864653895
31
0
0
SPLINE
5
246
100
AcDbEntity
8
0
100
AcDbSpline
70
0
71
3
72
9
73
5
74
0
42
0.000000001
43
0.0000000001
44
0.0000000001
40
0
40
0
40
0
40
0
40
0.10731223319747542
40
0.19594738539241646
40
0.19594738539241646
40
0.19594738539241646
40
0.19594738539241646
10
227.01595474393974
20
83.149739864653895
30
0
10
226.65718621799078
20
83.144740471751447
30
0
10
226.00209077801958
20
83.135611801714504
30
0
10
225.36209298796706
20
82.997410370171309
30
0
10
225.07259536893974
20
82.934896114653895
30
0
0
SPLINE
5
247
100
AcDbEntity
8
0
100
AcDbSpline
70
0
71
3
72
9
73
5
74
0
42
0.000000001
43
0.0000000001
44
0.0000000001
40
0
40
0
40
0
40
0
40
0.077895781902069416
40
0.15197627092421184
40
0.15197627092421184
40
0.15197627092421184
40
0.15197627092421184
10
225.07259536893974
20
82.934896114653895
30
0
10
224.82363404735523
20
82.854750727581717
30
0
10
224.33790539382755
20
82.698385430750605
30
0
10
223.9258127464683
20
82.397814825408545
30
0
10
223.72493911893974
20
82.251302364653895
30
0
0
SPLINE
5
248
100
AcDbEntity
8
0
100
AcDbSpline
70
0
71
3
72
9
73
5
74
0
42
0.000000001
43
0.0000000001
44
0.0000000001
40
0
40
0
40
0
40
0
40
0.13430508413739439
40
0.27282751440735731
40
0.27282751440735731
40
0.27282751440735731
40
0.27282751440735731
10
191.55697036893983
20
81.264974239653895
30
0
10
191.88709105780532
20
81.577742403763722
30
0
10
192.55769863439937
20
82.213100040057995
30
0
10
192.85904580717457
20
83.086930306745899
30
0
10
193.01204849393983
20
83.530599239653895
30
0
0
LINE
5
249
100
AcDbEntity
8
0
100
AcDbLine
10
193.01204849393983
20
83.53059923965391
30
0
11
186.78157974393983
21
83.530599239653895
31
0
0
SPLINE
5
250
100
AcDbEntity
8
0
100
AcDbSpline
70
0
71
3
72
9
73
5
74
0
42
0.000000001
43
0.0000000001
44
0.0000000001
40
0
40
0
40
0
40
0
40
0.026450696028148958
40
0.048344543412372945
40
0.048344543412372945
40
0.048344543412372945
40
0.048344543412372945
10
186.78157974393983
20
83.530599239653895
30
0
10
186.76691904348979
20
83.443639052098774
30
0
10
186.74012334523633
20
83.284699924072342
30
0
10
186.72160623385702
20
83.124591909899976
30
0
10
186.71322036893983
20
83.052083614653895
30
0
0
SPLINE
5
251
100
AcDbEntity
8
0
100
AcDbSpline
70
0
71
3
72
9
73
5
74
0
42
0.000000001
43
0.0000000001
44
0.0000000001
40
0
40
0
40
0
40
0
40
0.020560061788503222
40
0.04302630606648631
40
0.04302630606648631
40
0.04302630606648631
40
0.04302630606648631
10
186.71322036893983
20
83.052083614653895
30
0
10
186.7075268133828
20
82.983761983939985
30
0
10
186.69561183634997
20
82.840784427534885
30
0
10
186.69434867852004
20
82.69731097380712
30
0
10
186.69368911893983
20
82.622396114653895
30
0
0
SPLINE
5
252
100
AcDbEntity
8
0
100
AcDbSpline
70
0
71
3
72
9
73
5
74
0
42
0.000000001
43
0.0000000001
44
0.0000000001
40
0
40
0
40
0
40
0
40
0.094126264181171093
40
0.17644836875626296
40
0.17644836875626296
40
0.17644836875626296
40
0.17644836875626296
10
186.69368911893983
20
82.622396114653895
30
0
10
186.71058121976273
20
82.30086647310479
30
0
10
186.74224702166185
20
81.698129487294665
30
0
10
187.10201227440862
20
81.216323599276805
30
0
10
187.26986099393983
20
80.991536739653895
30
0
0
SPLINE
5
253
100
AcDbEntity
8
0
100
AcDbSpline
70
0
71
3
72
9
73
5
74
0
42
0.000000001
43
0.0000000001
44
0.0000000001
40
0
40
0
40
0
40
0
40
0.086043206140325193
40
0.19566887148762485
40
0.19566887148762485
40
0.19566887148762485
40
0.19566887148762485
10
187.26986099393983
20
80.991536739653895
30
0
10
187.50816348319427
20
80.821271273795659
30
0
10
188.05008168030398
20
80.434074503100433
30
0
10
188.72045099261891
20
80.415824184173474
30
0
10
189.09603286893983
20
80.405599239653895
30
0
0
SPLINE
5
254
100
AcDbEntity
8
0
100
AcDbSpline
70
0
71
3
72
9
73
5
74
0
42
0.000000001
43
0.0000000001
44
0.0000000001
40
0
40
0
40
0
40
0
40
0.13261129059974966
40
0.26464600764002755
40
0.26464600764002755
40
0.26464600764002755
40
0.26464600764002755
10
189.09603286893983
20
80.405599239653895
30
0
10
189.54485973224209
20
80.441093461729878
30
0
10
190.44056202845951
20
80.511927582446248
30
0
10
191.18537515352949
20
81.014323537171009
30
0
10
191.55697036893983
20
81.264974239653895
30
0
0
ENDSEC
0
SECTION
2
OBJECTS
0
DICTIONARY
5
C
100
AcDbDictionary
3
ACAD_GROUP
350
D
3
ACAD_MLINESTYLE
350
17
0
DICTIONARY
5
D
100
AcDbDictionary
0
DICTIONARY
5
1A
330
C
100
AcDbDictionary
0
DICTIONARY
5
17
100
AcDbDictionary
0
ENDSEC
0
EOF
