0
SECTION
2
HEADER
9
$INSUNITS
70
4
9
$ACADVER
1
AC1014
9
$HANDSEED
5
FFFF
0
ENDSEC
0
SECTION
2
TABLES
0
TABLE
2
VPORT
5
8
100
AcDbSymbolTable
0
ENDTAB
0
TABLE
2
LTYPE
5
5
100
AcDbSymbolTable
0
LTYPE
5
14
100
AcDbSymbolTableRecord
100
AcDbLinetypeTableRecord
2
BYBLOCK
70
0
0
LTYPE
5
15
100
AcDbSymbolTableRecord
100
AcDbLinetypeTableRecord
2
BYLAYER
70
0
0
ENDTAB
0
TABLE
2
LAYER
5
2
100
AcDbSymbolTable
70
2
0
LAYER
5
50
100
AcDbSymbolTableRecord
100
AcDbLayerTableRecord
2
0
70
0
6
CONTINUOUS
0
ENDTAB
0
TABLE
2
STYLE
5
3
100
AcDbSymbolTable
70
1
0
STYLE
5
11
100
AcDbSymbolTableRecord
100
AcDbTextStyleTableRecord
2
STANDARD
70
0
0
ENDTAB
0
TABLE
2
VIEW
5
6
100
AcDbSymbolTable
70
0
0
ENDTAB
0
TABLE
2
UCS
5
7
100
AcDbSymbolTable
70
0
0
ENDTAB
0
TABLE
2
APPID
5
9
100
AcDbSymbolTable
70
2
0
APPID
5
12
100
AcDbSymbolTableRecord
100
AcDbRegAppTableRecord
2
ACAD
70
0
0
ENDTAB
0
TABLE
2
DIMSTYLE
5
A
100
AcDbSymbolTable
70
1
0
ENDTAB
0
TABLE
2
BLOCK_RECORD
5
1
100
AcDbSymbolTable
70
1
0
BLOCK_RECORD
5
1F
100
AcDbSymbolTableRecord
100
AcDbBlockTableRecord
2
*MODEL_SPACE
0
BLOCK_RECORD
5
1B
100
AcDbSymbolTableRecord
100
AcDbBlockTableRecord
2
*PAPER_SPACE
0
ENDTAB
0
ENDSEC
0
SECTION
2
BLOCKS
0
BLOCK
5
20
100
AcDbEntity
100
AcDbBlockBegin
2
*MODEL_SPACE
0
ENDBLK
5
21
100
AcDbEntity
100
AcDbBlockEnd
0
BLOCK
5
1C
100
AcDbEntity
100
AcDbBlockBegin
2
*PAPER_SPACE
0
ENDBLK
5
1D
100
AcDbEntity
100
AcDbBlockEnd
0
ENDSEC
0
SECTION
2
ENTITIES
0
LWPOLYLINE
5
100
100
AcDbEntity
8
0
100
AcDbPolyline
90
23
70
1
43
0.0
10
-202.55047295731754
20
112.56283431209873
10
-202.55047295731754
20
125.56283431209866
42
0.41421356237310542
10
-203.05047295731754
20
126.06283431209867
10
-244.62547295731741
20
126.06283431209867
42
0.41421356237313667
10
-245.12547295731741
20
125.56283431209866
10
-245.12547295731738
20
112.56283431209873
42
0.41421356237311585
10
-244.62547295731741
20
112.06283431209872
10
-244.00047295731747
20
112.06283431209872
10
-244.00047295731747
20
112.0625
10
-244.00000000000003
20
112.0625
10
-244.00000000000003
20
110.5625
42
0.24336722574842776
10
-243.78884294722792
20
110.154370422729
42
0.1549045767807028
10
-243.50047295731744
20
110.06283431209873
10
-232.77597295731744
20
110.06283431209877
42
0.41421356237309509
10
-232.27597295731749
20
110.56283431209874
10
-232.27597295731744
20
112.06283431209872
10
-215.39997295731752
20
112.06283431209872
10
-215.39997295731752
20
110.56283431209874
42
0.41421356237309509
10
-214.89997295731754
20
110.06283431209877
10
-208.89997295731757
20
110.06283431209873
42
0.41421356237311585
10
-208.39997295731752
20
110.5628343120987
10
-208.39997295731752
20
112.06283431209872
10
-203.05047295731754
20
112.06283431209872
42
0.41421356237310542
0
LWPOLYLINE
5
101
100
AcDbEntity
8
0
100
AcDbPolyline
90
16
70
1
43
0.0
10
-172.10097295731768
20
110.06283431209877
42
-0.41421356237311585
10
-172.60097295731765
20
110.5628343120987
10
-172.60097295731765
20
112.06283431209872
10
-199.38172295731755
20
112.06283431209867
42
-0.15490457454106127
10
-199.67009294365351
20
112.15437042020751
42
-0.24336722806508088
10
-199.88124999999999
20
112.56250000000001
10
-199.88124999999999
20
125.56250000000003
42
-0.41421356237299095
10
-199.38124999999999
20
126.0625
10
-169.71250000000001
20
126.06250000000001
42
-0.15490457359210555
10
-169.42413001517721
20
125.97096389296192
42
-0.24336722904687341
10
-169.21297295731767
20
125.56283431209866
10
-169.21297295731767
20
125.06283431209866
10
-166.10097295731771
20
125.06283431209872
42
-0.41421356237310542
10
-165.60097295731768
20
124.56283431209869
10
-165.60097295731771
20
110.5628343120987
42
-0.41421356237309509
10
-166.10097295731771
20
110.06283431209873
0
LWPOLYLINE
5
102
100
AcDbEntity
8
0
100
AcDbPolyline
90
8
70
1
43
0.0
10
-253.53172295731736
20
124.56283431209872
10
-253.53172295731738
20
110.56283431209874
42
0.41421356237313667
10
-253.03172295731738
20
110.06283431209877
10
-247.03172295731741
20
110.06283431209877
42
0.41421356237309509
10
-246.53172295731741
20
110.56283431209874
10
-246.53172295731738
20
124.56283431209872
42
0.41421356237310542
10
-247.03172295731741
20
125.06283431209873
10
-253.03172295731738
20
125.06283431209869
42
0.41421356237311585
0
LWPOLYLINE
5
103
100
AcDbEntity
8
0
100
AcDbPolyline
90
20
70
1
43
0.0
10
-137.50015771244921
20
126.06249999999987
42
-0.41430593663496951
10
-137.00015773731457
20
125.56234231242385
10
-137.00047295731781
20
124.56283431209869
10
-137.00047295731781
20
110.5628343120987
42
-0.41421356237309509
10
-137.50047295731778
20
110.06283431209873
10
-148.22497295731773
20
110.06283431209869
42
-0.41421356237307422
10
-148.72497295731773
20
110.5628343120987
10
-148.72497295731773
20
112.06283431209869
10
-151.28172295731775
20
112.06283431209872
10
-151.28172295731778
20
110.5628343120987
42
-0.41421356237309509
10
-151.78172295731775
20
110.06283431209873
10
-157.78172295731773
20
110.06283431209873
42
-0.41421356237309509
10
-158.2817229573177
20
110.5628343120987
10
-158.2817229573177
20
112.06283431209872
10
-163.66297295731769
20
112.06283431209876
42
-0.41421356237309509
10
-164.16297295731766
20
112.56283431209873
10
-164.16297295731766
20
125.56283431209866
42
-0.41421356237310542
10
-163.66297295731769
20
126.06283431209867
10
-141.1379729573178
20
126.06283431209867
42
-0.0091428659707274255
10
-141.11969181035977
20
126.0625
0
LWPOLYLINE
5
104
100
AcDbEntity
8
0
100
AcDbPolyline
90
10
70
1
43
0.0
10
-268.43797295731736
20
112.0628343120988
42
-0.15490457590694928
10
-268.72634294583094
20
112.15437042174854
42
-0.24336722665237745
10
-268.9375
20
112.56250000000001
10
-268.9375
20
125.56250000000003
42
-0.41421356237299095
10
-268.4375
20
126.0625
10
-255.4375
20
126.06250000000003
42
-0.15490457810260272
10
-255.14913000798603
20
125.9709638878728
42
-0.24336722438115124
10
-254.93797295731738
20
125.56283431209866
10
-254.93797295731738
20
112.56283431209873
42
-0.41421356237310542
10
-255.43797295731736
20
112.06283431209872
0
LWPOLYLINE
5
105
100
AcDbEntity
8
0
100
AcDbPolyline
90
18
70
1
43
0.0
10
-67.056250000000006
20
85.987500000000026
10
-67.056250000000006
20
50.387500000000003
10
-98.38124999999998
20
50.387500000000003
42
-0.99999999999999989
10
-107.38124999999997
20
50.387500000000003
10
-188.38124999999997
20
50.387500000000003
42
-0.99999999999999989
10
-197.38124999999997
20
50.387500000000003
10
-278.38124999999997
20
50.387500000000003
42
-0.99999999999999989
10
-287.38124999999997
20
50.387500000000003
10
-318.70624999999995
20
50.387500000000003
10
-318.70624999999995
20
85.987500000000026
42
-0.99999999999999989
10
-318.70624999999995
20
94.987500000000011
10
-318.70624999999995
20
130.58750000000001
10
-257.38125000000002
20
130.58750000000001
42
-0.99999999999999989
10
-248.38125000000002
20
130.58750000000001
10
-137.38124999999999
20
130.58750000000001
42
-0.99999999999999989
10
-128.38125000000002
20
130.58750000000001
10
-67.056250000000006
20
130.58750000000001
10
-67.056250000000006
20
94.987500000000011
42
-0.99999999999999989
0
LWPOLYLINE
5
106
100
AcDbEntity
8
0
100
AcDbPolyline
90
8
70
1
43
0.0
10
-297.80000000000001
20
112.56250000000001
42
-0.4142135623730534
10
-298.30000000000001
20
112.0625
10
-311.30000000000001
20
112.06249999999999
42
-0.41421356237310542
10
-311.80000000000001
20
112.56250000000001
10
-311.80000000000001
20
125.56250000000003
42
-0.41421356237303264
10
-311.30000000000001
20
126.0625
10
-298.30000000000001
20
126.06250000000001
42
-0.41421356237309509
10
-297.80000000000001
20
125.5625
0
LWPOLYLINE
5
107
100
AcDbEntity
8
0
100
AcDbPolyline
90
8
70
1
43
0.0
10
-266.84375
20
74.462500000000006
42
-0.4142135623730222
10
-267.34375
20
73.962500000000006
10
-280.34375
20
73.962500000000006
42
-0.41421356237313667
10
-280.84375
20
74.462500000000006
10
-280.84375
20
87.46250000000002
42
-0.41421356237304296
10
-280.34375
20
87.962500000000006
10
-267.34375
20
87.96250000000002
42
-0.41421356237310542
10
-266.84375
20
87.462500000000006
0
LWPOLYLINE
5
108
100
AcDbEntity
8
0
100
AcDbPolyline
90
8
70
1
43
0.0
10
-276.36875000000003
20
112.56250000000001
42
-0.4142135623730222
10
-276.86874999999998
20
112.0625
10
-289.86875000000003
20
112.0625
42
-0.41421356237313667
10
-290.36875000000003
20
112.56250000000001
10
-290.36875000000003
20
125.56250000000003
42
-0.41421356237306384
10
-289.86875000000003
20
126.0625
10
-276.86874999999998
20
126.0625
42
-0.41421356237308465
10
-276.36874999999998
20
125.5625
0
LWPOLYLINE
5
109
100
AcDbEntity
8
0
100
AcDbPolyline
90
8
70
1
43
0.0
10
-238.26875000000001
20
93.512500000000003
42
-0.4142135623730534
10
-238.76875000000001
20
93.012499999999989
10
-251.76875000000001
20
93.012499999999974
42
-0.41421356237310542
10
-252.26875000000004
20
93.512500000000003
10
-252.26875000000001
20
106.51250000000002
42
-0.4142135623730222
10
-251.76875000000001
20
107.01250000000002
10
-238.76875000000001
20
107.01250000000002
42
-0.41421356237313667
10
-238.26875000000001
20
106.51250000000002
0
LWPOLYLINE
5
110
100
AcDbEntity
8
0
100
AcDbPolyline
90
8
70
1
43
0.0
10
-223.98125000000007
20
55.412500000000009
42
-0.4142135623730222
10
-224.48125000000005
20
54.912500000000009
10
-237.48125000000002
20
54.912500000000023
42
-0.41421356237312101
10
-237.98125000000002
20
55.412500000000009
10
-237.98124999999999
20
68.412500000000009
42
-0.4142135623730222
10
-237.48125000000002
20
68.912500000000009
10
-224.48125000000005
20
68.912499999999994
42
-0.41421356237312629
10
-223.98125000000005
20
68.412500000000009
0
LWPOLYLINE
5
111
100
AcDbEntity
8
0
100
AcDbPolyline
90
8
70
1
43
0.0
10
-228.74374999999998
20
74.462500000000006
42
-0.41421356237307422
10
-229.24375000000001
20
73.962500000000006
10
-242.24375000000003
20
73.96250000000002
42
-0.41421356237312629
10
-242.74375000000003
20
74.462500000000006
10
-242.74374999999998
20
87.46250000000002
42
-0.41421356237301177
10
-242.24375000000003
20
87.962500000000006
10
-229.24375000000001
20
87.962500000000006
42
-0.41421356237313667
10
-228.74375000000001
20
87.462500000000006
0
LWPOLYLINE
5
112
100
AcDbEntity
8
0
100
AcDbPolyline
90
8
70
1
43
0.0
10
-185.88125000000005
20
55.412500000000009
42
-0.4142135623730222
10
-186.38125000000002
20
54.912500000000009
10
-199.38124999999999
20
54.912500000000023
42
-0.41421356237312101
10
-199.88124999999999
20
55.412500000000009
10
-199.88124999999997
20
68.412500000000009
42
-0.4142135623730222
10
-199.38124999999999
20
68.912500000000009
10
-186.38125000000002
20
68.912499999999994
42
-0.41421356237312629
10
-185.88125000000002
20
68.412500000000009
0
LWPOLYLINE
5
113
100
AcDbEntity
8
0
100
AcDbPolyline
90
8
70
1
43
0.0
10
-78.725000000000009
20
93.512500000000003
42
-0.41421356237308982
10
-79.225000000000009
20
93.012499999999989
10
-92.224999999999994
20
93.012499999999989
42
-0.41421356237309509
10
-92.725000000000009
20
93.512500000000003
10
-92.725000000000009
20
106.51250000000002
42
-0.41421356237309509
10
-92.224999999999994
20
107.01250000000002
10
-79.225000000000009
20
107.01250000000002
42
-0.41421356237308982
10
-78.725000000000009
20
106.51250000000002
0
LWPOLYLINE
5
114
100
AcDbEntity
8
0
100
AcDbPolyline
90
8
70
1
43
0.0
10
-123.96875000000001
20
93.512500000000003
10
-123.96875000000001
20
106.51250000000002
42
0.41421356237308465
10
-124.46875
20
107.01250000000002
10
-137.46875
20
107.01250000000002
42
0.41421356237309509
10
-137.96875
20
106.51250000000002
10
-137.96875
20
93.512500000000003
42
0.41421356237308465
10
-137.46875
20
93.012499999999989
10
-124.46875000000003
20
93.012499999999989
42
0.41421356237309509
0
LWPOLYLINE
5
115
100
AcDbEntity
8
0
100
AcDbPolyline
90
8
70
1
43
0.0
10
-142.23124999999999
20
54.912500000000009
42
-0.41421356237308982
10
-142.73124999999999
20
55.412500000000009
10
-142.73124999999999
20
68.412500000000009
42
-0.41421356237310542
10
-142.23124999999999
20
68.912500000000009
10
-129.23124999999999
20
68.912500000000009
42
-0.41421356237309509
10
-128.73125000000002
20
68.412500000000009
10
-128.73124999999999
20
55.412500000000009
42
-0.414213562373069
10
-129.23125000000002
20
54.912500000000009
0
LWPOLYLINE
5
116
100
AcDbEntity
8
0
100
AcDbPolyline
90
8
70
1
43
0.0
10
-152.54374999999999
20
74.462500000000006
42
-0.41421356237310542
10
-153.04374999999999
20
73.962500000000006
10
-166.04375000000002
20
73.962500000000006
42
-0.41421356237313667
10
-166.54375000000002
20
74.462500000000006
10
-166.54375000000002
20
87.46250000000002
42
-0.41421356237304296
10
-166.04375000000002
20
87.962500000000006
10
-153.04374999999999
20
87.962500000000006
42
-0.41421356237309509
10
-152.54374999999999
20
87.462500000000006
0
LWPOLYLINE
5
117
100
AcDbEntity
8
0
100
AcDbPolyline
90
8
70
1
43
0.0
10
-109.68125000000001
20
55.412500000000009
42
-0.41421356237308982
10
-110.18125000000001
20
54.912500000000009
10
-123.18125000000002
20
54.912500000000009
42
-0.41421356237308982
10
-123.68125000000003
20
55.412500000000009
10
-123.68125000000003
20
68.412500000000009
42
-0.41421356237310542
10
-123.18125000000002
20
68.912500000000009
10
-110.18125000000001
20
68.912499999999994
42
-0.41421356237310542
10
-109.68125000000001
20
68.412500000000009
0
LWPOLYLINE
5
118
100
AcDbEntity
8
0
100
AcDbPolyline
90
8
70
1
43
0.0
10
-166.83125000000004
20
55.412500000000009
42
-0.4142135623730222
10
-167.33125000000001
20
54.912500000000009
10
-180.33125000000001
20
54.912500000000009
42
-0.41421356237313145
10
-180.83125000000001
20
55.412500000000009
10
-180.83125000000007
20
68.412500000000009
42
-0.41421356237307422
10
-180.33125000000001
20
68.912500000000009
10
-167.33125000000001
20
68.912499999999994
42
-0.41421356237312629
10
-166.83125000000001
20
68.412500000000009
0
LWPOLYLINE
5
119
100
AcDbEntity
8
0
100
AcDbPolyline
90
8
70
1
43
0.0
10
-204.93125000000006
20
55.412500000000009
42
-0.4142135623730222
10
-205.43125000000003
20
54.912500000000009
10
-218.43125000000001
20
54.912500000000023
42
-0.41421356237312101
10
-218.93125000000001
20
55.412500000000009
10
-218.93124999999998
20
68.412500000000009
42
-0.4142135623730222
10
-218.43125000000001
20
68.912500000000009
10
-205.43125000000003
20
68.912499999999994
42
-0.41421356237312629
10
-204.93125000000003
20
68.412500000000009
0
LWPOLYLINE
5
120
100
AcDbEntity
8
0
100
AcDbPolyline
90
8
70
1
43
0.0
10
-133.49375000000003
20
74.462500000000006
42
-0.41421356237310542
10
-133.99375000000001
20
73.962500000000006
10
-146.99375000000001
20
73.96250000000002
42
-0.41421356237310542
10
-147.49375000000001
20
74.462500000000006
10
-147.49375000000001
20
87.46250000000002
42
-0.41421356237308465
10
-146.99375000000001
20
87.962500000000006
10
-133.99375000000001
20
87.962500000000006
42
-0.41421356237310542
10
-133.49375000000003
20
87.462500000000006
0
LWPOLYLINE
5
121
100
AcDbEntity
8
0
100
AcDbPolyline
90
8
70
1
43
0.0
10
-147.78125
20
55.412500000000009
42
-0.41421356237308982
10
-148.28125
20
54.912500000000009
10
-161.28125
20
54.912500000000009
42
-0.41421356237313145
10
-161.78125
20
55.412500000000009
10
-161.78125000000006
20
68.412500000000009
42
-0.41421356237307422
10
-161.28125
20
68.912500000000009
10
-148.28125
20
68.912499999999994
42
-0.41421356237310542
10
-147.78125
20
68.412500000000009
0
LWPOLYLINE
5
122
100
AcDbEntity
8
0
100
AcDbPolyline
90
8
70
1
43
0.0
10
-194.61874999999998
20
93.012499999999974
42
-0.41421356237310542
10
-195.11875000000001
20
93.512500000000003
10
-195.11874999999998
20
106.51250000000002
42
-0.4142135623730222
10
-194.61874999999998
20
107.01250000000002
10
-181.61875000000003
20
107.01250000000003
42
-0.41421356237310542
10
-181.11875000000001
20
106.51250000000002
10
-181.11875000000003
20
93.512500000000003
42
-0.4142135623730222
10
-181.61875000000003
20
93.012499999999989
0
LWPOLYLINE
5
123
100
AcDbEntity
8
0
100
AcDbPolyline
90
8
70
1
43
0.0
10
-257.31875000000002
20
93.512500000000003
42
-0.4142135623730222
10
-257.81875000000002
20
93.012499999999989
10
-270.81875000000002
20
93.012499999999989
42
-0.41421356237313667
10
-271.31875000000002
20
93.512500000000003
10
-271.31875000000002
20
106.51250000000002
42
-0.4142135623730534
10
-270.81875000000002
20
107.01250000000002
10
-257.81875000000002
20
107.01250000000003
42
-0.41421356237310542
10
-257.31874999999997
20
106.51250000000002
0
LWPOLYLINE
5
124
100
AcDbEntity
8
0
100
AcDbPolyline
90
8
70
1
43
0.0
10
-247.79374999999999
20
74.462500000000006
42
-0.41421356237307422
10
-248.29375000000002
20
73.962500000000006
10
-261.29375000000005
20
73.96250000000002
42
-0.41421356237312629
10
-261.79375000000005
20
74.462500000000006
10
-261.79374999999999
20
87.46250000000002
42
-0.41421356237301177
10
-261.29375000000005
20
87.962500000000006
10
-248.29375000000002
20
87.962500000000006
42
-0.41421356237313667
10
-247.79375000000002
20
87.462500000000006
0
LWPOLYLINE
5
125
100
AcDbEntity
8
0
100
AcDbPolyline
90
8
70
1
43
0.0
10
-311.30000000000001
20
93.012499999999974
42
-0.41421356237310542
10
-311.80000000000001
20
93.512500000000003
10
-311.80000000000001
20
106.51250000000002
42
-0.4142135623730222
10
-311.30000000000001
20
107.01250000000002
10
-298.30000000000001
20
107.01250000000002
42
-0.41421356237313667
10
-297.80000000000001
20
106.51250000000002
10
-297.80000000000001
20
93.512500000000003
42
-0.4142135623730534
10
-298.30000000000001
20
93.012499999999989
0
LWPOLYLINE
5
126
100
AcDbEntity
8
0
100
AcDbPolyline
90
8
70
1
43
0.0
10
-95.393749999999997
20
112.56250000000001
42
-0.41421356237309509
10
-95.893750000000011
20
112.0625
10
-108.89375000000001
20
112.0625
42
-0.41421356237309509
10
-109.39375000000001
20
112.56250000000001
10
-109.39375000000001
20
125.56250000000003
42
-0.41421356237309509
10
-108.89375000000001
20
126.0625
10
-95.893750000000011
20
126.0625
42
-0.41421356237310542
10
-95.393749999999997
20
125.5625
0
LWPOLYLINE
5
127
100
AcDbEntity
8
0
100
AcDbPolyline
90
8
70
1
43
0.0
10
-190.64375000000007
20
74.462500000000006
42
-0.4142135623730222
10
-191.14375000000001
20
73.962500000000006
10
-204.14375000000001
20
73.96250000000002
42
-0.41421356237312629
10
-204.64375000000001
20
74.462500000000006
10
-204.64374999999995
20
87.46250000000002
42
-0.41421356237301177
10
-204.14375000000001
20
87.962500000000006
10
-191.14375000000001
20
87.96250000000002
42
-0.41421356237310542
10
-190.64375000000001
20
87.462500000000006
0
LWPOLYLINE
5
128
100
AcDbEntity
8
0
100
AcDbPolyline
90
8
70
1
43
0.0
10
-219.21875
20
93.512500000000003
42
-0.4142135623730534
10
-219.71875
20
93.012499999999989
10
-232.71875
20
93.012499999999974
42
-0.41421356237310542
10
-233.21875000000003
20
93.512500000000003
10
-233.21875
20
106.51250000000002
42
-0.4142135623730222
10
-232.71875
20
107.01250000000002
10
-219.71875
20
107.01250000000002
42
-0.41421356237313667
10
-219.21875
20
106.51250000000002
0
LWPOLYLINE
5
129
100
AcDbEntity
8
0
100
AcDbPolyline
90
8
70
1
43
0.0
10
-209.69374999999997
20
74.462500000000006
42
-0.41421356237307422
10
-210.19374999999999
20
73.962500000000006
10
-223.19375000000002
20
73.96250000000002
42
-0.41421356237312629
10
-223.69375000000002
20
74.462500000000006
10
-223.69374999999997
20
87.46250000000002
42
-0.41421356237301177
10
-223.19375000000002
20
87.962500000000006
10
-210.19374999999999
20
87.962500000000006
42
-0.41421356237313667
10
-209.69374999999999
20
87.462500000000006
0
LWPOLYLINE
5
130
100
AcDbEntity
8
0
100
AcDbPolyline
90
8
70
1
43
0.0
10
-243.03125
20
55.412500000000009
10
-243.03125
20
68.412500000000009
42
0.41421356237313667
10
-243.53125000000003
20
68.912500000000009
10
-256.53125
20
68.912500000000009
42
0.41421356237307422
10
-257.03125
20
68.412500000000009
10
-257.03125
20
55.412500000000009
42
0.41421356237313145
10
-256.53125
20
54.912500000000009
10
-243.53125000000003
20
54.912500000000009
42
0.41421356237307422
0
LWPOLYLINE
5
131
100
AcDbEntity
8
0
100
AcDbPolyline
90
8
70
1
43
0.0
10
-262.08125000000001
20
55.412500000000009
42
-0.41421356237307422
10
-262.58125000000001
20
54.912500000000009
10
-275.58125000000007
20
54.912500000000023
42
-0.41421356237312101
10
-276.08125000000007
20
55.412500000000009
10
-276.08125000000001
20
68.412500000000009
42
-0.4142135623730222
10
-275.58125000000007
20
68.912500000000009
10
-262.58125000000001
20
68.912500000000009
42
-0.41421356237313667
10
-262.08125000000001
20
68.412500000000009
0
LWPOLYLINE
5
132
100
AcDbEntity
8
0
100
AcDbPolyline
90
8
70
1
43
0.0
10
-108.89375000000001
20
73.962500000000006
42
-0.41421356237307944
10
-109.39375000000001
20
74.462500000000006
10
-109.39375000000001
20
87.46250000000002
42
-0.41421356237308465
10
-108.89375000000001
20
87.962500000000006
10
-95.893750000000011
20
87.962500000000006
42
-0.41421356237309509
10
-95.393749999999997
20
87.462500000000006
10
-95.393749999999997
20
74.462499999999991
42
-0.41421356237309509
10
-95.893750000000011
20
73.962500000000006
0
LWPOLYLINE
5
133
100
AcDbEntity
8
0
100
AcDbPolyline
90
8
70
1
43
0.0
10
-114.44375000000001
20
74.462499999999991
10
-114.44375000000001
20
87.462500000000006
42
0.41421356237309509
10
-114.94375000000002
20
87.962500000000006
10
-127.94375000000002
20
87.962500000000006
42
0.41421356237308465
10
-128.44375000000002
20
87.46250000000002
10
-128.44375000000002
20
74.462500000000006
42
0.41421356237310542
10
-127.94375000000002
20
73.962500000000006
10
-114.94375000000002
20
73.962500000000006
42
0.41421356237309509
0
LWPOLYLINE
5
134
100
AcDbEntity
8
0
100
AcDbPolyline
90
8
70
1
43
0.0
10
-171.59375000000006
20
74.462500000000006
42
-0.4142135623730222
10
-172.09375
20
73.962500000000006
10
-185.09375
20
73.96250000000002
42
-0.41421356237312629
10
-185.59375
20
74.462500000000006
10
-185.59374999999994
20
87.46250000000002
42
-0.41421356237301177
10
-185.09375
20
87.962500000000006
10
-172.09375
20
87.96250000000002
42
-0.41421356237310542
10
-171.59375
20
87.462500000000006
0
LWPOLYLINE
5
135
100
AcDbEntity
8
0
100
AcDbPolyline
90
8
70
1
43
0.0
10
-143.01875000000001
20
93.512500000000003
42
-0.41421356237310542
10
-143.51875000000001
20
93.012499999999989
10
-156.51875000000001
20
93.012499999999989
42
-0.41421356237307422
10
-157.01875000000004
20
93.512500000000003
10
-157.01875000000001
20
106.51250000000002
42
-0.41421356237310542
10
-156.51875000000001
20
107.01250000000002
10
-143.51875000000001
20
107.01250000000002
42
-0.41421356237310542
10
-143.01875000000001
20
106.51250000000002
0
LWPOLYLINE
5
136
100
AcDbEntity
8
0
100
AcDbPolyline
90
8
70
1
43
0.0
10
-85.081249999999997
20
54.912500000000009
42
-0.41421356237308982
10
-85.581250000000011
20
55.412500000000009
10
-85.581250000000011
20
68.412500000000009
42
-0.41421356237310542
10
-85.081249999999997
20
68.912500000000009
10
-72.081249999999983
20
68.912500000000009
42
-0.41421356237309509
10
-71.581250000000011
20
68.412500000000009
10
-71.581250000000011
20
55.412500000000009
42
-0.41421356237309509
10
-72.081250000000011
20
54.912500000000009
0
LWPOLYLINE
5
137
100
AcDbEntity
8
0
100
AcDbPolyline
90
8
70
1
43
0.0
10
-73.962500000000006
20
74.462500000000006
42
-0.41421356237310542
10
-74.462500000000006
20
73.962500000000006
10
-87.46250000000002
20
73.96250000000002
42
-0.41421356237309509
10
-87.962500000000006
20
74.462500000000006
10
-87.962500000000006
20
87.46250000000002
42
-0.41421356237308465
10
-87.462500000000006
20
87.962500000000006
10
-74.462499999999991
20
87.962500000000006
42
-0.41421356237309509
10
-73.962500000000006
20
87.462500000000006
0
LWPOLYLINE
5
138
100
AcDbEntity
8
0
100
AcDbPolyline
90
8
70
1
43
0.0
10
-114.44375000000001
20
112.56250000000001
42
-0.41421356237309509
10
-114.94375000000002
20
112.0625
10
-130.32500000000002
20
112.0625
42
-0.41421356237309509
10
-130.82499999999999
20
112.56250000000001
10
-130.82499999999999
20
125.56250000000003
42
-0.41421356237308465
10
-130.32500000000002
20
126.0625
10
-114.94375000000002
20
126.0625
42
-0.41421356237310542
10
-114.44375000000001
20
125.5625
0
LWPOLYLINE
5
139
100
AcDbEntity
8
0
100
AcDbPolyline
90
8
70
1
43
0.0
10
-73.96250000000002
20
112.56250000000001
42
-0.41421356237310542
10
-74.462500000000006
20
112.0625
10
-87.46250000000002
20
112.0625
42
-0.41421356237308465
10
-87.962500000000006
20
112.56250000000001
10
-87.962500000000006
20
125.56250000000003
42
-0.41421356237309509
10
-87.462500000000006
20
126.0625
10
-74.462499999999991
20
126.0625
42
-0.41421356237306384
10
-73.962500000000006
20
125.5625
0
LWPOLYLINE
5
140
100
AcDbEntity
8
0
100
AcDbPolyline
90
20
70
1
43
0.0
10
-289.21825000000001
20
68.912500000000009
10
-306.09424999999999
20
68.912500000000009
10
-306.09424999999999
20
70.412500000000009
42
0.41421356237312101
10
-306.59424999999999
20
70.912500000000009
10
-312.59424999999999
20
70.912500000000009
42
0.4142135623730222
10
-313.09424999999999
20
70.412500000000009
10
-313.09424999999999
20
68.912500000000009
10
-313.68125000000003
20
68.912500000000009
42
0.41421356237307422
10
-314.18125000000003
20
68.412500000000009
10
-314.18125000000003
20
55.412500000000009
42
0.41421356237313145
10
-313.68125000000003
20
54.912500000000009
10
-281.63125000000002
20
54.912500000000009
42
0.4142135623730222
10
-281.13125000000002
20
55.412500000000009
10
-281.13125000000002
20
68.412500000000009
42
0.41421356237312629
10
-281.63125000000002
20
68.912500000000009
10
-282.21825000000001
20
68.912500000000009
10
-282.21825000000001
20
70.412500000000009
42
0.41421356237313145
10
-282.71825000000001
20
70.912500000000009
10
-288.71825000000001
20
70.912500000000009
42
0.4142135623730222
10
-289.21825000000001
20
70.412500000000009
0
LWPOLYLINE
5
141
100
AcDbEntity
8
0
100
AcDbPolyline
90
8
70
1
43
0.0
10
-162.06875000000002
20
93.512500000000003
42
-0.4142135623730222
10
-162.56875000000002
20
93.012499999999989
10
-175.56875000000002
20
93.012499999999989
42
-0.41421356237313667
10
-176.06875000000002
20
93.512500000000003
10
-176.06875000000002
20
106.51250000000002
42
-0.4142135623730534
10
-175.56875000000002
20
107.01250000000002
10
-162.56875000000002
20
107.01250000000003
42
-0.41421356237310542
10
-162.06874999999999
20
106.51250000000002
0
LWPOLYLINE
5
142
100
AcDbEntity
8
0
100
AcDbPolyline
90
8
70
1
43
0.0
10
-276.36874999999998
20
93.512500000000003
10
-276.36874999999998
20
106.51250000000002
42
0.41421356237310542
10
-276.86874999999998
20
107.01250000000002
10
-289.86875000000003
20
107.01250000000002
42
0.4142135623730534
10
-290.36875000000003
20
106.51250000000002
10
-290.36875000000003
20
93.512500000000003
42
0.41421356237313667
10
-289.86875000000003
20
93.012499999999989
10
-276.86874999999998
20
93.012499999999989
42
0.4142135623730222
0
LWPOLYLINE
5
143
100
AcDbEntity
8
0
100
AcDbPolyline
90
8
70
1
43
0.0
10
-90.631249999999994
20
55.412500000000009
42
-0.41421356237308982
10
-91.131249999999994
20
54.912500000000009
10
-104.13125000000001
20
54.912500000000009
42
-0.41421356237308982
10
-104.63125000000002
20
55.412500000000009
10
-104.63125000000002
20
68.412500000000009
42
-0.41421356237310542
10
-104.13125000000001
20
68.912500000000009
10
-91.131249999999994
20
68.912499999999994
42
-0.41421356237310542
10
-90.631249999999994
20
68.412500000000009
0
LWPOLYLINE
5
144
100
AcDbEntity
8
0
100
AcDbPolyline
90
8
70
1
43
0.0
10
-200.16875000000005
20
93.512500000000003
42
-0.4142135623730222
10
-200.66875000000005
20
93.012499999999989
10
-213.66874999999999
20
93.012499999999974
42
-0.41421356237310542
10
-214.16875000000002
20
93.512500000000003
10
-214.16874999999999
20
106.51250000000002
42
-0.4142135623730222
10
-213.66874999999999
20
107.01250000000002
10
-200.66875000000005
20
107.01250000000003
42
-0.41421356237310542
10
-200.16875000000002
20
106.51250000000002
0
LWPOLYLINE
5
145
100
AcDbEntity
8
0
100
AcDbPolyline
90
8
70
1
43
0.0
10
-293.03749999999997
20
74.462500000000006
42
-0.41421356237307422
10
-293.53750000000002
20
73.962500000000006
10
-306.53750000000002
20
73.96250000000002
42
-0.41421356237312629
10
-307.03750000000002
20
74.462500000000006
10
-307.03750000000002
20
87.46250000000002
42
-0.41421356237301177
10
-306.53750000000002
20
87.962500000000006
10
-293.53750000000002
20
87.962500000000006
42
-0.41421356237313667
10
-293.03750000000002
20
87.462500000000006
0
LWPOLYLINE
5
146
100
AcDbEntity
8
0
100
AcDbPolyline
90
8
70
1
43
0.0
10
-104.91875
20
93.512500000000003
42
-0.41421356237309509
10
-105.41875000000002
20
93.012499999999989
10
-118.41875000000002
20
93.012499999999989
42
-0.41421356237309509
10
-118.91875000000002
20
93.512500000000003
10
-118.91875000000002
20
106.51250000000002
42
-0.41421356237309509
10
-118.41875000000002
20
107.01250000000002
10
-105.41875000000002
20
107.01250000000002
42
-0.41421356237309509
10
-104.91875
20
106.51250000000002
0
CIRCLE
5
147
100
AcDbEntity
8
0
100
AcDbCircle
10
-65.056250000000006
20
90.487500000000011
30
0
40
1
210
0
220
-0
230
1
0
CIRCLE
5
148
100
AcDbEntity
8
0
100
AcDbCircle
10
-320.70625000000001
20
90.487500000000011
30
0
40
1
210
0
220
-0
230
1
0
CIRCLE
5
149
100
AcDbEntity
8
0
100
AcDbCircle
10
-102.88124999999997
20
48.387500000000003
30
0
40
1
210
0
220
-0
230
1
0
CIRCLE
5
150
100
AcDbEntity
8
0
100
AcDbCircle
10
-282.88124999999997
20
48.387500000000003
30
0
40
1
210
0
220
-0
230
1
0
CIRCLE
5
151
100
AcDbEntity
8
0
100
AcDbCircle
10
-192.88124999999997
20
48.387500000000003
30
0
40
1
210
0
220
-0
230
1
0
CIRCLE
5
152
100
AcDbEntity
8
0
100
AcDbCircle
10
-132.88125000000002
20
132.58749999999998
30
0
40
1
210
0
220
-0
230
1
0
CIRCLE
5
153
100
AcDbEntity
8
0
100
AcDbCircle
10
-252.88125000000002
20
132.58749999999998
30
0
40
1
210
0
220
-0
230
1
0
ENDSEC
0
SECTION
2
OBJECTS
0
DICTIONARY
5
C
100
AcDbDictionary
3
ACAD_GROUP
350
D
3
ACAD_MLINESTYLE
350
17
0
DICTIONARY
5
D
100
AcDbDictionary
0
DICTIONARY
5
1A
330
C
100
AcDbDictionary
0
DICTIONARY
5
17
100
AcDbDictionary
0
ENDSEC
0
EOF
